<svg width="298" height="15" viewBox="0 0 298 15" fill="none" xmlns="http://www.w3.org/2000/svg">
<path d="M9.92652 7.51169L7.1669 7.95939C7.07491 7.45573 6.86028 7.09198 6.52299 6.81217C6.1857 6.56034 5.75643 6.42044 5.23517 6.42044C4.52993 6.42044 3.97801 6.64428 3.54874 7.09198C3.11946 7.53967 2.93549 8.26718 2.93549 9.30247C2.93549 10.4497 3.15013 11.2611 3.5794 11.7368C4.00867 12.2125 4.5606 12.4643 5.26583 12.4643C5.78709 12.4643 6.24703 12.3244 6.58431 12.0446C6.9216 11.7648 7.1669 11.2891 7.32021 10.6176L10.0798 11.0373C9.80387 12.1845 9.25194 13.0799 8.42406 13.6675C7.59617 14.2551 6.52299 14.5629 5.14318 14.5629C3.5794 14.5629 2.3529 14.1152 1.43303 13.2198C0.513159 12.3244 0.0532227 11.0932 0.0532227 9.49833C0.0532227 7.90342 0.513159 6.64428 1.43303 5.7489C2.3529 4.85351 3.61006 4.40581 5.20451 4.40581C6.49233 4.40581 7.53485 4.65764 8.30141 5.1613C9.06797 5.66495 9.61989 6.44842 9.95718 7.48371L9.92652 7.51169ZM20.5357 0.936184V5.8888C21.4556 4.90947 22.5288 4.40581 23.8166 4.40581C24.4605 4.40581 25.0431 4.51774 25.5643 4.74158C26.0856 4.96543 26.4842 5.24524 26.7602 5.58101C27.0361 5.91678 27.2201 6.30851 27.3121 6.70025C27.4041 7.11996 27.4654 7.76352 27.4654 8.63093V14.311H24.6445V9.19054C24.6445 8.18323 24.5831 7.53967 24.4912 7.25986C24.3685 6.98005 24.1845 6.75621 23.9086 6.6163C23.6326 6.44842 23.2953 6.36448 22.8661 6.36448C22.4061 6.36448 21.9768 6.4764 21.6089 6.67227C21.2409 6.86813 20.965 7.17592 20.781 7.59563C20.597 8.01535 20.5357 8.63093 20.5357 9.44237V14.311H17.7148V0.908203H20.5357V0.936184ZM35.9896 3.31456V0.936184H38.8105V3.31456H35.9896ZM35.9896 14.339V4.62966H38.8105V14.339H35.9896ZM47.304 14.339V0.936184H50.1249V8.04333L53.4058 4.62966H56.8707L53.2525 8.18323L57.1466 14.339H54.111L51.4128 9.94603L50.1249 11.2052V14.311H47.304V14.339ZM66.6213 7.62361L64.0763 7.2039C64.3523 6.25255 64.8735 5.55303 65.5481 5.10534C66.2534 4.65764 67.2959 4.43379 68.6757 4.43379C69.9328 4.43379 70.8527 4.5737 71.466 4.82553C72.0792 5.10534 72.5085 5.44111 72.7538 5.86082C72.9991 6.28053 73.1217 7.03602 73.1217 8.15525L73.0911 11.1492C73.0911 11.9886 73.1217 12.6322 73.2137 13.0239C73.3057 13.4157 73.459 13.8634 73.7043 14.311H70.914C70.8527 14.1432 70.7607 13.8913 70.6381 13.5556C70.6074 13.4157 70.5461 13.3037 70.5461 13.2478C70.0555 13.6675 69.5649 14.0033 69.013 14.2271C68.461 14.451 67.8785 14.5629 67.2652 14.5629C66.1614 14.5629 65.3028 14.2831 64.6896 13.7514C64.0763 13.2198 63.739 12.5203 63.739 11.7088C63.739 11.1492 63.8923 10.6735 64.1683 10.2538C64.4443 9.8341 64.8429 9.49833 65.3641 9.27449C65.8854 9.05064 66.6213 8.85477 67.6025 8.68689C68.921 8.46304 69.8409 8.23919 70.3315 8.07131V7.81948C70.3315 7.31583 70.2088 6.95207 69.9328 6.75621C69.6569 6.53236 69.1663 6.44842 68.4304 6.44842C67.9398 6.44842 67.5412 6.53236 67.2652 6.72823C66.9893 6.89611 66.7439 7.23188 66.5906 7.67958L66.6213 7.62361ZM70.3928 9.6942C70.0248 9.80612 69.4729 9.94603 68.6757 10.0859C67.9091 10.2258 67.3879 10.3937 67.1426 10.5336C66.7746 10.7855 66.5906 11.0653 66.5906 11.429C66.5906 11.7928 66.7439 12.1006 67.0199 12.3524C67.3265 12.6042 67.6945 12.7441 68.1544 12.7441C68.6757 12.7441 69.1356 12.6042 69.5956 12.2964C69.9328 12.0726 70.1475 11.7928 70.2701 11.457C70.3315 11.2331 70.3928 10.8134 70.3928 10.1979V9.6942ZM91.3045 14.339H88.4836V9.38641C88.4836 8.35112 88.4223 7.6516 88.2996 7.34381C88.177 7.03602 87.993 6.81217 87.717 6.6163C87.4411 6.44842 87.1038 6.36448 86.7358 6.36448C86.2452 6.36448 85.816 6.4764 85.4174 6.72823C85.0187 6.98005 84.7428 7.28784 84.6201 7.70756C84.4668 8.09929 84.4055 8.85477 84.4055 9.94603V14.339H81.5846V4.62966H84.1909V6.05669C85.1107 4.96543 86.3066 4.43379 87.717 4.43379C88.3303 4.43379 88.9129 4.54572 89.4341 4.74158C89.9554 4.93745 90.354 5.21726 90.5993 5.52505C90.8753 5.83284 91.0592 6.19659 91.1512 6.6163C91.2432 7.00804 91.3045 7.59563 91.3045 8.35112V14.367V14.339ZM109.119 7.51169L106.36 7.95939C106.268 7.45573 106.053 7.09198 105.716 6.81217C105.379 6.56034 104.949 6.42044 104.428 6.42044C103.723 6.42044 103.171 6.64428 102.742 7.09198C102.312 7.53967 102.128 8.26718 102.128 9.30247C102.128 10.4497 102.343 11.2611 102.772 11.7368C103.202 12.2125 103.753 12.4643 104.459 12.4643C104.98 12.4643 105.44 12.3244 105.777 12.0446C106.114 11.7648 106.36 11.2891 106.482 10.6176L109.242 11.0373C108.966 12.1845 108.414 13.0799 107.586 13.6675C106.758 14.2551 105.685 14.5629 104.305 14.5629C102.742 14.5629 101.515 14.1152 100.595 13.2198C99.6754 12.3244 99.2154 11.0932 99.2154 9.49833C99.2154 7.90342 99.6754 6.64428 100.595 5.7489C101.515 4.85351 102.772 4.40581 104.367 4.40581C105.655 4.40581 106.697 4.65764 107.464 5.1613C108.23 5.66495 108.782 6.44842 109.119 7.48371V7.51169ZM119.729 0.936184V5.8888C120.648 4.90947 121.722 4.40581 123.009 4.40581C123.653 4.40581 124.236 4.51774 124.788 4.74158C125.309 4.96543 125.708 5.24524 125.984 5.58101C126.26 5.91678 126.444 6.30851 126.536 6.70025C126.628 7.11996 126.689 7.76352 126.689 8.63093V14.311H123.868V9.19054C123.868 8.18323 123.807 7.53967 123.715 7.25986C123.592 6.98005 123.408 6.75621 123.132 6.6163C122.856 6.44842 122.519 6.36448 122.09 6.36448C121.63 6.36448 121.2 6.4764 120.832 6.67227C120.464 6.86813 120.189 7.17592 120.005 7.59563C119.821 8.01535 119.759 8.63093 119.759 9.44237V14.311H116.938V0.908203H119.759L119.729 0.936184ZM135.182 3.31456V0.936184H138.003V3.31456H135.182ZM135.182 14.339V4.62966H138.003V14.339H135.182ZM151.434 4.62966V6.67227H149.502V10.6176C149.502 11.429 149.532 11.8767 149.563 12.0166C149.594 12.1565 149.686 12.2684 149.808 12.3524C149.931 12.4363 150.084 12.4923 150.268 12.4923C150.544 12.4923 150.912 12.4083 151.403 12.2405L151.648 14.2271C151.004 14.4789 150.268 14.6188 149.44 14.6188C148.95 14.6188 148.49 14.5349 148.061 14.395C147.662 14.2271 147.355 14.0312 147.171 13.7794C146.987 13.5276 146.865 13.1918 146.773 12.7721C146.712 12.4643 146.681 11.8767 146.681 10.9533V6.70025H145.393V4.65764H146.681V2.72696L149.502 1.21599V4.65764H151.434V4.62966ZM161.215 7.62361L158.67 7.2039C158.946 6.25255 159.467 5.55303 160.142 5.10534C160.847 4.65764 161.889 4.43379 163.269 4.43379C164.526 4.43379 165.446 4.5737 166.059 4.82553C166.673 5.10534 167.102 5.44111 167.347 5.86082C167.593 6.28053 167.715 7.03602 167.715 8.15525L167.685 11.1492C167.685 11.9886 167.715 12.6322 167.807 13.0239C167.899 13.4157 168.053 13.8634 168.298 14.311H165.508C165.446 14.1432 165.354 13.8913 165.232 13.5556C165.201 13.4157 165.14 13.3037 165.14 13.2478C164.649 13.6675 164.158 14.0033 163.606 14.2271C163.055 14.451 162.472 14.5629 161.859 14.5629C160.755 14.5629 159.896 14.2831 159.283 13.7514C158.639 13.2198 158.333 12.5203 158.333 11.7088C158.333 11.1492 158.486 10.6735 158.762 10.2538C159.038 9.8341 159.436 9.49833 159.958 9.27449C160.479 9.05064 161.215 8.85477 162.196 8.68689C163.514 8.46304 164.434 8.23919 164.925 8.07131V7.81948C164.925 7.31583 164.802 6.95207 164.526 6.75621C164.25 6.53236 163.76 6.44842 163.024 6.44842C162.533 6.44842 162.135 6.53236 161.859 6.72823C161.583 6.89611 161.337 7.23188 161.184 7.67958L161.215 7.62361ZM164.986 9.6942C164.618 9.80612 164.066 9.94603 163.269 10.0859C162.503 10.2258 161.981 10.3937 161.736 10.5336C161.368 10.7855 161.184 11.0653 161.184 11.429C161.184 11.7928 161.337 12.1006 161.613 12.3524C161.92 12.6042 162.288 12.7441 162.748 12.7441C163.269 12.7441 163.729 12.6042 164.189 12.2964C164.526 12.0726 164.741 11.7928 164.864 11.457C164.925 11.2331 164.986 10.8134 164.986 10.1979V9.6942ZM182.372 11.2611L185.193 11.6808C184.825 12.6322 184.273 13.3317 183.476 13.8354C182.709 14.311 181.728 14.5629 180.563 14.5629C178.723 14.5629 177.343 14.0033 176.454 12.912C175.749 12.0166 175.412 10.8974 175.412 9.5543C175.412 7.9314 175.871 6.67227 176.791 5.77688C177.711 4.85351 178.876 4.40581 180.287 4.40581C181.851 4.40581 183.108 4.88149 184.028 5.83284C184.948 6.78419 185.377 8.23919 185.346 10.2258H178.324C178.355 10.9813 178.57 11.5689 178.999 12.0166C179.428 12.4363 179.98 12.6602 180.624 12.6602C181.053 12.6602 181.421 12.5483 181.728 12.3244C182.035 12.1006 182.249 11.7648 182.403 11.2611H182.372ZM182.525 8.65891C182.495 7.90342 182.311 7.34381 181.912 6.95207C181.513 6.56034 181.023 6.36448 180.44 6.36448C179.827 6.36448 179.336 6.56034 178.938 6.98005C178.539 7.39977 178.355 7.95939 178.355 8.65891H182.556H182.525ZM193.226 14.339V0.936184H196.047V8.04333L199.328 4.62966H202.793L199.175 8.18323L203.069 14.339H200.033L197.335 9.94603L196.047 11.2052V14.311H193.226V14.339ZM212.421 14.339L209.048 4.62966H211.777L213.77 10.9813L215.61 4.62966H218.308L220.087 10.9813L222.11 4.62966H224.87L221.466 14.339H218.768L216.928 8.09929L215.119 14.339H212.39H212.421ZM231.462 9.35843C231.462 8.49102 231.677 7.67958 232.168 6.86813C232.628 6.05669 233.271 5.46909 234.13 5.04937C234.989 4.62966 235.908 4.40581 236.951 4.40581C238.545 4.40581 239.864 4.88149 240.906 5.83284C241.949 6.78419 242.44 7.98737 242.44 9.44237C242.44 10.9254 241.918 12.1285 240.876 13.1079C239.833 14.0872 238.545 14.5629 236.951 14.5629C235.97 14.5629 235.05 14.367 234.161 13.9473C233.271 13.5556 232.597 12.968 232.137 12.1845C231.677 11.401 231.432 10.4497 231.432 9.33045L231.462 9.35843ZM234.345 9.49833C234.345 10.4497 234.59 11.2052 235.081 11.7088C235.571 12.2125 236.184 12.4923 236.92 12.4923C237.656 12.4923 238.269 12.2405 238.76 11.7088C239.251 11.2052 239.496 10.4497 239.496 9.47035C239.496 8.519 239.251 7.7915 238.76 7.28784C238.269 6.78419 237.656 6.50438 236.92 6.50438C236.184 6.50438 235.571 6.75621 235.081 7.28784C234.59 7.7915 234.345 8.54698 234.345 9.49833ZM260.009 14.339H257.188V9.38641C257.188 8.35112 257.127 7.6516 257.004 7.34381C256.882 7.03602 256.698 6.81217 256.422 6.6163C256.146 6.44842 255.808 6.36448 255.44 6.36448C254.95 6.36448 254.521 6.4764 254.122 6.72823C253.723 6.98005 253.447 7.28784 253.325 7.70756C253.171 8.09929 253.11 8.85477 253.11 9.94603V14.339H250.289V4.62966H252.895V6.05669C253.815 4.96543 255.011 4.43379 256.422 4.43379C257.035 4.43379 257.617 4.54572 258.139 4.74158C258.66 4.93745 259.059 5.21726 259.304 5.52505C259.58 5.83284 259.764 6.19659 259.856 6.6163C259.948 7.00804 260.009 7.59563 260.009 8.35112V14.367V14.339ZM278.315 14.339H275.708V12.912C275.279 13.4716 274.758 13.8913 274.175 14.1711C273.593 14.451 272.979 14.5909 272.397 14.5909C271.17 14.5909 270.128 14.1432 269.238 13.2478C268.38 12.3524 267.92 11.0932 267.92 9.47035C267.92 7.81948 268.349 6.56034 269.208 5.72091C270.066 4.85351 271.14 4.43379 272.427 4.43379C273.623 4.43379 274.635 4.88149 275.524 5.77688V0.936184H278.345V14.339H278.315ZM270.802 9.30247C270.802 10.3378 270.956 11.0932 271.262 11.5689C271.722 12.2405 272.335 12.5762 273.163 12.5762C273.807 12.5762 274.359 12.3244 274.819 11.8207C275.279 11.3171 275.494 10.5616 275.494 9.5543C275.494 8.43506 275.279 7.62361 274.819 7.14794C274.39 6.64428 273.807 6.42044 273.133 6.42044C272.458 6.42044 271.906 6.67227 271.446 7.14794C270.986 7.62361 270.772 8.35112 270.772 9.33045L270.802 9.30247ZM286.133 9.35843C286.133 8.49102 286.348 7.67958 286.808 6.86813C287.268 6.05669 287.912 5.46909 288.77 5.04937C289.629 4.62966 290.549 4.40581 291.591 4.40581C293.186 4.40581 294.504 4.88149 295.547 5.83284C296.589 6.78419 297.08 7.98737 297.08 9.44237C297.08 10.9254 296.559 12.1285 295.516 13.1079C294.474 14.0872 293.186 14.5629 291.591 14.5629C290.61 14.5629 289.69 14.367 288.801 13.9473C287.912 13.5556 287.237 12.968 286.777 12.1845C286.317 11.401 286.103 10.4497 286.103 9.33045L286.133 9.35843ZM289.016 9.49833C289.016 10.4497 289.261 11.2052 289.752 11.7088C290.242 12.2125 290.855 12.4923 291.591 12.4923C292.327 12.4923 292.941 12.2405 293.431 11.7088C293.922 11.2052 294.167 10.4497 294.167 9.47035C294.167 8.519 293.922 7.7915 293.431 7.28784C292.941 6.78419 292.327 6.50438 291.591 6.50438C290.855 6.50438 290.242 6.75621 289.752 7.28784C289.261 7.7915 289.016 8.54698 289.016 9.49833Z" fill="#393185"/>
</svg>
