<svg width="55" height="62" viewBox="0 0 55 62" fill="none" xmlns="http://www.w3.org/2000/svg">
<g clip-path="url(#clip0)">
<path fill-rule="evenodd" clip-rule="evenodd" d="M23.9511 16.6406C23.2012 14.1165 21.773 10.0692 19.8885 8.23911C19.8153 8.16807 19.7405 8.1017 19.6634 8.04003C19.0221 7.52474 18.2195 7.28896 17.4326 7.32409C16.6575 7.36 15.9053 7.66293 15.3521 8.2235C15.2891 8.28752 15.2285 8.35466 15.1719 8.42415C14.5534 9.18147 14.3 9.95518 14.3087 10.668C14.3189 11.4745 14.6659 12.2295 15.1994 12.8033C16.5741 14.2805 21.1679 15.8138 23.9511 16.6391V16.6406ZM25.7909 13.8034C27.005 10.0325 29.0635 4.81167 31.7995 2.1556C31.9695 1.99008 32.1465 1.83394 32.3298 1.68716C33.8352 0.477013 35.7001 -0.0749693 37.5162 0.00935046C39.3488 0.094451 41.1374 0.822099 42.468 2.172C42.6223 2.32814 42.7702 2.49288 42.9126 2.66698C44.2661 4.32371 44.8208 6.08506 44.7988 7.74959C44.7736 9.67177 43.9781 11.4386 42.7513 12.7565C40.6267 15.0409 34.6866 17.2121 30.5232 18.5214H55.0007V25.1202H50.2306V23.0685H4.77087V25.1202H0.000786882V18.5214H21.2545C18.3131 17.5424 14.6793 16.0996 13.2613 14.5756C12.3139 13.5567 11.6986 12.1897 11.6797 10.7C11.6632 9.41178 12.0897 8.05252 13.1307 6.77757C13.2409 6.6425 13.3565 6.51446 13.4761 6.39267C14.5085 5.3457 15.8935 4.78122 17.3098 4.71486H17.3153C18.7184 4.64928 20.1607 5.07712 21.3253 6.01401C21.4669 6.128 21.6039 6.24901 21.7361 6.37705C23.4963 8.08609 24.8734 11.1981 25.7924 13.8034H25.7909ZM33.6455 4.01844C30.7474 6.83222 28.6315 13.2757 27.6747 16.657C31.3762 15.5905 38.6934 13.2632 40.8117 10.9865C41.6245 10.1129 42.1517 8.95817 42.1682 7.71914C42.1824 6.63001 41.8 5.45422 40.8699 4.31512C40.7818 4.2066 40.6881 4.10276 40.5905 4.00439C39.7391 3.14089 38.5864 2.67479 37.4021 2.61936C36.2005 2.56315 34.973 2.92385 33.9902 3.71395C33.8721 3.80842 33.7573 3.9107 33.6455 4.01844ZM54.9999 47.3041V62.0008H0V47.3041H4.77008V57.4537H50.2299V47.3041H54.9999Z" fill="#6959B6"/>
<path d="M0.393555 27.1355H8.34264C9.93686 27.1355 11.1526 27.54 11.9891 28.348C12.8255 29.1561 13.2433 30.2835 13.2433 31.7278C13.2433 32.5539 13.0167 33.3104 12.5635 33.9982C12.1102 34.6861 11.4847 35.185 10.6875 35.4949V35.5464C11.7664 35.8392 12.6146 36.3896 13.2315 37.1977C13.8492 38.0058 14.1577 38.995 14.1577 40.1645C14.1577 41.7299 13.6612 42.9596 12.6689 43.8543C11.6759 44.749 10.3822 45.1956 8.78802 45.1956H0.393555V27.1348V27.1355ZM4.98973 34.2567H6.90107C7.55418 34.2567 8.06172 34.1193 8.4292 33.8437C8.79274 33.568 8.98395 33.1386 8.99969 32.5539C8.99969 31.9691 8.81241 31.5217 8.441 31.2126C8.06566 30.9026 7.55418 30.748 6.90107 30.748H4.98973V34.2567ZM4.98973 41.5839H7.10015C7.9909 41.5839 8.62434 41.416 8.99969 41.0811C9.37503 40.7454 9.56231 40.2769 9.56231 39.675C9.56231 39.1074 9.37896 38.6647 9.01149 38.3462C8.64402 38.0276 8.00743 37.8691 7.10015 37.8691H4.98973V41.5847V41.5839ZM14.6503 45.1964L20.489 27.1355H26.0695L31.9082 45.1964H26.9799L26.1396 42.0742H20.4181L19.5777 45.1964H14.6495H14.6503ZM23.2792 31.4444L21.4891 38.101H25.0686L23.2785 31.4444H23.2792ZM33.2215 45.1964V27.1355H37.8177V40.8617H41.7568V27.1355H46.353V40.8617H50.2921V27.1355H54.8883V45.1964H33.2215Z" fill="#6959B6"/>
<path d="M10.8323 50.0325H9.93996C9.95098 49.8569 9.98167 49.689 10.0305 49.5305C10.0792 49.3712 10.1493 49.2268 10.2406 49.0964C10.3948 48.8747 10.5994 48.7061 10.8543 48.5897C11.1093 48.4734 11.3965 48.4125 11.7167 48.4062C12.2605 48.4062 12.6933 48.5608 13.0167 48.87C13.3401 49.1792 13.5014 49.5813 13.5014 50.0747C13.4959 50.3355 13.44 50.5759 13.3338 50.7945C13.2276 51.0131 13.0631 51.1958 12.8404 51.3434C13.0749 51.4683 13.2598 51.6455 13.3936 51.8759C13.5281 52.1054 13.5982 52.3826 13.6037 52.7058C13.6037 53.2507 13.4361 53.7036 13.1017 54.0635C12.7672 54.4242 12.2825 54.6045 11.6475 54.6045C11.2013 54.6045 10.8307 54.5093 10.5364 54.3196C10.2421 54.1291 10.0312 53.8699 9.90534 53.5404C9.86521 53.4436 9.83216 53.3374 9.80698 53.2211C9.78101 53.1047 9.76527 52.99 9.75977 52.876H10.6521C10.6749 53.143 10.7764 53.3616 10.9566 53.5318C11.1368 53.702 11.3729 53.7871 11.6648 53.7871C11.9678 53.7871 12.2156 53.6895 12.4068 53.4935C12.5988 53.2976 12.694 53.0321 12.694 52.6972C12.694 52.4192 12.6028 52.1874 12.4194 52.0031C12.2361 51.8189 11.9843 51.7267 11.664 51.7267H11.4838V50.9437H11.664C11.9733 50.9491 12.2078 50.8843 12.3675 50.7477C12.528 50.6111 12.6075 50.4073 12.6075 50.1348C12.6075 49.8569 12.5257 49.6351 12.3628 49.4704C12.1999 49.3057 11.9811 49.2237 11.7065 49.2237C11.4547 49.2237 11.2485 49.2963 11.0888 49.4407C10.9283 49.5852 10.8425 49.7827 10.8315 50.0325H10.8323Z" fill="#6959B6"/>
<path d="M17.0967 54.4855V48.5254H20.1089V49.3772H18.0236V50.9269H18.6075C18.9561 50.9269 19.2512 50.9683 19.4912 51.0503C19.7312 51.1323 19.9405 51.2502 20.1175 51.404C20.2891 51.5632 20.4268 51.7561 20.5298 51.9833C20.6329 52.2105 20.6841 52.4541 20.6841 52.7156C20.6786 53.0107 20.6109 53.2871 20.4826 53.5455C20.3536 53.804 20.1726 54.0093 19.9373 54.1631C19.7713 54.2763 19.5872 54.3591 19.3841 54.4098C19.1811 54.4606 18.9278 54.4863 18.6248 54.4863H17.0975L17.0967 54.4855ZM18.0236 51.7779V53.6338H18.5729C18.9734 53.6338 19.2708 53.5541 19.4652 53.3956C19.6596 53.2364 19.7571 53.0123 19.7571 52.7226C19.7571 52.433 19.6572 52.205 19.4565 52.0372C19.2567 51.8693 18.9671 51.7834 18.5902 51.7772H18.0236V51.7779Z" fill="#6959B6"/>
<path d="M24.6315 48.4062C25.5239 48.4062 26.2675 48.7045 26.8624 49.3002C27.4572 49.8959 27.7547 50.6345 27.7547 51.5144C27.7492 52.3943 27.4502 53.1289 26.8576 53.72C26.2651 54.3102 25.5231 54.6053 24.6308 54.6053C23.7329 54.6053 22.9877 54.3102 22.3952 53.72C21.8027 53.1297 21.5068 52.3943 21.5068 51.5144C21.5068 50.6345 21.8027 49.8982 22.3952 49.3049C22.987 48.7115 23.7321 48.4125 24.6308 48.4062H24.6315ZM24.6315 53.7535C25.2611 53.7535 25.7788 53.5451 26.1849 53.1274C26.5909 52.7105 26.7939 52.1725 26.7939 51.5136C26.7939 50.8554 26.5909 50.3144 26.1849 49.8912C25.7788 49.4681 25.2611 49.2573 24.6315 49.2573C23.9965 49.2573 23.4772 49.4688 23.0743 49.8912C22.6706 50.3144 22.4692 50.8546 22.4692 51.5136C22.4692 52.1718 22.6706 52.7097 23.0743 53.1274C23.478 53.5443 23.9965 53.7535 24.6315 53.7535Z" fill="#6959B6"/>
<path d="M29.7805 48.5254V50.8582H32.3378V48.5254H33.2648V54.4856H32.3378V51.7092H29.7805V54.4856H28.8535V48.5254H29.7805Z" fill="#6959B6"/>
<path d="M34.0029 48.5254H35.1211L36.6775 51.5835L38.0703 48.5254H39.0311L36.3164 54.4856H35.3556L36.1653 52.707L34.0029 48.5254Z" fill="#6959B6"/>
<path d="M44.2398 48.8483V49.9211C44.0109 49.7056 43.7606 49.5409 43.4892 49.4269C43.2177 49.3137 42.9273 49.2567 42.6181 49.2567C41.9713 49.2567 41.4511 49.4706 41.0561 49.8992C40.6611 50.3278 40.4636 50.8712 40.4636 51.5294C40.4636 52.1712 40.6643 52.7013 41.064 53.1213C41.4645 53.5414 41.9823 53.7514 42.6173 53.7514C42.9037 53.7514 43.1838 53.6944 43.4585 53.5812C43.7331 53.468 43.9936 53.2947 44.2391 53.062V54.1519C43.9762 54.3166 43.7056 54.433 43.4278 54.5009C43.15 54.5688 42.8715 54.6032 42.5913 54.6032C42.1562 54.6032 41.762 54.5321 41.4071 54.39C41.0522 54.2479 40.7374 54.0434 40.4628 53.7772C40.1536 53.493 39.9151 53.1658 39.746 52.7934C39.5768 52.4218 39.4957 52.0002 39.5012 51.5294C39.5012 51.0586 39.5839 50.6237 39.7499 50.2263C39.9159 49.829 40.1536 49.4854 40.462 49.1958C40.7311 48.9405 41.0396 48.7445 41.389 48.6079C41.7383 48.4712 42.153 48.4033 42.633 48.4033C42.9533 48.4033 43.2437 48.4385 43.5041 48.5095C43.7646 48.5805 44.0093 48.693 44.2375 48.846L44.2398 48.8483Z" fill="#6959B6"/>
</g>
<defs>
<clipPath id="clip0">
<rect width="55" height="62" fill="white"/>
</clipPath>
</defs>
</svg>
