<svg width="54" height="48" viewBox="0 0 54 48" fill="none" xmlns="http://www.w3.org/2000/svg">
<path fill-rule="evenodd" clip-rule="evenodd" d="M5.96746 0H48.0321C51.3144 0 53.9995 2.66763 53.9995 5.92776V11.4968H49.4061C48.7297 11.4968 48.1762 12.0466 48.1762 12.7185V35.2096C48.1762 35.8815 48.7297 36.4312 49.4061 36.4312H53.9995V42.0722C53.9995 45.3327 51.314 48 48.0321 48H5.96746C2.68515 48 0 45.3324 0 42.0722V36.4312H4.5569C5.23331 36.4312 5.78674 35.8815 5.78674 35.2096V12.7185C5.78674 12.0466 5.23331 11.4968 4.5569 11.4968H0V5.92776C0 2.66729 2.68549 0 5.96746 0ZM5.75941 3.87096H9.65663V7.71545H5.75941V3.87096ZM15.3757 3.87096H19.273V7.71545H15.3757V3.87096ZM24.9965 3.87096H28.8937V7.71545H24.9965V3.87096ZM34.6535 3.87096H38.5507V7.71545H34.6535V3.87096ZM44.3467 3.87096H48.2439V7.71545H44.3467V3.87096ZM5.75907 40.3113H9.65629V44.1558H5.75907V40.3113ZM15.3754 40.3113H19.2726V44.1558H15.3754V40.3113ZM24.9962 40.3113H28.8934V44.1558H24.9962V40.3113ZM34.6531 40.3113H38.5504V44.1558H34.6531V40.3113ZM44.3463 40.3113H48.2435V44.1558H44.3463V40.3113ZM19.2545 16.6617C19.2542 16.6509 19.2542 16.64 19.2542 16.6288C19.2542 15.9776 19.7854 15.4499 20.441 15.4499C20.6746 15.4499 20.8926 15.5171 21.076 15.6328L35.7149 22.9631C35.7532 22.9801 35.7907 22.9987 35.8269 23.0191H35.8273C36.1843 23.2224 36.4248 23.6045 36.4248 24.0426C36.4248 24.5262 36.1317 24.9419 35.7122 25.1234L20.9859 32.4965L20.9664 32.5063L20.9609 32.509C20.8041 32.585 20.6275 32.6278 20.4413 32.6278C19.7857 32.6278 19.2545 32.1001 19.2545 31.4489L19.2549 16.6614L19.2545 16.6617ZM12.7124 11.4968H41.2857C41.9621 11.4968 42.5156 12.0466 42.5156 12.7185V35.2096C42.5156 35.8815 41.9621 36.4312 41.2857 36.4312H12.7124C12.036 36.4312 11.4826 35.8815 11.4826 35.2096V12.7185C11.4826 12.0466 12.036 11.4968 12.7124 11.4968Z" fill="#6959B6"/>
</svg>
