<svg width="55" height="54" viewBox="0 0 55 54" fill="none" xmlns="http://www.w3.org/2000/svg">
<path fill-rule="evenodd" clip-rule="evenodd" d="M11.0583 52.3974C12.2018 52.8024 13.3635 54.3583 15.2903 53.8962C18.7044 53.0772 17.8502 48.1659 17.8836 44.8757C17.9424 39.1247 17.817 33.2666 17.8821 27.4786C17.9037 25.5614 17.8744 23.6276 17.8741 21.7087C17.8738 19.5468 17.6312 19.886 18.9516 19.8868L27.7224 19.8814C29.4128 19.8897 31.7652 20.12 33.0579 19.4187C34.2581 18.7677 35.0631 17.0277 34.0933 15.3586C33.3186 14.0247 31.7335 13.8579 29.7395 13.8963C27.7878 13.934 25.8149 13.9526 23.8632 13.952C21.9459 13.9518 20.081 13.755 18.2509 13.7525C12.5017 13.7436 12.3246 17.6974 11.0583 18.1284C10.6959 17.7867 10.1712 17.2405 9.88054 16.7626C8.86611 15.0959 7.94964 13.9483 5.35812 13.8165C3.77929 13.7361 2.20162 13.9618 1.25029 14.7314C0.121486 15.6444 0.0209364 16.6426 0.0131575 18.4742C-0.00124783 21.7994 -0.00441701 25.1151 0.00912402 28.4404C0.0160386 30.143 -0.124846 31.5304 0.835127 32.599C2.02875 33.9274 4.00949 33.6288 4.3339 34.0064C4.54479 34.4774 4.40449 46.4362 4.41284 48.1102C4.42523 50.5515 4.34571 52.4885 6.06341 53.5249C8.46161 54.9717 10.3349 52.6783 11.0583 52.3974Z" fill="#6959B6"/>
<path fill-rule="evenodd" clip-rule="evenodd" d="M38.1285 3.29582C37.6739 2.46502 38.2616 1.38639 37.2463 0.501312C36.5422 -0.112383 35.1374 0.00392309 34.0374 0.0174204C31.7193 0.046138 31.373 0.329294 30.8057 2.30449C30.4867 3.41471 30.6841 3.35929 30.0119 3.3748C27.6351 3.42965 24.9761 3.22259 22.6442 3.38284C21.4796 3.46296 20.5859 3.68179 20.539 4.9221C20.4914 6.17792 21.0812 6.68708 22.2065 6.78989C23.2901 6.88868 28.0303 6.79851 29.5645 6.81028C31.9786 6.82866 50.8562 6.69455 51.4488 6.88552C51.5857 9.43593 51.454 12.3028 51.4589 14.8894L51.4609 34.822C51.4195 38.9634 51.9591 38.7368 50.4393 38.7316L24.1268 38.7239C22.9732 38.7207 21.4736 38.6182 20.8599 39.3453C20.1512 40.1853 20.522 41.6249 21.5122 41.973C22.4137 42.2897 24.1158 42.153 25.1792 42.1519L48.5093 42.1588C49.8173 42.1579 51.1535 42.1815 52.4572 42.1542C53.8105 42.1258 54.6572 42.0362 54.8842 40.7476C55.0822 39.6236 54.9684 18.131 54.9637 17.5122C54.9347 13.6801 55.0323 9.5485 54.9689 5.79454C54.9476 4.53527 54.6601 3.66255 53.5126 3.4351C52.8286 3.29956 47.0434 3.38456 45.7907 3.37164C44.638 3.35958 38.6583 3.5135 38.1294 3.29582H38.1285Z" fill="#6959B6"/>
<path fill-rule="evenodd" clip-rule="evenodd" d="M10.3326 0.0730967C7.3717 0.546937 5.12043 3.01723 5.46386 6.49694C5.73151 9.20903 8.66674 11.8378 11.8791 11.3338C14.7781 10.879 17.1181 8.42906 16.7433 4.93815C16.4459 2.16833 13.6098 -0.451574 10.3326 0.0728096V0.0730967Z" fill="#6959B6"/>
<path fill-rule="evenodd" clip-rule="evenodd" d="M34.3884 46.6461C35.457 47.4459 39.9281 52.4324 40.8956 52.9867C42.6608 53.9978 43.5753 52.9065 43.0535 51.9706C42.7527 51.431 37.5844 46.348 36.7048 45.4515C36.0969 44.832 35.1888 43.6112 34.0496 43.8358C33.2564 43.9923 30.3367 47.2205 29.5756 47.9462L26.3249 51.1757C26.0581 51.4273 25.5331 51.9313 25.5533 52.4781C25.5648 52.7914 26.3623 54.6285 27.9449 53.0533C28.6856 52.3161 29.3246 51.6849 30.0953 50.9121C30.7211 50.2846 33.981 46.8819 34.3884 46.6461Z" fill="#6959B6"/>
</svg>
