<svg width="55" height="62" viewBox="0 0 55 62" fill="none" xmlns="http://www.w3.org/2000/svg">
<g clip-path="url(#clip0)">
<path fill-rule="evenodd" clip-rule="evenodd" d="M23.9515 16.6402C23.2015 14.1159 21.7736 10.069 19.8882 8.23916C19.8152 8.16829 19.7401 8.10166 19.6633 8.04031C19.0221 7.52466 18.2193 7.28932 17.4326 7.32475C16.6576 7.36071 15.9055 7.66375 15.3522 8.22435C15.2893 8.28834 15.229 8.35551 15.172 8.42479C14.5537 9.1816 14.3 9.95586 14.309 10.6682C14.3197 11.4753 14.6656 12.23 15.1997 12.8038C16.5739 14.2815 21.168 15.8141 23.951 16.6402H23.9515ZM25.7915 13.8028C27.0052 10.0315 29.0638 4.81158 31.7998 2.15509C31.9698 1.98955 32.1473 1.83354 32.3302 1.68651C33.8349 0.476467 35.7005 -0.0761977 37.5165 0.00842087C39.3485 0.0935683 41.1379 0.821288 42.4689 2.17095C42.6229 2.32697 42.7711 2.49197 42.9129 2.66597C44.2663 4.32291 44.8211 6.08403 44.7993 7.7489C44.7742 9.6708 43.9784 11.4377 42.7519 12.7562C40.6273 15.0404 34.6877 17.2119 30.5237 18.5208H55.0014V25.12H50.2314V23.068H4.77157V25.12H0.00150959V18.5208H21.2555C18.3142 17.5419 14.68 16.0992 13.2622 14.575C12.3144 13.5564 11.6999 12.1893 11.6801 10.6994C11.6631 9.41113 12.09 8.05194 13.131 6.77737C13.2414 6.64199 13.3565 6.514 13.4764 6.39236C14.5089 5.34521 15.8937 4.78091 17.31 4.7148H17.3153C18.7182 4.64975 20.1611 5.07707 21.3258 6.01369C21.4676 6.1274 21.6046 6.24851 21.7362 6.37649C23.4963 8.08579 24.8736 11.1971 25.7926 13.8028H25.7915ZM33.6462 4.01775C30.7481 6.83132 28.632 13.275 27.6758 16.6561C31.3776 15.5893 38.6945 13.2623 40.8128 10.9856C41.6256 10.1119 42.1528 8.95736 42.1688 7.71823C42.1832 6.62876 41.801 5.45309 40.8703 4.31392C40.7819 4.2055 40.6886 4.10184 40.591 4.00294C39.7393 3.13931 38.5874 2.67338 37.4025 2.61784C36.201 2.56178 34.9735 2.92247 33.9906 3.7126C33.8727 3.80726 33.7576 3.90881 33.6462 4.01722V4.01775ZM55.0009 47.3033V62H0.000976562V47.3033H4.77104V57.4528H50.2308V47.3033H55.0009Z" fill="#6959B6"/>
<path d="M0.393555 27.1353H8.3426C9.93688 27.1353 11.1527 27.5393 11.989 28.348C12.8254 29.1566 13.2438 30.2831 13.2438 31.728C13.2438 32.5535 13.0172 33.3103 12.5636 33.9984C12.1106 34.6864 11.4848 35.1852 10.6879 35.4951V35.5464C11.7668 35.8388 12.6148 36.3894 13.2321 37.1975C13.8493 38.0061 14.1585 38.9951 14.1585 40.1644C14.1585 41.7299 13.6622 42.9595 12.6697 43.8538C11.6772 44.7481 10.3836 45.1955 8.78874 45.1955H0.394088V27.1348L0.393555 27.1353ZM4.98932 34.2565H6.90022C7.55318 34.2565 8.06116 34.119 8.42841 33.8434C8.79194 33.5684 8.9833 33.1385 8.99875 32.5535C8.99875 31.9686 8.81113 31.5217 8.44014 31.2118C8.06489 30.9024 7.55318 30.7474 6.90022 30.7474H4.98932V34.2565ZM4.98932 41.5839H7.09958C7.9908 41.5839 8.62403 41.4163 8.99875 41.081C9.37401 40.7457 9.56163 40.2766 9.56163 39.6747C9.56163 39.1072 9.37774 38.664 9.01048 38.3462C8.64322 38.0278 8.00626 37.8686 7.09958 37.8686H4.98932V41.5839ZM14.6504 45.1961L20.4892 27.1353H26.07L31.9088 45.1961H26.9804L26.1404 42.0742H20.4189L19.5788 45.1961H14.6504ZM23.2796 31.444L21.4897 38.1008H25.0695L23.2796 31.444ZM33.2217 45.1961V27.1353H37.8174V40.8615H41.757V27.1353H46.3528V40.8615H50.2924V27.1353H54.8882V45.1961H33.2217Z" fill="#6959B6"/>
<path d="M13.6726 53.6674V54.485H9.63916L11.7329 51.9819C11.9274 51.7492 12.0762 51.5662 12.179 51.4329C12.2819 51.2997 12.3736 51.1733 12.4535 51.0543C12.5564 50.9009 12.6294 50.7576 12.6726 50.6243C12.7153 50.491 12.7398 50.3535 12.7456 50.2113C12.7456 49.9442 12.6572 49.7131 12.4797 49.5174C12.3022 49.3217 12.0618 49.2239 11.759 49.2239C11.4728 49.2239 11.2286 49.3233 11.025 49.5216C10.8219 49.7205 10.7148 49.9844 10.7031 50.3133H9.8108C9.82252 50.0637 9.87103 49.8278 9.95684 49.6068C10.0427 49.3852 10.1626 49.1869 10.3172 49.0107C10.4888 48.8119 10.6919 48.6617 10.9264 48.5596C11.161 48.4575 11.4355 48.4062 11.7499 48.4062C12.3448 48.4062 12.8112 48.5824 13.1486 48.9341C13.486 49.2863 13.655 49.7147 13.655 50.2197C13.6491 50.4239 13.615 50.6243 13.5521 50.82C13.4892 51.0157 13.3805 51.233 13.2259 51.4716C13.1513 51.5794 13.0644 51.6974 12.9642 51.8248C12.864 51.9523 12.6652 52.1924 12.3677 52.5441L11.4067 53.6679H13.672L13.6726 53.6674Z" fill="#6959B6"/>
<path d="M17.0967 54.4857V48.5254H20.1088V49.3769H18.0236V50.9264H18.6073C18.9564 50.9264 19.2506 50.9677 19.491 51.0497C19.7314 51.1322 19.9398 51.2496 20.1173 51.403C20.289 51.5621 20.4265 51.7546 20.5294 51.9821C20.6323 52.2089 20.684 52.4533 20.684 52.7145C20.6781 53.0096 20.6109 53.2862 20.4825 53.5449C20.354 53.8029 20.1722 54.0087 19.9377 54.162C19.7719 54.2758 19.5875 54.3577 19.3844 54.409C19.1813 54.4603 18.9282 54.4857 18.6249 54.4857H17.0972H17.0967ZM18.0236 51.7779V53.6342H18.5726C18.9729 53.6342 19.2704 53.5549 19.4649 53.3957C19.6595 53.2365 19.7565 53.0128 19.7565 52.723C19.7565 52.4337 19.6563 52.2052 19.4564 52.0376C19.256 51.8699 18.9671 51.7837 18.5897 51.7779H18.0231H18.0236Z" fill="#6959B6"/>
<path d="M24.6314 48.4058C25.5236 48.4058 26.2678 48.7036 26.8626 49.2996C27.4575 49.8956 27.7549 50.6334 27.7549 51.5134C27.749 52.3935 27.45 53.1286 26.8583 53.7188C26.2662 54.309 25.5236 54.6041 24.6314 54.6041C23.7332 54.6041 22.988 54.309 22.3958 53.7188C21.8036 53.1286 21.5078 52.3935 21.5078 51.5134C21.5078 50.6334 21.8036 49.8972 22.3958 49.3038C22.988 48.7104 23.7332 48.4111 24.6314 48.4053V48.4058ZM24.6314 53.7532C25.2609 53.7532 25.7784 53.5448 26.1846 53.1275C26.5908 52.7102 26.7938 52.1724 26.7938 51.5139C26.7938 50.8555 26.5908 50.315 26.1846 49.8919C25.7784 49.4688 25.2609 49.2578 24.6314 49.2578C23.9965 49.2578 23.4774 49.4694 23.0738 49.8919C22.6703 50.315 22.4689 50.8555 22.4689 51.5139C22.4689 52.1724 22.6703 52.7102 23.0738 53.1275C23.4774 53.5448 23.9965 53.7532 24.6314 53.7532Z" fill="#6959B6"/>
<path d="M29.7805 48.5254V50.8582H32.3379V48.5254H33.2649V54.4857H32.3379V51.7097H29.7805V54.4857H28.8535V48.5254H29.7805Z" fill="#6959B6"/>
<path d="M34.0024 48.5254H35.1207L36.6772 51.5833L38.07 48.5254H39.031L36.3168 54.4857H35.3553L36.1649 52.7071L34.0024 48.5254Z" fill="#6959B6"/>
<path d="M44.2402 48.8484V49.9214C44.0116 49.7057 43.7611 49.5412 43.4892 49.4275C43.2174 49.3138 42.9269 49.2572 42.6182 49.2572C41.9717 49.2572 41.4509 49.4714 41.0565 49.9003C40.6615 50.3287 40.4643 50.8723 40.4643 51.5308C40.4643 52.1723 40.6647 52.7028 41.065 53.1232C41.4653 53.5431 41.9834 53.7531 42.6182 53.7531C42.9045 53.7531 43.1848 53.6965 43.4594 53.5828C43.7339 53.4691 43.9945 53.2961 44.2402 53.0634V54.1534C43.9769 54.3179 43.7067 54.4343 43.4295 54.5025C43.1518 54.5707 42.873 54.6045 42.5927 54.6045C42.1577 54.6045 41.7633 54.5337 41.4083 54.3919C41.0538 54.2502 40.7388 54.0455 40.4643 53.779C40.1551 53.495 39.9163 53.1676 39.7479 52.7953C39.5789 52.4235 39.4974 52.002 39.5032 51.5308C39.5032 51.0596 39.5864 50.6254 39.7521 50.2282C39.9179 49.831 40.1557 49.4873 40.4643 49.198C40.7335 48.9425 41.0421 48.7468 41.3912 48.6104C41.7403 48.4739 42.155 48.4062 42.6353 48.4062C42.9556 48.4062 43.2461 48.4417 43.5063 48.5126C43.7664 48.5834 44.011 48.6955 44.2402 48.8489V48.8484Z" fill="#6959B6"/>
</g>
<defs>
<clipPath id="clip0">
<rect width="55" height="62" fill="white"/>
</clipPath>
</defs>
</svg>
