<svg width="63" height="58" viewBox="0 0 63 58" fill="none" xmlns="http://www.w3.org/2000/svg">
<path fill-rule="evenodd" clip-rule="evenodd" d="M40.0075 53.2136C39.9723 53.0257 39.4893 51.7449 39.3879 51.444C39.2202 50.9452 39.0581 50.2236 38.5852 49.8741C37.9268 49.3873 37.3671 49.6544 36.657 49.773L34.6567 50.1639L37.4265 45.423C37.4301 45.4178 37.4382 45.4075 37.4451 45.4003C38.3528 46.108 38.8168 46.5395 39.8891 47.0672C41.6961 47.9564 42.7037 48.0229 42.9692 48.1459L40.0075 53.2136ZM60.1737 3.36981L60.2557 3.63569C60.2565 3.72007 60.2509 3.8152 60.2509 3.90277V40.6797H60.2477C60.2485 40.6964 60.2497 40.7115 60.2509 40.7255V40.8779C60.2396 40.8994 60.2165 40.9197 60.1737 40.9492C60.1216 40.9786 60.1721 40.9193 60.1272 41.018C60.0787 41.1255 60.0783 41.1912 59.953 41.303C59.6244 41.5975 58.8416 41.4821 58.279 41.4821C57.4411 41.4821 56.6037 41.4821 55.7659 41.4821C56.693 39.1903 56.9218 37.2312 56.4784 34.841C56.32 33.9869 55.9502 33.2489 55.9583 32.7263C56.0108 29.277 55.9595 25.7851 55.9595 22.3306V14.5635C55.9595 13.2019 56.2363 11.8828 55.2631 11.3276C54.5178 10.9025 53.6598 11.4832 52.4311 10.1948C52.2032 9.95597 52.0601 9.69128 51.932 9.39156C51.7364 8.93343 51.7796 8.75193 51.7392 8.28664C51.6854 7.66333 51.0852 6.89076 50.3921 7.0241C49.8695 6.87762 46.5145 6.94807 45.7139 6.94807H14.8616C13.5658 6.94807 11.5527 6.59224 11.3284 8.15171C11.2164 8.92906 11.2985 9.25703 10.8021 9.95597C9.69674 11.5115 8.41312 10.8077 7.58418 11.4701C6.95732 11.9712 7.09635 12.6009 7.0915 13.3074C7.05229 18.7177 7.09069 24.2619 7.09069 29.6786C7.09069 30.3433 7.02805 31.3706 7.10039 31.9916C7.17152 32.6029 7.703 33.0806 8.31086 33.1602C9.09333 33.2625 9.43889 33.1992 10.1316 33.6899C10.6304 34.043 10.9788 34.5043 11.1505 35.085C11.5058 35.5268 10.9472 36.6099 12.0773 37.1806C12.5178 37.4031 12.9822 37.3315 13.4704 37.3315H33.7292C33.6213 37.6057 33.9018 39.201 33.9842 39.5553C34.12 40.138 34.3605 40.9324 34.6184 41.4817H4.34601C3.70743 41.4817 3.11977 41.6374 2.87687 40.9106V3.40682C3.08016 2.73694 3.47948 2.83565 4.07643 2.83685C22.5722 2.86829 41.0971 2.83565 59.5937 2.83565C59.772 2.86192 59.9963 3.00442 60.0852 3.19069C60.1531 3.33279 60.1062 3.3308 60.1737 3.36861V3.36981ZM62.9576 41.0256H62.9608V40.8361V40.8353L62.9576 3.25557C63.0501 3.02034 62.9616 3.01079 62.9572 2.7859C62.0131 -0.349759 59.6115 0.0192128 57.1966 0.0192128C39.9533 0.0192128 22.71 0.0192128 5.46676 0.0192128C4.19323 0.0192128 2.83564 -0.151541 1.70237 0.53824C0.876253 1.04095 -0.00846401 2.19045 0.0925772 3.17955C-0.052518 3.41041 0.0153817 5.11675 0.0153817 5.50204V41.0638C0.181089 41.7854 0.177856 42.1022 0.625266 42.7478C0.944557 43.2088 1.38429 43.6 1.87696 43.8759C2.48402 44.2158 3.11977 44.2994 3.80483 44.2998L34.8107 44.3006C34.6082 44.4996 33.9951 45.6168 33.8072 45.9392C33.4891 46.4857 33.1605 47.0366 32.8513 47.5867C32.2411 48.6721 31.5689 49.7981 30.9223 50.8648C30.5335 51.5064 30.1839 52.0175 30.5698 52.7789C30.9364 53.5014 31.6619 53.5885 32.3918 53.454C33.1213 53.3195 33.8614 53.1738 34.5884 53.0285C34.9441 52.9573 36.5943 52.6731 36.7827 52.6002C36.9581 53.2797 37.8832 55.7076 38.1892 56.6219C38.447 57.3921 38.6632 57.8422 39.55 57.9875C39.8778 58.0413 40.3292 57.898 40.5818 57.6739C41.0692 57.242 42.7118 54.1856 43.1697 53.4452L45.1727 50.0111C45.3607 50.136 46.9575 52.9871 47.2295 53.4301C47.9146 54.5466 48.5734 55.7279 49.2338 56.8627C49.3696 57.0959 49.5813 57.492 49.7887 57.6488C50.0506 57.8462 50.4701 58.0365 50.8007 57.9935C51.6943 57.8773 51.9425 57.4422 52.2044 56.6693C52.326 56.3102 53.57 52.8458 53.6012 52.5998C54.2123 52.7634 54.9672 52.8653 55.6018 52.9903C56.2808 53.124 56.9666 53.2426 57.6444 53.3776C58.4144 53.5308 58.8836 53.6876 59.5396 53.1563C60.0472 52.7451 60.1123 51.9295 59.7853 51.3831C58.9066 49.9131 58.0268 48.3417 57.1352 46.873C56.8535 46.4089 56.5358 45.7486 56.2299 45.3279L55.6341 44.3089C56.5394 44.2998 57.4286 44.2998 58.3178 44.2998C59.1964 44.2998 59.9615 44.369 60.7424 44.0605C61.6271 43.7111 62.4293 42.9918 62.7591 42.1249C62.8614 41.8567 63.0683 41.3042 62.9572 41.0256H62.9576ZM25.4167 13.9163C24.1553 14.1719 23.8821 15.7254 24.937 16.445C25.4293 16.7809 26.2643 16.6958 26.8475 16.6958H35.5079C36.1117 16.6958 37.0599 16.7523 37.6221 16.6456C38.8196 16.4183 39.1866 14.8314 38.1314 14.1122C37.616 13.7611 36.815 13.8781 36.2039 13.8781H27.5435C26.9942 13.8781 25.8977 13.8188 25.4171 13.9163H25.4167ZM42.4668 37.1802C42.3771 36.6879 42.7134 35.694 43.1911 35.2283C43.6846 34.7479 44.2912 34.3658 45.0167 34.361C46.6334 34.3507 47.7278 35.3063 47.9134 36.8805C47.9825 37.4684 47.6672 38.366 47.1935 38.8273C46.6948 39.3129 46.0954 39.6775 45.3679 39.6946C44.6489 39.7117 43.883 39.5155 43.3653 38.9984C42.7732 38.407 42.6127 37.9847 42.4664 37.1802H42.4668ZM44.6319 31.5832C42.9999 31.7957 42.0841 32.2793 40.969 33.4587C40.524 33.9296 40.1696 34.5883 39.942 35.1889C39.649 35.9627 39.5799 36.7416 39.649 37.556C39.8988 40.5125 42.7623 42.8637 45.7681 42.4875C47.468 42.2746 48.3244 41.6967 49.4156 40.5973C49.8445 40.1654 50.2288 39.4315 50.4422 38.8671C50.7352 38.0933 50.8043 37.3144 50.7352 36.5C50.4855 33.5431 47.6385 31.1919 44.6311 31.5836L44.6319 31.5832ZM55.7279 50.1257C55.4935 50.1261 54.0631 49.8319 53.7337 49.7671C52.9056 49.6039 51.7917 49.3229 51.3253 50.5492L50.4851 52.958C50.4653 53.0185 50.4741 53.0062 50.4463 53.0723L50.3925 53.1718L48.4594 49.8976C48.29 49.5883 47.4756 48.3497 47.4542 48.1081C48.1918 48.1069 49.8364 47.3916 50.5214 47.0545C51.1042 46.7679 52.5996 45.8222 52.9828 45.3287C53.0333 45.6347 55.6608 49.8526 55.7279 50.1261V50.1257ZM16.3699 20.8082C15.1469 21.0434 14.8632 22.7052 15.9977 23.383C16.5655 23.7221 19.3801 23.5876 20.1974 23.5876H44.4771C45.081 23.5876 46.1035 23.6477 46.6584 23.5275C47.8891 23.2612 48.1769 21.6373 47.0739 20.9539C46.6245 20.6756 45.6076 20.77 45.0567 20.77H18.5734C17.9894 20.77 16.8929 20.7075 16.3695 20.8082H16.3699ZM36.7063 35.1244C36.8283 35.0269 36.8057 34.9473 36.8562 34.7774L37.2248 33.7317C37.7555 32.4779 38.6063 31.3663 39.6559 30.4906C40.3409 29.9194 41.1925 29.4366 42.0364 29.1035C42.502 28.9196 43.0052 28.7743 43.5007 28.68C43.8572 28.6119 44.4206 28.5355 44.7871 28.5383C44.9953 28.5399 45.1032 28.5028 45.2891 28.4997C45.5833 28.5844 46.5206 28.4571 48.0968 29.0091C54.2224 31.1553 55.9716 39.168 50.7466 43.5451C46.3965 47.1894 39.7205 45.5647 37.4144 40.7482C35.9812 37.755 36.7726 35.8067 36.7067 35.1248L36.7063 35.1244ZM52.6732 28.4232C50.852 27.068 49.4233 26.256 47.0852 25.8544C44.4901 25.409 41.8537 25.926 39.5581 27.1579C38.4195 27.7689 39.2178 27.6236 36.9379 27.6236H18.5346C17.9546 27.6236 17.0606 27.5715 16.517 27.6547C15.3352 27.8362 14.8466 29.2153 15.7188 30.054C16.2462 30.561 16.6977 30.4357 17.3751 30.4408C18.0573 30.446 18.7415 30.4412 19.4238 30.4412C24.8881 30.4412 30.3524 30.4412 35.8163 30.4412C35.7844 30.5563 34.9942 31.6855 34.7392 32.312C34.5395 32.8019 34.0097 34.0378 33.9992 34.5151H13.9724C13.5278 32.6646 11.8279 30.9973 9.95177 30.5551V13.7639C11.7083 13.3547 13.2756 11.8888 13.8617 10.1518L14.0112 9.76611H49.0774C49.079 10.0595 49.4726 10.8929 49.6347 11.1592C50.1039 11.9294 50.3901 12.2128 51.0582 12.7652C51.2429 12.9177 51.451 13.0478 51.6555 13.1673C52.1005 13.4268 52.6089 13.6505 53.0984 13.7643V28.8038L52.6728 28.4228L52.6732 28.4232Z" fill="#6959B6"/>
</svg>
