<svg width="72" height="58" viewBox="0 0 72 58" fill="none" xmlns="http://www.w3.org/2000/svg">
<path fill-rule="evenodd" clip-rule="evenodd" d="M12.0539 47.4449C11.9538 47.3823 11.8801 47.4295 11.7049 47.4136C11.5949 47.4045 11.4772 47.3646 11.3908 47.3197C11.2084 47.2249 11.1364 47.0969 11.0047 46.9685C11.0183 47.1187 11.0722 47.278 11.1192 47.4182C11.1663 47.5584 11.2179 47.7816 11.2672 47.8841C11.46 47.8392 11.68 47.6573 11.8552 47.5506C11.9357 47.5007 11.9828 47.4835 12.0539 47.4449ZM7.10592 34.1954C7.19916 34.0783 7.11679 33.88 7.31503 33.6005C7.43633 33.4286 7.44493 33.5325 7.36889 33.4359C7.24125 33.4681 7.03622 33.557 6.93076 33.6128C6.94253 33.7534 6.97919 33.8206 7.01314 33.9254C7.04573 34.0257 7.05433 34.1332 7.10592 34.1954ZM20.0298 45.3479L28.5986 36.6345L28.9141 36.5787C28.275 34.8859 27.9297 33.0874 27.9297 31.2222C27.9297 22.7016 35.113 15.5589 44.7808 13.6461C43.3162 10.9266 41.0178 8.68983 38.4099 7.04424C34.3907 4.50757 29.5953 3.30253 24.8668 3.30253C20.1384 3.30253 15.343 4.50757 11.3238 7.04424C8.00345 9.1399 5.18504 12.1929 3.94941 15.9804C3.51626 17.3084 3.29358 18.6872 3.29358 20.0851C3.29358 27.77 9.76049 33.3501 16.5804 35.5746L18.9702 36.3595L18.5991 44.6406C18.5647 45.126 18.5878 45.5779 18.9422 45.7857C19.1784 45.9241 19.5296 45.8492 20.0293 45.3484L20.0298 45.3479ZM45.8725 48.9907L45.873 48.9921L54.4504 57.7146C54.4504 57.7146 55.543 58.2504 56.5655 57.8543C57.5884 57.4582 57.5648 56.0835 57.5648 56.0835L57.1882 48.3079C65.8091 45.8538 71.999 39.1317 71.999 31.2222C71.999 21.2366 62.1335 13.1416 49.9641 13.1416C49.3812 13.1416 48.8036 13.1602 48.2324 13.1969C44.7523 5.4971 35.6041 0 24.8664 0C11.1324 0 -0.000976562 8.992 -0.000976562 20.0847C-0.000976562 28.5195 6.43742 35.7389 15.5612 38.7143L15.2611 45.4096C15.1755 47.3152 16.2079 48.5061 17.506 49.0089C18.8041 49.5116 20.8472 49.2207 22.3757 47.6663L30.2058 39.7038C30.2936 39.6884 30.3805 39.6711 30.4679 39.6553C33.5506 44.4437 39.1775 47.9594 45.8721 48.9912L45.8725 48.9907ZM12.7627 12.8789H33.8322C34.6152 12.8789 35.2556 13.5209 35.2556 14.3058C35.2556 15.0907 34.6152 15.7327 33.8322 15.7327H12.7627C11.9796 15.7327 11.3392 15.0907 11.3392 14.3058C11.3392 13.5209 11.9796 12.8789 12.7627 12.8789ZM12.7627 19.4027H23.6873C24.4703 19.4027 25.1108 20.0447 25.1108 20.8296C25.1108 21.6145 24.4703 22.2565 23.6873 22.2565H12.7627C11.9796 22.2565 11.3392 21.6145 11.3392 20.8296C11.3392 20.0447 11.9796 19.4027 12.7627 19.4027ZM42.2476 27.7273C43.6724 27.7273 44.8279 28.8852 44.8279 30.3139C44.8279 31.7422 43.6728 32.9005 42.2476 32.9005C40.8227 32.9005 39.6672 31.7426 39.6672 30.3139C39.6672 28.8856 40.8223 27.7273 42.2476 27.7273ZM49.2205 27.7273C50.6453 27.7273 51.8008 28.8852 51.8008 30.3139C51.8008 31.7422 50.6458 32.9005 49.2205 32.9005C47.7957 32.9005 46.6401 31.7426 46.6401 30.3139C46.6401 28.8856 47.7952 27.7273 49.2205 27.7273ZM56.1006 27.7273C57.5254 27.7273 58.681 28.8852 58.681 30.3139C58.681 31.7422 57.5259 32.9005 56.1006 32.9005C54.6758 32.9005 53.5203 31.7426 53.5203 30.3139C53.5203 28.8856 54.6754 27.7273 56.1006 27.7273Z" fill="#6959B6"/>
</svg>
