<svg width="54" height="62" viewBox="0 0 54 62" fill="none" xmlns="http://www.w3.org/2000/svg">
<g clip-path="url(#clip0)">
<path fill-rule="evenodd" clip-rule="evenodd" d="M23.516 16.6402C22.7797 14.1159 21.3777 10.069 19.5267 8.23916C19.455 8.16829 19.3812 8.10166 19.3058 8.04031C18.6762 7.52466 17.8881 7.28932 17.1156 7.32475C16.3547 7.36071 15.6163 7.66375 15.0731 8.22435C15.0113 8.28834 14.9522 8.35551 14.8962 8.42479C14.2891 9.1816 14.04 9.95586 14.0489 10.6682C14.0594 11.4753 14.399 12.23 14.9234 12.8038C16.2725 14.2815 20.7832 15.8141 23.5155 16.6402H23.516ZM25.3226 13.8028C26.5142 10.0315 28.5354 4.81158 31.2216 2.15509C31.3886 1.98955 31.5629 1.83354 31.7424 1.68651C33.2197 0.476467 35.0514 -0.0761977 36.8344 0.00842087C38.6331 0.0935683 40.39 0.821288 41.6967 2.17095C41.848 2.32697 41.9935 2.49197 42.1327 2.66597C43.4614 4.32291 44.0062 6.08403 43.9848 7.7489C43.9602 9.6708 43.1788 11.4377 41.9746 12.7562C39.8886 15.0404 34.0571 17.2119 29.9688 18.5208H54.0014V25.12H49.3181V23.068H4.68484V25.12H0.0014999V18.5208H20.869C17.9812 17.5419 14.4131 16.0992 13.0211 14.575C12.0906 13.5564 11.4872 12.1893 11.4678 10.6994C11.451 9.41113 11.8702 8.05194 12.8923 6.77737C13.0006 6.64199 13.1137 6.514 13.2314 6.39236C14.2451 5.34521 15.6048 4.78091 16.9953 4.7148H17.0005C18.3779 4.64975 19.7946 5.07707 20.9381 6.01369C21.0773 6.1274 21.2118 6.24851 21.3411 6.37649C23.0691 8.08579 24.4214 11.1971 25.3236 13.8028H25.3226ZM33.0345 4.01775C30.1891 6.83132 28.1115 13.275 27.1726 16.6561C30.8072 15.5893 37.991 13.2623 40.0707 10.9856C40.8688 10.1119 41.3864 8.95736 41.4021 7.71823C41.4162 6.62876 41.041 5.45309 40.1273 4.31392C40.0404 4.2055 39.9488 4.10184 39.853 4.00294C39.0167 3.13931 37.8858 2.67338 36.7224 2.61784C35.5428 2.56178 34.3376 2.92247 33.3726 3.7126C33.2569 3.80726 33.1439 3.90881 33.0345 4.01722V4.01775ZM54.0009 47.3033V62H0.000976562V47.3033H4.68431V57.4528H49.3176V47.3033H54.0009Z" fill="#6959B6"/>
<path d="M0.38623 27.1353H8.19074C9.75604 27.1353 10.9498 27.5393 11.7709 28.348C12.592 29.1566 13.0028 30.2831 13.0028 31.728C13.0028 32.5535 12.7804 33.3103 12.335 33.9984C11.8902 34.6864 11.2758 35.1852 10.4934 35.4951V35.5464C11.5527 35.8388 12.3853 36.3894 12.9913 37.1975C13.5973 38.0061 13.9009 38.9951 13.9009 40.1644C13.9009 41.7299 13.4136 42.9595 12.4392 43.8538C11.4647 44.7481 10.1946 45.1955 8.62878 45.1955H0.386754V27.1348L0.38623 27.1353ZM4.89844 34.2565H6.7746C7.41568 34.2565 7.91442 34.119 8.275 33.8434C8.63192 33.5684 8.81979 33.1385 8.83497 32.5535C8.83497 31.9686 8.65076 31.5217 8.28652 31.2118C7.91809 30.9024 7.41568 30.7474 6.7746 30.7474H4.89844V34.2565ZM4.89844 41.5839H6.97032C7.84534 41.5839 8.46707 41.4163 8.83497 41.081C9.2034 40.7457 9.38761 40.2766 9.38761 39.6747C9.38761 39.1072 9.20706 38.664 8.84649 38.3462C8.48591 38.0278 7.86052 37.8686 6.97032 37.8686H4.89844V41.5839ZM14.3839 45.1961L20.1165 27.1353H25.5959L31.3285 45.1961H26.4897L25.6649 42.0742H20.0475L19.2227 45.1961H14.3839ZM22.8562 31.444L21.0988 38.1008H24.6136L22.8562 31.444ZM32.6175 45.1961V27.1353H37.1297V40.8615H40.9977V27.1353H45.5099V40.8615H49.3778V27.1353H53.89V45.1961H32.6175Z" fill="#6959B6"/>
<path d="M11.3685 54.4857V49.3599H10.3574L10.8462 48.5254H12.2786V54.4857H11.3685Z" fill="#6959B6"/>
<path d="M16.7861 54.4857V48.5254H19.7435V49.3769H17.6962V50.9264H18.2693C18.6121 50.9264 18.9009 50.9677 19.137 51.0497C19.373 51.1322 19.5776 51.2496 19.7519 51.403C19.9204 51.5621 20.0554 51.7546 20.1564 51.9821C20.2574 52.2089 20.3082 52.4533 20.3082 52.7145C20.3024 53.0096 20.2365 53.2862 20.1104 53.5449C19.9842 53.8029 19.8058 54.0087 19.5755 54.162C19.4128 54.2758 19.2317 54.3577 19.0323 54.409C18.8329 54.4603 18.5843 54.4857 18.2865 54.4857H16.7867H16.7861ZM17.6962 51.7779V53.6342H18.2352C18.6283 53.6342 18.9203 53.5549 19.1113 53.3957C19.3023 53.2365 19.3976 53.0128 19.3976 52.723C19.3976 52.4337 19.2992 52.2052 19.1029 52.0376C18.9062 51.8699 18.6225 51.7837 18.252 51.7779H17.6957H17.6962Z" fill="#6959B6"/>
<path d="M24.1835 48.4058C25.0595 48.4058 25.7901 48.7036 26.3741 49.2996C26.9582 49.8956 27.2502 50.6334 27.2502 51.5134C27.2444 52.3935 26.9509 53.1286 26.37 53.7188C25.7885 54.309 25.0595 54.6041 24.1835 54.6041C23.3016 54.6041 22.57 54.309 21.9886 53.7188C21.4072 53.1286 21.1167 52.3935 21.1167 51.5134C21.1167 50.6334 21.4072 49.8972 21.9886 49.3038C22.57 48.7104 23.3016 48.4111 24.1835 48.4053V48.4058ZM24.1835 53.7532C24.8015 53.7532 25.3097 53.5448 25.7085 53.1275C26.1072 52.7102 26.3066 52.1724 26.3066 51.5139C26.3066 50.8555 26.1072 50.315 25.7085 49.8919C25.3097 49.4688 24.8015 49.2578 24.1835 49.2578C23.5602 49.2578 23.0504 49.4694 22.6543 49.8919C22.2581 50.315 22.0603 50.8555 22.0603 51.5139C22.0603 52.1724 22.2581 52.7102 22.6543 53.1275C23.0504 53.5448 23.5602 53.7532 24.1835 53.7532Z" fill="#6959B6"/>
<path d="M29.2387 48.5254V50.8582H31.7497V48.5254H32.6597V54.4857H31.7497V51.7097H29.2387V54.4857H28.3286V48.5254H29.2387Z" fill="#6959B6"/>
<path d="M33.3843 48.5254H34.4822L36.0104 51.5833L37.3779 48.5254H38.3214L35.6566 54.4857H34.7125L35.5075 52.7071L33.3843 48.5254Z" fill="#6959B6"/>
<path d="M43.4358 48.8484V49.9214C43.2113 49.7057 42.9654 49.5412 42.6985 49.4275C42.4316 49.3138 42.1463 49.2572 41.8433 49.2572C41.2085 49.2572 40.6972 49.4714 40.31 49.9003C39.9222 50.3287 39.7285 50.8723 39.7285 51.5308C39.7285 52.1723 39.9253 52.7028 40.3183 53.1232C40.7114 53.5431 41.22 53.7531 41.8433 53.7531C42.1244 53.7531 42.3996 53.6965 42.6692 53.5828C42.9387 53.4691 43.1946 53.2961 43.4358 53.0634V54.1534C43.1773 54.3179 42.912 54.4343 42.6399 54.5025C42.3672 54.5707 42.0935 54.6045 41.8182 54.6045C41.3912 54.6045 41.0039 54.5337 40.6554 54.3919C40.3073 54.2502 39.9981 54.0455 39.7285 53.779C39.425 53.495 39.1905 53.1676 39.0252 52.7953C38.8593 52.4235 38.7792 52.002 38.785 51.5308C38.785 51.0596 38.8666 50.6254 39.0294 50.2282C39.1921 49.831 39.4255 49.4873 39.7285 49.198C39.9928 48.9425 40.2958 48.7468 40.6386 48.6104C40.9814 48.4739 41.3886 48.4062 41.8601 48.4062C42.1746 48.4062 42.4598 48.4417 42.7152 48.5126C42.9706 48.5834 43.2108 48.6955 43.4358 48.8489V48.8484Z" fill="#6959B6"/>
</g>
<defs>
<clipPath id="clip0">
<rect width="54" height="62" fill="white"/>
</clipPath>
</defs>
</svg>
