<svg width="51" height="43" viewBox="0 0 51 43" fill="none" xmlns="http://www.w3.org/2000/svg">
<path fill-rule="evenodd" clip-rule="evenodd" d="M3.65873 0H47.3413C49.3535 0 51 1.65359 51 3.67481V31.1242C51 33.1452 49.3536 34.799 47.3413 34.799H37.9195V27.4932H47.3413C48.0571 27.4932 48.6429 26.9049 48.6429 26.1859V3.67467C48.6429 2.95565 48.0571 2.36728 47.3413 2.36728H3.65873C2.94286 2.36728 2.35706 2.95565 2.35706 3.67467V26.1859C2.35706 26.8616 2.87423 27.4216 3.53065 27.4868V34.7964C1.57715 34.7279 0 33.1022 0 31.1242V3.67481C0 1.65373 1.64635 0 3.65873 0ZM14.7328 11.7226H34.7705C35.7822 11.7226 36.6099 12.554 36.6099 13.5701V41.1523C36.6099 42.1685 35.7822 42.9999 34.7705 42.9999H19.6864C20.3165 42.2974 20.7011 41.3693 20.7011 40.3552V38.5788H34.2528V14.09H15.2504V17.6145H12.8933V13.5703C12.8933 12.5541 13.7211 11.7227 14.7328 11.7227V11.7226ZM24.7515 39.5133C25.2921 39.5133 25.7303 39.9534 25.7303 40.4963C25.7303 41.0392 25.2921 41.4794 24.7515 41.4794C24.211 41.4794 23.7728 41.0392 23.7728 40.4963C23.7728 39.9534 24.211 39.5133 24.7515 39.5133ZM7.47318 18.9296H16.7585C18.2067 18.9296 19.3916 20.1197 19.3916 21.5743V40.3552C19.3916 41.8097 18.2067 42.9999 16.7585 42.9999H7.47318C6.02496 42.9999 4.84005 41.8097 4.84005 40.3552V21.5743C4.84005 20.1197 6.02496 18.9296 7.47318 18.9296ZM7.47318 21.297H16.7585C16.9103 21.297 17.0345 21.4218 17.0345 21.5743V37.7917C17.0345 37.9443 16.9103 38.069 16.7585 38.069H7.47318C7.32132 38.069 7.19712 37.9443 7.19712 37.7917V21.5743C7.19712 21.4218 7.32132 21.297 7.47318 21.297ZM12.1158 39.5133C12.6563 39.5133 13.0946 39.9534 13.0946 40.4963C13.0946 41.0392 12.6563 41.4794 12.1158 41.4794C11.5753 41.4794 11.1371 41.0392 11.1371 40.4963C11.1371 39.9534 11.5753 39.5133 12.1158 39.5133ZM37.5811 36.9903H38.8717C38.8717 39.495 40.0765 41.0356 42.7435 41.0356V42.4885H37.5811V36.9903Z" fill="#6959B6"/>
</svg>
