<svg width="46" height="46" viewBox="0 0 46 46" fill="none" xmlns="http://www.w3.org/2000/svg">
<path fill-rule="evenodd" clip-rule="evenodd" d="M18.6875 31.8136C18.7413 31.8491 18.743 31.8477 18.78 31.9094C18.7966 31.9371 18.8156 31.9748 18.8326 32.0005C18.8793 32.0709 18.916 32.1098 18.9388 32.2001C19.2127 32.7088 19.2231 32.4695 19.2226 33.1198C19.2223 33.5184 19.2329 33.9379 19.2187 34.3341C19.1692 35.7227 19.0244 36.0889 18.0146 36.7757C17.8414 36.8935 17.4084 37.1195 17.2136 37.1851L16.3465 37.5381C16.0515 37.6527 15.7565 37.7721 15.4598 37.8819C13.9036 38.4573 11.9168 39.2775 10.6365 40.3634C10.2967 40.6515 9.70164 41.279 9.5241 41.679C9.50344 41.7725 9.43496 41.8674 9.39052 41.9544C9.3122 42.1084 9.32133 42.1636 9.23628 42.2314C9.22883 42.2681 8.88647 43.0737 8.84707 43.5297C8.79181 44.1673 8.65271 45.0221 8.85788 45.6369C8.91266 45.8013 9.04287 45.8712 9.07579 45.9985H36.8556C36.8868 45.9026 37.1143 45.6989 37.1559 45.5365C37.2321 45.2384 37.1783 44.336 37.1646 44.003C37.1571 43.8168 37.0456 43.182 36.9937 42.9841C36.9815 42.937 36.9649 42.9233 36.9454 42.8534C36.9308 42.8008 36.9137 42.7448 36.8974 42.691C36.8381 42.4952 36.7403 42.3195 36.6656 42.1254C36.6077 41.9748 36.4818 41.766 36.3941 41.6134C36.3148 41.4753 36.1711 41.2922 36.069 41.1555C35.9796 41.1168 35.8763 40.9852 35.8461 40.8872C35.7874 40.8338 35.3394 40.411 35.3307 40.3934C35.244 40.3636 35.1611 40.2911 35.1239 40.2096C35.0239 40.145 34.9206 40.0446 34.8322 39.9881C34.7246 39.9194 34.6066 39.8368 34.4966 39.7666C34.3834 39.6943 33.919 39.3644 33.8171 39.3565C33.7323 39.3351 33.6802 39.321 33.635 39.2494C33.452 39.1619 33.271 39.061 33.0877 38.9738C32.9001 38.8847 32.6884 38.8006 32.5075 38.7098C32.1464 38.5288 30.4065 37.8417 30.1031 37.7399C29.7067 37.6068 29.2874 37.4066 28.8941 37.2449C28.158 36.9425 27.3414 36.5441 26.9616 35.8034C26.6459 35.1879 26.7078 33.4052 26.7225 32.665C26.747 32.5745 26.8145 32.4426 26.9005 32.4099C26.9202 32.3424 27.4077 31.5539 27.4846 31.4335C27.6809 31.1262 27.8815 30.7276 28.022 30.3913L28.3046 29.4954C28.3286 29.3947 28.348 29.2177 28.3701 29.1461L28.4641 28.4707C28.465 28.2555 28.4446 27.9311 28.5393 27.7372C28.6947 27.4184 29.2877 27.0965 29.5865 26.4178C29.6843 26.1955 29.6918 26.0012 29.761 25.7893C29.815 25.6235 29.8494 25.1697 29.8621 25.1115C29.9176 24.8612 29.8945 24.5919 29.8931 24.336C29.8876 23.355 29.2211 23.5722 29.1233 23.4982C29.0364 23.3613 29.0964 21.8938 29.0484 21.5721C29.0222 21.397 29.0304 21.2764 29.0222 21.1048C29.0174 21.0039 28.9924 20.9953 28.9826 20.9014C28.9741 20.8204 28.9818 20.7329 28.9763 20.6532C28.9751 20.6359 28.8987 20.2601 28.8951 20.251C28.8516 20.1325 28.8458 19.9528 28.8004 19.8306C28.7536 19.7044 28.7377 19.579 28.6861 19.4526C28.5463 19.1112 28.4497 18.7259 28.2111 18.4239C28.0432 18.2113 28.0499 18.1524 27.7844 17.8427C27.6196 17.6503 27.492 17.5088 27.3121 17.3267C27.2386 17.2954 27.0444 17.1489 27.0154 17.0703C26.5024 16.6403 25.2752 16.0226 24.5785 15.9512C24.3073 15.9233 23.7208 15.8465 23.4724 15.8465C23.0738 15.8465 22.6752 15.8455 22.2767 15.8457C22.0864 15.846 21.9225 15.8859 21.7185 15.8892C21.6265 15.8907 21.337 15.9632 21.2395 15.9918C20.7117 16.147 19.957 16.3553 19.5061 16.6688C19.0426 16.9913 18.566 17.3026 18.2082 17.7562C17.8553 18.2036 17.5197 18.7473 17.332 19.2876C17.2218 19.6052 17.118 19.8651 17.0533 20.2025C17.0099 20.429 16.9181 21.0467 16.9176 21.2504C16.9169 21.625 16.8727 22.018 16.8691 22.4022C16.8674 22.5874 16.8676 23.4262 16.7939 23.541C16.5664 23.6157 16.4465 23.4559 16.2324 23.7008C16.0126 23.9525 16.0198 24.6661 16.0525 24.9722C16.0659 25.0985 16.0885 25.1497 16.0959 25.3037C16.0998 25.3847 16.1423 25.4954 16.1572 25.6009C16.2004 25.907 16.3552 26.4413 16.5185 26.6998C16.7093 27.0016 16.9464 27.2337 17.1939 27.4871C17.5944 27.8972 17.4647 28.0959 17.5024 28.6355C17.5641 29.5185 17.8029 30.1222 18.1611 30.904C18.2993 31.2057 18.5395 31.514 18.6866 31.8141L18.6875 31.8136Z" fill="#6959B6"/>
<path fill-rule="evenodd" clip-rule="evenodd" d="M17.5768 0.648679C17.5348 0.683275 17.5749 0.662614 17.5136 0.685918L17.1499 0.770967C16.3787 0.873555 14.1763 1.75936 13.4678 2.05343C13.1929 2.16755 12.0818 2.73142 11.8271 2.89671C11.5837 3.05456 11.2736 3.18766 11.0179 3.34406C10.7095 3.5329 9.75998 4.14074 9.51805 4.33366C9.29918 4.50832 9.02145 4.68587 8.81363 4.86365C8.58683 5.05778 8.36123 5.23941 8.1342 5.43833C7.91725 5.62837 7.69862 5.83907 7.48095 6.01998C7.28491 6.18287 6.41496 7.04754 6.22636 7.25439C6.02671 7.47326 5.83331 7.69742 5.62549 7.9086L5.06474 8.56449C5.03015 8.64257 4.96264 8.7478 4.88479 8.79032C4.74617 8.99886 4.57607 9.19875 4.42832 9.40681C3.92451 10.116 3.59056 10.6191 3.13648 11.3855C2.51327 12.4373 1.4737 14.578 1.09242 15.8583C1.00834 16.1406 0.905508 16.4051 0.834874 16.6948C0.769285 16.9644 0.683035 17.2695 0.608077 17.5393L0.31521 18.8876C0.239771 19.3506 0.136703 19.8563 0.110035 20.3176C0.0999446 20.4901 0.0595824 20.6119 0.0576604 20.7976C0.0562189 20.9391 0.0759195 21.1517 0 21.2687V24.7024C0.0790428 24.818 0.0511736 25.059 0.0502126 25.2029L0.232083 26.611C0.259952 26.7604 0.292146 26.9255 0.308243 27.0756C0.324099 27.2239 0.378396 27.3632 0.403382 27.5119C0.455036 27.8204 0.532157 28.0945 0.597986 28.3953C0.722436 28.9638 0.91704 29.5041 1.06912 30.0583C1.13014 30.2803 1.25628 30.6347 1.34757 30.8457C1.45592 31.0965 1.53473 31.3646 1.64044 31.6224C1.74471 31.8763 1.84489 32.1329 1.95204 32.3869C2.05799 32.6374 2.18533 32.8635 2.29825 33.105C2.76241 34.0967 3.25757 34.916 3.85628 35.8261C4.05641 36.1302 4.5052 36.8303 4.74281 37.0598C4.81464 37.1006 4.84251 37.1414 4.86461 37.2236C5.13586 37.5662 5.54212 38.0707 6.02743 38.12C6.34384 38.1522 6.66386 38.1176 6.94976 38.0073C7.258 37.8881 7.55543 37.4684 7.65754 37.1623C7.88554 36.4781 7.45717 35.8676 7.04177 35.3362C6.91036 35.168 6.73834 34.8867 6.60283 34.7461C6.53724 34.7053 6.54685 34.7228 6.53821 34.646C5.2298 32.7299 4.25485 30.7964 3.62251 28.5541C3.29409 27.3894 2.96663 25.9556 2.91353 24.7512C2.90536 24.5657 2.91858 24.3793 2.91209 24.1921C2.90584 24.0131 2.87893 23.8378 2.87245 23.6593C2.84506 22.9034 2.87797 21.6916 2.96254 20.9312C2.98296 20.7464 2.97792 20.59 3.01588 20.4038C3.08291 20.0754 3.08963 19.7588 3.15763 19.4265C3.22057 19.1187 3.28904 18.8076 3.35848 18.5013C3.75393 16.7542 4.3584 15.138 5.20169 13.5533C5.68964 12.6365 6.32678 11.6128 6.98075 10.807C7.6191 10.0204 8.35499 9.09785 9.12283 8.44028C9.16391 8.3461 9.26458 8.28267 9.34386 8.21132C9.42146 8.1414 9.48753 8.05491 9.58676 8.02008C9.66868 7.91869 10.321 7.34953 10.4031 7.31398C10.4339 7.24575 10.4851 7.1989 10.5675 7.19097C10.6177 7.12106 10.9103 6.89906 11.0018 6.84525C11.0878 6.79479 11.713 6.29964 11.7951 6.27921C11.8314 6.21723 11.9208 6.16581 11.989 6.12545C12.083 6.06995 12.108 6.01998 12.2199 6.00509C14.0225 4.85092 16.1946 3.91202 18.2985 3.4392C18.9076 3.30226 19.8676 3.09276 20.4971 3.02573C21.6193 2.90656 22.7403 2.90008 23.8661 2.91569L25.088 2.99185C25.225 3.00939 25.3537 2.99834 25.4904 3.02116C25.7384 3.06249 26.0027 3.10573 26.2506 3.14153C27.9019 3.37914 30.0778 4.09557 31.5556 4.79806C32.3273 5.16493 33.0528 5.58393 33.7859 6.02022C33.856 6.03824 33.843 6.0207 33.8829 6.08821C33.9463 6.12185 34.0922 6.2117 34.14 6.24534C34.1931 6.28282 34.3461 6.41568 34.3862 6.42985C34.4984 6.45292 34.6073 6.55839 34.7036 6.62614C34.7966 6.69149 34.9189 6.75179 34.9732 6.84837C35.0366 6.87191 35.2269 7.03553 35.2906 7.08838C35.3465 7.13475 35.4037 7.16694 35.4573 7.20995C35.5082 7.25079 35.5481 7.32623 35.6228 7.3356C35.7148 7.35098 35.8174 7.46918 35.8957 7.53237C35.989 7.60756 36.0541 7.6609 36.1406 7.74018C36.2554 7.84541 36.5735 8.05155 36.6086 8.1933C36.6189 8.23174 36.6816 8.27426 36.722 8.31054C36.8027 8.34562 36.8784 8.41937 36.9058 8.49553L37.0468 8.62119C37.1354 8.66395 37.3036 8.83092 37.3392 8.92558C37.6736 9.25449 37.8117 9.43852 38.0806 9.72947C38.472 10.1528 38.6831 10.4601 39.0363 10.893C39.0594 10.9214 39.2516 11.1912 39.2521 11.1933C39.327 11.2356 39.4971 11.4778 39.5163 11.5609C40.4704 12.8789 41.4064 14.6724 41.9265 16.2124C42.655 18.3699 42.949 19.8051 43.0733 22.1673C43.2751 26.0053 42.2247 30.1751 40.1965 33.4476C39.9678 33.8166 39.7431 34.1604 39.4983 34.5191C39.2583 34.8706 38.9959 35.1964 38.7579 35.5481C38.4876 35.9476 38.2 36.265 38.2199 36.7791C38.2372 37.2239 38.4969 37.6652 38.8657 37.9107C39.2451 38.1632 39.8964 38.2125 40.301 37.9958C40.9562 37.645 42.2386 35.6221 42.6257 34.9914C44.3005 32.2627 45.4549 28.9851 45.8345 25.8025C45.8996 25.2562 45.9289 24.7142 46 24.1681V21.8867C45.9152 21.7723 45.9628 21.3305 45.927 21.1599C45.8962 21.0134 45.8986 20.9449 45.895 20.7971L45.4688 18.0763C45.3343 17.5516 45.2262 17.0475 45.0633 16.5307C44.9744 16.2485 44.8127 15.6027 44.6781 15.3723C44.6176 15.2687 44.5203 14.9287 44.4746 14.7959C44.275 14.2145 43.9725 13.6614 43.7683 13.1309C43.6448 12.8105 43.3695 12.4443 43.2426 12.1166C43.1636 12.0688 43.1595 12.0155 43.1081 11.9254C43.0704 11.8593 43.0315 11.7915 42.9933 11.7276C42.9233 11.6111 42.8097 11.455 42.7811 11.3259C42.7782 11.2515 42.199 10.3565 42.113 10.2446C42.0431 10.2035 41.9695 10.0925 41.952 10.0185C41.6603 9.51901 40.8449 8.54166 40.4502 8.05972C39.9363 7.43242 39.3472 6.85317 38.7675 6.28618C37.6762 5.21898 36.1425 4.06385 34.8221 3.29721C34.4739 3.09516 34.0703 2.82608 33.7109 2.66247C33.3402 2.49357 32.919 2.27782 32.5546 2.08995C32.3713 1.99553 32.1433 1.91841 31.9472 1.83096C31.3312 1.55587 30.7186 1.32811 30.0761 1.11645C28.9493 0.74526 27.0381 0.279413 25.8266 0.162891C25.5959 0.140787 25.2483 0.124691 25.0347 0.0869711C24.5739 0.00528553 24.5256 0.107392 24.2505 0H21.5977C21.5013 0.0759195 21.1808 0.0502126 21.0453 0.0511736C20.8711 0.0526151 20.7243 0.0987434 20.5312 0.106912L18.4881 0.412992C18.4186 0.434135 18.4866 0.43894 18.3718 0.4584C18.0888 0.50621 17.8726 0.59246 17.577 0.6494L17.5768 0.648679Z" fill="#6959B6"/>
<path fill-rule="evenodd" clip-rule="evenodd" d="M13.6319 9.35336C13.5906 9.43168 13.3201 9.61163 13.2341 9.63397C12.8115 9.90378 11.6756 10.8931 11.2964 11.2754C11.148 11.4251 11.0141 11.5803 10.8688 11.7328L10.2264 12.4476C10.1528 12.5304 10.1082 12.61 10.0257 12.7001C9.89048 12.8478 9.77516 13.0542 9.63942 13.1981C9.61203 13.2928 9.41983 13.57 9.33887 13.6157C9.22547 13.8076 9.09909 13.9938 8.9732 14.1781C8.60634 14.7158 8.24764 15.4687 7.95189 16.0364C7.5192 16.8672 7.18885 17.9676 6.9414 18.8719C6.32611 21.1192 6.30473 23.5662 6.64493 25.8596C7.05648 28.6331 8.56141 31.5396 10.3217 33.7211C10.9723 34.5274 11.8514 35.1429 12.8127 34.3508C12.836 34.2513 12.9424 34.1733 13.0039 34.0918C13.0311 34.0558 13.0628 34.0099 13.0894 33.9712C13.1353 33.9047 13.1101 33.8653 13.1875 33.8403C13.4493 33.2769 13.3335 32.8925 13.002 32.3973C12.7706 32.0518 12.4155 31.659 12.1512 31.3145C11.6604 30.675 11.3872 30.2403 11.0137 29.5513C10.8935 29.3298 10.7739 29.1446 10.6703 28.9103C9.99884 27.3912 9.54812 26.028 9.38812 24.3768C9.32517 23.7278 9.34367 23.1121 9.34247 22.4629C9.34127 21.8671 9.45803 21.3222 9.53972 20.7377C9.73528 19.3423 10.3777 17.6329 11.0547 16.4043C12.0023 14.685 13.0998 13.4424 14.6258 12.2181C14.6732 12.1364 14.7659 12.0795 14.8519 12.0528C15.0355 11.895 15.6508 11.5005 15.9064 11.3407C16.038 11.2586 16.1786 11.2035 16.3074 11.1228C16.7357 10.8542 17.4642 10.5253 17.9425 10.3497L19.2802 9.89681C19.9061 9.68707 20.6131 9.54604 21.2707 9.48406C21.3644 9.47517 21.4408 9.44994 21.5386 9.44514C21.6407 9.44009 21.7301 9.4437 21.8336 9.4312C22.2308 9.38267 23.1315 9.393 23.5949 9.39973C23.8063 9.40285 23.9771 9.43625 24.1689 9.44297C24.2664 9.44634 24.3666 9.44033 24.4634 9.44418C24.5725 9.4485 24.615 9.47829 24.7102 9.49415C24.8803 9.5225 25.0583 9.51913 25.2517 9.55469C25.5876 9.61596 25.9059 9.69812 26.2372 9.7774C26.6805 9.88336 27.6117 10.2036 28.059 10.3694C28.3207 10.4664 28.6327 10.6147 28.897 10.7274C29.1507 10.8355 29.4198 11.0522 29.6728 11.1413C29.759 11.1665 29.9604 11.2557 29.9844 11.3431C30.1442 11.3796 31.3839 12.259 31.5958 12.4471C31.7459 12.5807 31.9256 12.7195 32.0715 12.8747C32.1923 12.9245 32.2485 13.0275 32.3502 13.0739L32.3651 13.144C32.4431 13.1565 32.7833 13.5614 32.8703 13.6253C32.9479 13.6486 33.0731 13.7711 33.0832 13.8581C33.1728 13.9893 33.3602 14.1865 33.4724 14.3141C33.7244 14.6002 34.0125 14.9942 34.2253 15.3111C35.477 17.1755 36.075 18.7395 36.4597 20.9606C36.5848 21.6835 36.5116 21.7455 36.5529 22.1677C36.6067 22.7183 36.6098 23.323 36.5543 23.8746C36.5389 24.0262 36.5529 24.1668 36.5423 24.3155C36.4248 25.9555 35.7252 28.3085 34.8778 29.6729C34.768 29.8497 34.6683 30.0397 34.5605 30.2211C34.4519 30.4035 34.3219 30.5705 34.2073 30.7504C33.8484 31.3148 32.8996 32.3728 32.7331 32.7716C32.6358 33.0047 32.5719 33.2543 32.6363 33.5042C32.7081 33.7829 32.7814 33.8621 32.9006 34.1C32.9902 34.1327 32.9825 34.1661 33.049 34.2405C33.1041 34.3023 33.1509 34.3234 33.1819 34.3926C33.3897 34.5195 33.4395 34.5968 33.7318 34.6838C33.931 34.7429 34.3503 34.7059 34.5384 34.6357C35.0686 34.4385 35.5397 33.8201 35.8992 33.3687C36.0942 33.1236 36.4974 32.5927 36.643 32.3423C36.7395 32.1761 36.9101 31.9786 36.9913 31.8241C37.0089 31.7436 37.1638 31.4779 37.2347 31.4471C37.2885 31.2951 37.3817 31.1653 37.4706 31.032C37.5627 30.8938 38.0902 29.7944 38.1652 29.6277C38.8824 28.0332 39.0642 26.9194 39.3823 25.2522L39.445 24.6057C39.4585 24.3955 39.4936 24.169 39.5015 23.9686C39.5512 22.7411 39.4926 21.2672 39.2917 20.0712C39.0702 18.7518 38.5032 17.0561 37.9079 15.8673C37.7575 15.5667 37.6013 15.2326 37.4288 14.9462C37.2616 14.6684 37.0704 14.3597 36.9152 14.0789C36.8378 14.0279 36.7235 13.8622 36.7042 13.7766C36.6338 13.7492 36.6293 13.7086 36.5973 13.6373C36.5404 13.4852 36.217 13.1256 36.1572 13.0319C35.934 12.6825 35.6563 12.4259 35.4698 12.1734C35.3927 12.0689 35.0893 11.7773 35.0597 11.7179C34.9946 11.6886 34.8168 11.5125 34.7976 11.445C34.7262 11.4299 34.6136 11.3088 34.597 11.2333C34.5689 11.2218 34.0778 10.7615 34.0322 10.7113L33.7326 10.4549C33.4407 10.1918 33.0916 9.93765 32.8078 9.69139L32.1539 9.23708C32.0434 9.2157 32.0703 9.21353 31.9903 9.15539C31.9177 9.10278 31.8874 9.12608 31.866 9.04872C31.8024 8.99154 31.7786 8.97665 31.6976 8.93436C31.6193 8.89376 31.5626 8.85316 31.4872 8.81255C31.3925 8.76138 31.1784 8.61194 31.0908 8.58792C30.961 8.5526 30.7849 8.42311 30.6482 8.3592C30.5725 8.32364 30.4964 8.28977 30.4265 8.24724C30.3606 8.20712 30.254 8.1855 30.2292 8.11342L30.1377 8.08267L30.0743 8.07955C29.9933 8.01011 29.7441 7.92891 29.6375 7.86548C29.5625 7.8208 29.4914 7.80686 29.4061 7.76722C29.3636 7.74752 29.3343 7.73695 29.2906 7.71917C29.2867 7.71773 29.2375 7.69611 29.2367 7.69538C29.1697 7.65382 29.2156 7.68529 29.1791 7.64253C28.8908 7.54475 28.5909 7.42847 28.301 7.32468C27.7818 7.13896 26.3886 6.7387 25.86 6.69113C25.7613 6.68224 25.6801 6.65774 25.5902 6.64837C25.4816 6.63732 25.4066 6.65678 25.2942 6.62819C24.9905 6.55131 24.5422 6.53353 24.2176 6.5023C23.8349 6.46554 23.415 6.48308 23.0202 6.46049C22.6502 6.43935 21.6772 6.49869 21.2455 6.53449C20.8789 6.565 20.5519 6.62434 20.1853 6.68441C19.6298 6.77546 19.2091 6.89799 18.6875 7.03493C18.5177 7.07938 18.3565 7.10605 18.1859 7.15914C18.0288 7.20815 17.8745 7.26413 17.7164 7.30882C17.4675 7.37921 16.2408 7.87629 15.9708 8.00939C15.7014 8.14225 15.4177 8.28256 15.1537 8.42527C14.621 8.71333 14.1449 9.05377 13.6326 9.35216L13.6319 9.35336Z" fill="#6959B6"/>
<path fill-rule="evenodd" clip-rule="evenodd" d="M36.6073 8.19266C36.5723 8.05067 36.2542 7.84477 36.1393 7.73954C36.0528 7.66026 35.9877 7.60669 35.8945 7.53173C35.8162 7.46854 35.7136 7.35034 35.6216 7.33496C35.6845 7.44548 35.9981 7.66194 36.1095 7.76982C36.1761 7.8342 36.555 8.17296 36.6071 8.1929L36.6073 8.19266Z" fill="#3A3A3A"/>
<path fill-rule="evenodd" clip-rule="evenodd" d="M30.1376 8.08297C30.0698 7.98879 29.3205 7.66541 29.1787 7.64307C29.2152 7.68583 29.1693 7.65436 29.2364 7.69592C29.2373 7.6964 29.2866 7.71803 29.2902 7.71971C29.3342 7.73749 29.3632 7.74806 29.4057 7.76776C29.491 7.8074 29.5622 7.82133 29.6371 7.86602C29.7438 7.92945 29.9929 8.01041 30.0739 8.08008L30.1373 8.08321L30.1376 8.08297Z" fill="#7E7E7E"/>
<path fill-rule="evenodd" clip-rule="evenodd" d="M31.0905 8.58827C31.0636 8.51547 30.7746 8.37805 30.6879 8.33312C30.561 8.26729 30.3583 8.14284 30.229 8.11377C30.2535 8.18584 30.3604 8.20723 30.4262 8.24759C30.4959 8.29011 30.5721 8.32399 30.648 8.35955C30.7847 8.42369 30.9608 8.55319 31.0905 8.58827Z" fill="#7E7E7E"/>
<path fill-rule="evenodd" clip-rule="evenodd" d="M43.2418 12.1156C43.212 11.9904 43.1133 11.8475 43.0402 11.725C42.9912 11.6428 42.8632 11.4235 42.8384 11.3442L42.7803 11.3247C42.8091 11.454 42.9225 11.6101 42.9924 11.7264C43.0306 11.7901 43.0695 11.8581 43.1073 11.9241C43.1587 12.0142 43.1628 12.0678 43.2418 12.1154V12.1156Z" fill="#6E6E6E"/>
<path fill-rule="evenodd" clip-rule="evenodd" d="M12.813 34.3506C12.9451 34.3019 13.1724 33.984 13.1878 33.8403C13.1104 33.8653 13.1356 33.9047 13.0898 33.9713C13.0631 34.01 13.0314 34.0558 13.0042 34.0919C12.943 34.1733 12.8365 34.2514 12.813 34.3509V34.3506Z" fill="#555555"/>
<path fill-rule="evenodd" clip-rule="evenodd" d="M34.9722 6.84772C34.9179 6.75114 34.7954 6.69107 34.7026 6.62548C34.6063 6.55773 34.4975 6.45226 34.3853 6.4292C34.4297 6.508 34.582 6.58849 34.6601 6.64927C34.7158 6.69251 34.7538 6.70837 34.8052 6.74729C34.8742 6.79943 34.8845 6.82441 34.9722 6.84772Z" fill="#7E7E7E"/>
<path fill-rule="evenodd" clip-rule="evenodd" d="M9.12207 8.43973C9.21841 8.40634 9.5353 8.11996 9.586 8.01953C9.48677 8.05461 9.4207 8.1411 9.3431 8.21077C9.26382 8.28213 9.16315 8.34555 9.12207 8.43973Z" fill="#ADADAD"/>
<path fill-rule="evenodd" clip-rule="evenodd" d="M9.23633 42.2311C9.32138 42.1633 9.31225 42.108 9.39057 41.954C9.43478 41.8671 9.50349 41.7722 9.52415 41.6787C9.42252 41.7371 9.25002 42.1025 9.23633 42.2311Z" fill="#7E7E7E"/>
<path fill-rule="evenodd" clip-rule="evenodd" d="M9.33887 13.6153C9.41983 13.5697 9.61203 13.2924 9.63942 13.1978C9.57431 13.2126 9.58729 13.2266 9.54596 13.2903C9.5193 13.3313 9.49599 13.3482 9.47028 13.3815C9.43353 13.4289 9.348 13.5584 9.33887 13.6153Z" fill="#9B9B9B"/>
<path fill-rule="evenodd" clip-rule="evenodd" d="M11.7939 6.27852C11.8862 6.2557 11.9352 6.20693 12.0195 6.15575C12.0666 6.12716 12.0726 6.11491 12.1166 6.09016C12.1973 6.045 12.1798 6.07863 12.219 6.00439C12.1068 6.01929 12.0818 6.06902 11.9881 6.12476C11.9198 6.16512 11.8305 6.21654 11.7942 6.27852H11.7939Z" fill="#9B9B9B"/>
<path fill-rule="evenodd" clip-rule="evenodd" d="M36.9917 31.8242C37.0789 31.7846 37.2072 31.545 37.2351 31.4473C37.1642 31.478 37.0092 31.7437 36.9917 31.8242Z" fill="#9B9B9B"/>
<path fill-rule="evenodd" clip-rule="evenodd" d="M13.2344 9.63364C13.3201 9.6113 13.5909 9.43135 13.6322 9.35303C13.5445 9.37897 13.2887 9.54883 13.2344 9.63364Z" fill="#7E7E7E"/>
<path fill-rule="evenodd" clip-rule="evenodd" d="M39.5153 11.5605C39.496 11.4773 39.3257 11.2352 39.251 11.1929C39.2724 11.2784 39.4331 11.5275 39.5153 11.5605Z" fill="#9B9B9B"/>
<path fill-rule="evenodd" clip-rule="evenodd" d="M18.9388 32.2005C18.916 32.1102 18.8792 32.0713 18.8326 32.0009C18.8156 31.9752 18.7963 31.9375 18.78 31.9098C18.743 31.8481 18.7413 31.8495 18.6875 31.814C18.7007 31.8839 18.7531 31.9548 18.7942 32.0172C18.8535 32.1076 18.8487 32.139 18.9388 32.2005Z" fill="#7E7E7E"/>
<path fill-rule="evenodd" clip-rule="evenodd" d="M37.3383 8.925C37.3027 8.83034 37.1348 8.66337 37.0459 8.62061C37.0591 8.70205 37.2585 8.88848 37.3383 8.925Z" fill="#7E7E7E"/>
<path fill-rule="evenodd" clip-rule="evenodd" d="M33.1822 34.3927C33.1512 34.3235 33.1044 34.3024 33.0494 34.2406C32.9826 34.1662 32.9905 34.1325 32.9009 34.1001C32.9511 34.2238 33.0532 34.3555 33.1824 34.3927H33.1822Z" fill="#7E7E7E"/>
<path fill-rule="evenodd" clip-rule="evenodd" d="M17.1494 0.770138L17.5132 0.685089C17.5744 0.661785 17.5343 0.682446 17.5763 0.64785C17.475 0.642805 17.1994 0.687011 17.1494 0.770138Z" fill="#7E7E7E"/>
<path fill-rule="evenodd" clip-rule="evenodd" d="M32.3654 13.1438L32.3505 13.0737C32.2488 13.0276 32.1926 12.9242 32.0718 12.8745C32.128 12.9901 32.2794 13.0826 32.3654 13.1438Z" fill="#9B9B9B"/>
<path fill-rule="evenodd" clip-rule="evenodd" d="M27.3128 17.3262C27.2657 17.2267 27.1233 17.114 27.0161 17.0698C27.0452 17.1484 27.2393 17.2949 27.3128 17.3262Z" fill="#7E7E7E"/>
<path fill-rule="evenodd" clip-rule="evenodd" d="M35.0602 11.7177C35.0179 11.5921 34.9151 11.5625 34.8546 11.4518L34.7979 11.4448C34.8171 11.5121 34.9949 11.6884 35.06 11.7177H35.0602Z" fill="#9B9B9B"/>
<path fill-rule="evenodd" clip-rule="evenodd" d="M36.0691 41.1556C36.0285 41.0499 35.938 40.9343 35.8462 40.8872C35.8765 40.985 35.9798 41.1169 36.0691 41.1556Z" fill="#7E7E7E"/>
<path fill-rule="evenodd" clip-rule="evenodd" d="M36.9155 14.0786C36.9122 14.0094 36.7663 13.799 36.7046 13.7764C36.7238 13.8617 36.8384 14.0274 36.9155 14.0786Z" fill="#9B9B9B"/>
<path fill-rule="evenodd" clip-rule="evenodd" d="M29.9845 11.3434C29.9604 11.2557 29.7591 11.1666 29.6729 11.1416C29.7005 11.211 29.9105 11.3098 29.9845 11.3434Z" fill="#7E7E7E"/>
<path fill-rule="evenodd" clip-rule="evenodd" d="M32.154 9.23719C32.1072 9.16199 32.1646 9.22205 32.0913 9.17496C32.0704 9.16151 32.0529 9.1543 32.0281 9.13508C31.9587 9.08102 31.9599 9.07069 31.8662 9.04883C31.8876 9.12643 31.9179 9.10289 31.9904 9.1555C32.0707 9.21364 32.0435 9.21556 32.154 9.23719Z" fill="#7E7E7E"/>
<path fill-rule="evenodd" clip-rule="evenodd" d="M33.0835 13.8583C33.0734 13.7713 32.9482 13.6488 32.8706 13.6255C32.9141 13.7079 32.9991 13.8134 33.0835 13.8583Z" fill="#555555"/>
<path fill-rule="evenodd" clip-rule="evenodd" d="M26.7227 32.6653C26.8034 32.624 26.8683 32.5015 26.9007 32.4102C26.8147 32.4428 26.7474 32.5747 26.7227 32.6653Z" fill="#9B9B9B"/>
<path fill-rule="evenodd" clip-rule="evenodd" d="M34.7978 11.4451C34.7822 11.3643 34.6777 11.2704 34.5972 11.2334C34.6137 11.3088 34.7264 11.4299 34.7978 11.4451Z" fill="#7E7E7E"/>
<path fill-rule="evenodd" clip-rule="evenodd" d="M35.3309 40.3937C35.3179 40.3183 35.1968 40.241 35.124 40.21C35.1613 40.2914 35.2441 40.364 35.3309 40.3937Z" fill="#9B9B9B"/>
<path fill-rule="evenodd" clip-rule="evenodd" d="M4.88379 8.7898C4.96163 8.74704 5.02914 8.64181 5.06374 8.56396C4.98277 8.59688 4.90541 8.7098 4.88379 8.7898Z" fill="#9B9B9B"/>
<path fill-rule="evenodd" clip-rule="evenodd" d="M14.6265 12.2185C14.7108 12.1947 14.8052 12.1354 14.8525 12.0532C14.7665 12.0799 14.6738 12.1371 14.6265 12.2185Z" fill="#7E7E7E"/>
<path fill-rule="evenodd" clip-rule="evenodd" d="M42.1121 10.2437C42.0896 10.1521 42.0331 10.0685 41.9512 10.0176C41.9687 10.0916 42.0422 10.2026 42.1121 10.2437Z" fill="#7E7E7E"/>
<path fill-rule="evenodd" clip-rule="evenodd" d="M36.9045 8.49505C36.8771 8.41913 36.8014 8.34514 36.7207 8.31006C36.7507 8.39054 36.8223 8.4631 36.9045 8.49505Z" fill="#7E7E7E"/>
<path fill-rule="evenodd" clip-rule="evenodd" d="M4.86351 37.2229C4.8414 37.1405 4.81353 37.0997 4.7417 37.0591C4.7626 37.1463 4.78422 37.1867 4.86351 37.2229Z" fill="#6E6E6E"/>
<path fill-rule="evenodd" clip-rule="evenodd" d="M10.4019 7.31295C10.4831 7.28989 10.5169 7.26106 10.5662 7.18994C10.4838 7.19787 10.4326 7.24472 10.4019 7.31295Z" fill="#9B9B9B"/>
<path fill-rule="evenodd" clip-rule="evenodd" d="M33.8174 39.3572L33.7912 39.3021L33.6353 39.25C33.6804 39.3216 33.7326 39.3358 33.8174 39.3572Z" fill="#7E7E7E"/>
<path fill-rule="evenodd" clip-rule="evenodd" d="M36.7046 13.777C36.6969 13.6978 36.6669 13.6596 36.5977 13.6377C36.6294 13.7091 36.6339 13.7497 36.7046 13.777Z" fill="#7E7E7E"/>
<path fill-rule="evenodd" clip-rule="evenodd" d="M6.60223 34.7452C6.59526 34.663 6.60631 34.6813 6.5376 34.645C6.54625 34.7221 6.53688 34.7044 6.60223 34.7452Z" fill="#7E7E7E"/>
<path fill-rule="evenodd" clip-rule="evenodd" d="M33.8817 6.08752C33.8419 6.02001 33.8548 6.03755 33.7847 6.01953C33.8116 6.09425 33.8075 6.07599 33.8817 6.08752Z" fill="#7E7E7E"/>
</svg>
