<svg width="44" height="40" viewBox="0 0 44 40" fill="none" xmlns="http://www.w3.org/2000/svg">
<path fill-rule="evenodd" clip-rule="evenodd" d="M22.0004 0.304688C33.836 0.304688 43.4333 9.0627 43.4333 19.8633C43.4333 30.6639 33.836 39.4219 22.0004 39.4219C10.1647 39.4219 0.567383 30.6639 0.567383 19.8633C0.567383 9.0627 10.1647 0.304688 22.0004 0.304688Z" fill="url(#paint0_radial)"/>
<path d="M31.782 23.2213C31.782 26.1313 29.2063 28.4817 26.0175 28.4817H18.8118C15.623 28.4817 13.0473 26.1313 13.0473 23.2213V16.6458C13.0473 13.7358 15.623 11.3854 18.8118 11.3854H26.0175C29.2063 11.3854 31.782 13.7358 31.782 16.6458V23.2213ZM26.8453 9.34277H17.9226C13.9672 9.34277 10.7783 12.2528 10.7783 15.8623V24.0048C10.7783 27.6143 13.9672 30.5244 17.9226 30.5244H26.8453C30.8008 30.5244 33.9896 27.6143 33.9896 24.0048V15.8623C33.9896 12.2528 30.8008 9.34277 26.8453 9.34277ZM22.7059 23.3332C20.6822 23.3332 19.0265 21.8223 19.0265 19.9755C19.0265 18.1288 20.6822 16.6178 22.7059 16.6178C24.7296 16.6178 26.3854 18.1288 26.3854 19.9755C26.3854 21.8223 24.7296 23.3332 22.7059 23.3332ZM22.7059 14.4073C19.3331 14.4073 16.6041 16.8976 16.6041 19.9755C16.6041 23.0534 19.3331 25.5437 22.7059 25.5437C26.0788 25.5437 28.8077 23.0534 28.8077 19.9755C28.8077 16.8976 26.0788 14.4073 22.7059 14.4073ZM29.9422 14.3234C29.9422 15.1068 29.237 15.7504 28.3784 15.7504C27.5199 15.7504 26.8147 15.1068 26.8147 14.3234C26.8147 13.5399 27.5199 12.8964 28.3784 12.8964C29.237 12.8964 29.9422 13.5399 29.9422 14.3234Z" fill="white"/>
<defs>
<radialGradient id="paint0_radial" cx="0" cy="0" r="1" gradientUnits="userSpaceOnUse" gradientTransform="translate(11.0379 34.9545) rotate(-48.5263) scale(34.8516 35.3322)">
<stop stop-color="#FFD879"/>
<stop offset="0.109804" stop-color="#FFD879"/>
<stop offset="0.321569" stop-color="#F29C69"/>
<stop offset="0.470588" stop-color="#E45F58"/>
<stop offset="0.764487" stop-color="#D22A9C"/>
<stop offset="1" stop-color="#7561D8"/>
</radialGradient>
</defs>
</svg>
