<svg width="44" height="40" viewBox="0 0 44 40" fill="none" xmlns="http://www.w3.org/2000/svg">
<path fill-rule="evenodd" clip-rule="evenodd" d="M21.7006 0.304688C33.5363 0.304688 43.1336 9.0627 43.1336 19.8633C43.1336 30.6639 33.5363 39.4219 21.7006 39.4219C9.86491 39.4219 0.267578 30.6639 0.267578 19.8633C0.267578 9.0627 9.86491 0.304688 21.7006 0.304688Z" fill="#EF7F1A"/>
<path fill-rule="evenodd" clip-rule="evenodd" d="M21.4862 12.8687C22.6514 12.8687 23.6019 13.7361 23.6019 14.7994C23.6019 15.8626 22.6514 16.7301 21.4862 16.7301C20.3211 16.7301 19.3705 15.8626 19.3705 14.7994C19.3705 13.7361 20.3211 12.8687 21.4862 12.8687ZM18.512 29.7971C17.7454 30.4966 16.5189 30.4687 15.7524 29.7691C14.9858 29.0696 15.0165 27.9504 15.783 27.2509L18.8799 24.4808C17.2242 24.089 16.243 23.4175 15.6297 23.0257C15.5684 22.9698 15.5071 22.9418 15.4457 22.9138C14.5565 22.3542 14.3112 21.263 14.9245 20.4515C15.5377 19.6401 16.7336 19.4162 17.6228 19.9758C17.7148 20.0318 17.8067 20.0878 17.9294 20.1717C18.4813 20.5355 19.5545 21.263 21.7009 21.2909C23.9086 21.3189 25.319 20.4235 25.7483 20.1437L25.9323 20.0318C26.8215 19.5002 28.048 19.724 28.6306 20.5634C29.2132 21.3749 28.9679 22.4941 28.048 23.0257C27.9867 23.0537 27.9867 23.0537 27.9867 23.0817C27.5267 23.3895 26.3616 24.117 24.5525 24.5367L27.7107 27.2788C28.4773 27.9504 28.5079 29.0696 27.772 29.7971C27.0361 30.4966 25.8096 30.5246 25.0124 29.8531L21.7315 26.971L18.5733 29.7971H18.512ZM21.4862 9.37109C24.7671 9.37109 27.4348 11.8054 27.4348 14.7994C27.4348 17.7933 24.7671 20.2277 21.4862 20.2277C18.2054 20.2277 15.5377 17.7933 15.5377 14.7994C15.5377 11.8054 18.2054 9.37109 21.4862 9.37109Z" fill="#FEFEFE"/>
</svg>
