<svg width="43" height="40" viewBox="0 0 43 40" fill="none" xmlns="http://www.w3.org/2000/svg">
<path fill-rule="evenodd" clip-rule="evenodd" d="M21.433 0.304688C33.2686 0.304688 42.8659 9.0627 42.8659 19.8633C42.8659 30.6639 33.2686 39.4219 21.433 39.4219C9.59731 39.4219 0 30.6639 0 19.8633C0 9.0627 9.59731 0.304688 21.433 0.304688Z" fill="url(#paint0_radial)"/>
<path fill-rule="evenodd" clip-rule="evenodd" d="M8.33907 14.2671H12.1412C12.1412 14.2671 12.6318 14.2671 12.9077 14.6029C13.2144 14.9666 14.0729 17.1771 15.1461 18.4922C16.1886 19.8073 16.5872 20.1431 16.8325 20.255C17.0778 20.339 17.2618 20.311 17.5071 19.7794C17.7524 19.2477 17.7524 17.2331 17.7524 17.2331L17.6604 15.8341C17.6604 15.8341 17.5684 15.2185 17.1085 14.9666C16.6179 14.7428 16.4646 14.6868 16.1886 14.6868C15.9126 14.6868 16.1579 14.2671 16.5259 14.0992C16.8938 13.9034 17.5991 13.7355 18.1203 13.7075C18.6416 13.6795 20.8799 13.6795 21.1866 13.7075C21.4932 13.7635 22.2597 13.8474 22.505 14.2671C22.7503 14.6868 22.6584 15.1905 22.689 15.6942C22.7197 16.1978 22.6277 18.9679 22.6584 19.2757C22.689 19.5835 22.7197 19.9193 23.0876 20.0872C23.4556 20.255 23.8542 19.9193 23.8542 19.9193C23.8542 19.9193 25.6939 17.6528 26.2765 16.6175C26.8591 15.5822 27.0737 14.9387 27.227 14.6868C27.3803 14.435 27.503 14.2391 28.0243 14.2112C28.5455 14.1832 32.3783 14.2391 32.6543 14.2391C32.9302 14.2391 33.2062 14.491 33.2368 14.7148C33.2675 14.9387 33.1755 15.2465 32.9609 15.7501C32.7156 16.2538 30.5386 19.0519 30.0173 19.6674C29.496 20.255 29.2201 20.7587 29.2201 20.7587C29.2201 20.7587 28.9135 21.0385 29.1588 21.5142C29.4041 21.9899 30.048 22.4655 30.4466 22.8293C30.8452 23.193 32.7156 24.8999 33.0222 25.5155C33.3288 26.131 33.3288 26.3269 33.0529 26.6067C32.8076 26.8865 31.3664 26.9705 31.3664 26.9705L28.2082 26.9145C28.2082 26.9145 27.4417 26.9705 26.7671 26.4108C26.0925 25.8232 24.1301 24.0325 24.1301 24.0325C24.1301 24.0325 23.8235 23.8086 23.4249 23.8926C23.0263 23.9765 22.873 24.4242 22.7503 24.9838C22.6277 25.5434 22.6584 26.243 22.6584 26.243C22.6584 26.243 22.5664 26.5228 22.3211 26.6906C22.0758 26.8306 21.3705 26.9145 21.3705 26.9145C21.3705 26.9145 18.7336 26.9984 17.3538 26.4668C15.974 25.9631 14.2569 24.8159 13.1224 23.5848C11.9572 22.3536 10.5774 20.2271 9.84152 18.884C9.07496 17.5409 8.00178 15.6102 7.87913 15.3024C7.72582 15.0226 7.6645 14.7988 7.81781 14.5469C7.97112 14.2951 8.36973 14.2391 8.36973 14.2391L8.33907 14.2671Z" fill="#FEFEFE"/>
<defs>
<radialGradient id="paint0_radial" cx="0" cy="0" r="1" gradientUnits="userSpaceOnUse" gradientTransform="translate(21.433 48.0277) scale(21.433 19.5586)">
<stop stop-color="#3B5998"/>
<stop offset="0.168627" stop-color="#3B5998"/>
<stop offset="1" stop-color="#4D76A5"/>
</radialGradient>
</defs>
</svg>
