<svg width="77" height="77" viewBox="0 0 77 77" fill="none" xmlns="http://www.w3.org/2000/svg">
<g clip-path="url(#clip0)">
<path fill-rule="evenodd" clip-rule="evenodd" d="M38.4953 4.85659C38.9837 4.46478 39.5558 4.0997 40.0688 3.781C40.6762 3.40382 41.3344 3.01402 41.9826 2.71349C42.1202 2.64944 42.2668 2.59801 42.4014 2.52943C43.1418 2.15275 43.9407 1.88398 44.7113 1.57638C45.053 1.44023 45.4018 1.35047 45.7506 1.23701C48.1718 0.44835 51.2125 0.00913945 53.7598 0.00913945C55.0017 0.00913945 56.2456 0.0247715 57.4824 0.148315C58.5978 0.260261 59.693 0.460452 60.7887 0.691907C61.832 0.911765 62.8819 1.23449 63.8909 1.57739L63.9166 1.58596L65.8147 2.35395L65.8374 2.36454C67.3076 3.04983 68.8035 3.83042 70.0666 4.85609C70.5202 5.2247 71.0559 5.53734 71.0559 6.2196V7.85442H72.0907C74.6959 7.85442 77.0002 10.0389 77.0002 12.6661V42.5505C77.0002 43.7426 76.5663 44.6876 75.8304 45.5983C75.4509 46.0682 74.9701 46.4777 74.4323 46.7556C73.4656 47.2558 72.8951 47.3622 71.7913 47.3622H43.6201C43.5173 47.3622 43.4094 47.3566 43.3036 47.3531C43.2915 47.3657 43.2794 47.3783 43.2673 47.3904C41.3057 49.3681 38.0452 49.8941 35.5509 48.6637C34.8307 48.3082 34.2722 47.937 33.7062 47.3637C33.7027 47.3602 33.6986 47.3561 33.6951 47.3526C33.5732 47.3556 33.4471 47.3627 33.3307 47.3627H5.15954C4.07945 47.3627 3.46506 47.2351 2.52457 46.7334C1.05387 45.9487 0.000488281 44.2201 0.000488281 42.551V12.6666C0.000488281 10.7307 1.196 9.1423 2.88141 8.30472C3.78964 7.85341 4.89494 7.8287 5.94429 7.84231V6.22011C5.94429 5.5918 6.53448 5.14604 6.98709 4.79961C7.24413 4.60244 7.51327 4.40729 7.78342 4.22828C8.78842 3.56115 9.81156 2.96511 10.9098 2.46388C11.9425 1.9929 13.012 1.61369 14.0871 1.25214C18.0955 -0.0957467 23.9864 -0.353423 28.1288 0.473563C30.6358 0.973789 32.8156 1.60764 35.1119 2.75988C36.3094 3.36096 37.3351 3.98926 38.4096 4.79104C38.4389 4.81272 38.4676 4.83491 38.4958 4.85709L38.4953 4.85659ZM4.24325 56.2467C4.26089 56.1565 4.27904 56.0738 4.30272 55.9946L4.07642 55.7082L4.78758 55.1061C5.18928 54.7657 6.16706 54.445 6.68266 54.204C8.34842 53.4249 10.0636 52.7477 11.7586 52.0357L11.7737 52.0296L15.2438 50.6404L15.2544 50.6363C16.531 50.1593 17.8717 49.772 19.2199 49.5653C21.4658 49.2209 23.4078 49.3757 25.5795 50.0085C26.3401 50.2304 27.0875 50.4936 27.835 50.7548C29.0063 51.1643 30.1807 51.5828 31.3716 51.9313C32.6483 52.3044 33.9295 52.5762 35.2394 52.8021C35.9309 52.9211 36.6365 53.0048 37.3346 53.0775C37.704 53.1158 38.0699 53.1128 38.4404 53.1632L40.6464 53.2807C42.7189 53.2731 44.3681 53.2655 46.1769 54.4617C46.2415 54.5045 46.2994 54.5464 46.3544 54.5897C46.5948 54.5242 46.8342 54.4561 47.0736 54.388L47.0917 54.383L50.8985 53.38C52.1641 53.0628 53.4282 52.7129 54.6907 52.3816C55.5037 52.1683 56.3176 51.956 57.1331 51.7513C57.62 51.6292 58.1744 51.4734 58.6689 51.3998C60.264 51.1613 61.8965 51.6963 63.1384 52.7018C63.9882 53.3901 64.7059 54.3457 65.0083 55.4127C65.1686 55.3915 65.3288 55.3779 65.4947 55.3774C66.7683 55.3759 67.9124 55.5574 68.9542 56.3441C70.6709 57.64 71.3674 59.8199 70.8488 61.8949C70.4365 63.5459 69.2803 64.8575 67.8434 65.7188C67.5097 65.9189 67.0823 66.0909 66.7224 66.2422C66.1811 66.4701 65.6348 66.6874 65.0884 66.9017C64.2457 67.2315 63.395 67.5608 62.5568 67.8593L60.4485 68.6475C60.0937 68.7801 59.7429 68.9223 59.3866 69.0504C57.2853 69.8058 55.1559 70.5254 53.0804 71.3463C52.718 71.4895 52.3486 71.604 51.9826 71.7356L48.7736 72.8898L48.7615 72.8939C46.6351 73.5958 44.5253 74.3663 42.3994 75.0763C40.9987 75.5443 39.587 76.0046 38.1662 76.407C37.3618 76.635 36.0272 77.0248 35.1981 76.9985C34.5519 76.9779 33.613 76.6879 32.9885 76.5029C31.9402 76.1927 30.8979 75.8468 29.8631 75.4943C28.2558 74.9467 26.649 74.3759 25.0589 73.7798C23.3185 73.1273 21.5721 72.4688 19.8091 71.8808C16.6117 70.8143 14.1632 71.1163 11.1915 72.6422L10.7047 72.8923L10.4224 72.7159C10.373 72.7159 10.3226 72.7143 10.2692 72.7093C10.0243 72.6876 9.77023 72.611 9.5525 72.498C9.21381 72.3225 9.12459 72.1682 8.88267 71.9322L8.80152 71.8531L8.74104 71.7568C8.69165 71.6841 8.65939 71.6156 8.62361 71.5364C8.59286 71.4688 8.57018 71.4098 8.54649 71.3392C8.49055 71.1733 8.46233 71.0604 8.4467 70.8824L8.41545 70.5304L8.56313 70.3206C8.56565 70.3115 8.56817 70.302 8.57069 70.2929C8.60042 70.19 8.62764 70.0982 8.67149 69.9984C8.78187 69.7463 8.9119 69.5617 9.10796 69.3706C9.58778 68.9026 10.9809 68.3485 11.6477 68.1251C12.8392 67.7257 14.137 67.4181 15.3955 67.348C18.3283 67.1846 20.2169 67.8513 22.8901 68.8018C24.9868 69.5471 27.0689 70.3438 29.1661 71.0932C30.4851 71.5641 31.8096 72.0301 33.1432 72.4587C33.6291 72.615 34.1195 72.7683 34.6124 72.9009C34.8095 72.9539 35.1351 73.0492 35.3216 73.0603C35.5136 73.0577 35.8568 72.9675 36.0463 72.9221C36.5498 72.8001 37.0508 72.6559 37.5473 72.5081C38.9126 72.1022 40.2704 71.6549 41.6207 71.2016C43.734 70.4921 45.8332 69.7503 47.937 69.0141C52.1152 67.5522 56.2587 65.9961 60.4158 64.4762C61.458 64.095 62.4867 63.678 63.528 63.2948C64.218 63.0406 65.6338 62.5636 66.1826 62.1239C66.791 61.6368 67.4034 60.6807 66.977 59.8971C66.6751 59.3429 65.9684 59.2602 65.4029 59.3187C65.1141 59.3484 64.7956 59.4221 64.5118 59.4836C63.9852 59.5975 63.46 59.7236 62.9368 59.8522C61.5367 60.1966 60.1406 60.5642 58.7475 60.9369C56.5102 61.5354 54.2704 62.1451 52.0436 62.7824C50.9252 63.1026 49.7988 63.3946 48.6794 63.7113C48.4435 63.7779 47.818 63.8918 47.571 64.0098C45.6487 66.6652 42.0229 67.056 38.9872 67.0913C37.0649 67.1135 34.9325 66.7444 33.048 66.3703C31.3046 66.0238 29.5733 65.6093 27.8511 65.1706C26.9404 64.9382 26.1939 64.7596 25.8381 63.7622C25.6068 63.1132 25.7081 62.4481 26.1521 61.9181C26.3401 61.6943 26.5417 61.543 26.7801 61.4003L26.9242 61.248L27.2655 61.2046C28.0809 61.1007 29.1444 61.4779 29.9468 61.6756C30.6766 61.8551 31.4099 62.024 32.1453 62.1804C33.6583 62.5016 35.1693 62.8233 36.7026 63.0336C38.5346 63.2847 41.7759 63.2832 43.4578 62.4733C43.7098 62.3518 44.3343 61.965 44.4351 61.6907L44.5082 61.4915L44.5611 61.4386L44.7587 60.9878C44.7939 60.8829 44.8484 60.7241 44.859 60.6282L44.8232 60.4709L44.926 59.9732C44.9703 58.6717 44.3318 57.6012 42.9941 57.3243C42.0662 57.1322 40.8949 57.2119 39.9378 57.1791C38.8461 57.1418 37.7574 57.0672 36.6723 56.9471C34.6971 56.7283 32.7052 56.3909 30.795 55.8393C29.0441 55.3335 27.3426 54.7022 25.6123 54.1354C21.2763 52.7149 19.3343 53.264 15.1868 54.8777C13.5841 55.5014 12.006 56.1847 10.4295 56.8705L6.85503 58.4251L6.82832 58.4347C6.31121 58.6243 5.77141 58.6117 5.27799 58.3596C5.02749 58.2315 4.88183 58.0959 4.68829 57.9173L4.58749 57.8533L4.51945 57.7595C4.49929 57.7368 4.47963 57.7126 4.46149 57.6874C4.43276 57.6481 4.40705 57.6067 4.38437 57.5639C4.3748 57.5457 4.36573 57.527 4.35766 57.5079C4.35565 57.5038 4.35413 57.5003 4.35262 57.4958C4.34708 57.4827 4.34103 57.4706 4.33498 57.458C4.29819 57.3803 4.27148 57.3117 4.24577 57.2305C4.20444 57.1009 4.18277 57.0006 4.15958 56.867L4.0865 56.4404L4.24275 56.2447L4.24325 56.2467ZM71.0595 11.8073L71.0519 25.1606L71.0453 43.4738C71.4067 43.4718 71.7671 43.4617 72.1234 43.436C72.3709 43.4184 72.5937 43.3205 72.7731 43.1496C72.8421 43.084 72.9762 42.898 73.0201 42.786L73.0165 42.7689L73.0755 13.5647C73.076 13.1981 73.1304 12.5516 72.9041 12.239C72.7272 11.9944 72.5402 11.8638 72.2439 11.8103C72.0428 11.774 71.8261 11.775 71.6229 11.7821C71.4329 11.7887 71.2459 11.7997 71.0605 11.8078L71.0595 11.8073ZM70.0797 43.4642L69.682 43.2827C69.3761 43.143 69.1135 42.9499 68.8237 42.7865C61.0422 38.4025 48.4339 38.4035 40.4978 42.4018C40.1187 42.5929 39.7589 42.7946 39.397 43.0155C39.0769 43.2111 38.7876 43.3775 38.3925 43.3457C37.9338 43.3084 37.5972 42.9771 37.2182 42.7558C29.7593 38.4055 16.5588 38.4141 8.92601 42.3518L7.00321 43.4658C7.44221 43.4542 7.87918 43.4405 8.30558 43.4405H29.7341C30.6156 43.4405 31.4991 43.4214 32.3817 43.4194C32.984 43.4179 33.5878 43.4189 34.1901 43.434C34.617 43.4451 35.254 43.4284 35.6129 43.6791C35.8145 43.8197 35.9717 44.0346 36.1305 44.2206C36.2938 44.4118 36.4647 44.5913 36.6577 44.7526C37.1884 45.1954 37.7842 45.4142 38.4777 45.4167C39.1445 45.4193 39.7271 45.2549 40.2488 44.8338C40.6555 44.5055 40.9241 44.0658 41.3037 43.7532C41.8843 43.2751 42.9084 43.441 43.6191 43.441C51.9438 43.441 60.2686 43.441 68.5933 43.441C69.0842 43.441 69.5812 43.4552 70.0781 43.4647L70.0797 43.4642ZM5.94983 43.4809L5.94126 11.8073C5.7452 11.7992 5.54864 11.7881 5.34955 11.7836C5.02548 11.776 4.60513 11.7765 4.337 11.9919C4.20999 12.0937 4.09255 12.2097 4.02905 12.3625C3.87734 12.7256 3.92724 13.6166 3.92724 14.016V39.053C3.92724 40.1931 3.84004 41.3827 3.93177 42.5157C3.97159 43.0054 4.36421 43.3891 4.85058 43.434C5.21045 43.4668 5.57838 43.4794 5.94983 43.4814V43.4809ZM9.85491 7.5806L9.85037 37.7106C9.95168 37.6683 10.052 37.6279 10.1513 37.5911C11.88 36.9467 13.8058 36.453 15.6248 36.1444C22.4925 34.9786 30.9745 35.4374 37.3366 38.4363C37.5871 38.5543 37.8346 38.6874 38.0825 38.8119C38.2176 38.8795 38.3875 38.9713 38.5422 39.0384C38.6062 38.999 38.6707 38.9582 38.7312 38.9284C45.4759 35.5655 53.9483 34.8646 61.3089 36.1641C62.5714 36.387 63.8163 36.684 65.0456 37.0475C65.6328 37.2215 66.2124 37.4161 66.79 37.6214C66.9084 37.6632 67.0269 37.7101 67.1458 37.759L67.1483 7.56547L66.0975 6.9054C65.596 6.6215 65.0975 6.32802 64.5693 6.09556C63.4212 5.59029 62.2917 5.14805 61.08 4.81322C58.2309 4.02658 55.4089 3.83193 52.4615 3.98422C48.5085 4.18845 43.3384 5.74056 40.3652 8.42877C39.895 8.85386 39.2014 9.70656 38.5694 9.79985L37.9873 9.88557L37.6476 9.41006C37.5352 9.26483 37.2892 9.07372 37.1476 8.94059C36.946 8.75149 36.7595 8.55685 36.5639 8.36372C36.3684 8.17008 36.129 7.99611 35.9092 7.83172C30.5279 3.8042 22.1906 3.08311 15.8421 4.83793C13.8613 5.38556 11.8553 6.23826 10.1422 7.37688C10.0454 7.44143 9.95016 7.51101 9.85491 7.5801V7.5806ZM48.566 58.0853C48.633 58.3228 48.6935 58.5608 48.7358 58.7963C48.7857 59.0721 48.8099 59.354 48.8175 59.6379C48.9929 59.5834 49.1647 59.5305 49.327 59.4856L54.7421 57.9995C55.9366 57.6718 57.1331 57.3531 58.3297 57.0339C58.9143 56.8776 59.4974 56.7142 60.0821 56.5569C60.4188 56.4661 60.7645 56.3703 61.1113 56.2815C61.0422 56.1393 60.943 56.0057 60.8003 55.8675C60.4898 55.5665 60.0816 55.326 59.6476 55.2705C59.4586 55.272 59.1542 55.3381 58.9718 55.3739C58.493 55.4671 58.0157 55.5791 57.5414 55.6936C56.2365 56.0082 54.9372 56.3557 53.6413 56.7056C52.4262 57.0334 51.2125 57.3677 49.9973 57.6975C49.5246 57.8261 49.0453 57.9602 48.5655 58.0853H48.566Z" fill="#6959B6"/>
</g>
<defs>
<clipPath id="clip0">
<rect width="77" height="77" fill="white"/>
</clipPath>
</defs>
</svg>
