<?xml version="1.0" encoding="utf-8"?><svg xmlns="http://www.w3.org/2000/svg" xmlns:xlink="http://www.w3.org/1999/xlink"><symbol viewBox="0 0 148 128" id="ellipse" xmlns="http://www.w3.org/2000/svg"><path d="M148 47.314C148 81.146 111.908 128 60.583 128c-44.06 0-68.335-32-58.355-69.029C13.007 18.971 42.3 0 76.988 0 111.678 0 148 13.483 148 47.314z"/></symbol><symbol viewBox="0 0 28 24" id="favicon" xmlns="http://www.w3.org/2000/svg"><path d="M25.415 10.625c-.805.553-1.515 1.251-2.282 1.657-.306-.47-.862-.747-1.514-.747-1.093 0-1.515.812-1.112 1.706.21.113.537.178.882.194.057.228.096.455.096.666 0 1.462-1.227 2.664-2.205 2.664-.671 0-1.246-.552-1.246-1.982 0-1.591 1.13-3.768 2.875-3.768.46 0 .863.065 1.227.179.288.097.614-.081.652-.455-.575-.73-1.342-.958-2.3-.958-2.895 0-4.908 3.07-4.908 5.522 0 1.527.843 2.875 2.818 2.875 2.3 0 5.004-2.452 5.004-4.938 0-.048 0-.113-.02-.178.787-.422 1.534-1.186 2.033-1.543.268-.195.364-.634 0-.894z"/><path fill-rule="evenodd" clip-rule="evenodd" d="M20.85 4.588c-4.18 3.348-6.258 5.92-7.093 10.901-.314 1.88-.226 3.79-.583 5.662-.498-1.86-.571-3.849-.425-5.748.407-5.27 2.621-8.281 6.823-11.942.366-.3.95-.29 1.305.02.354.31.343.806-.024 1.106h-.002zm-10.477 8.499C7.15 14.26 4.17 9.299 12.293 5.725c1.575-.693 2.153-.86 3.852-1.198C13.66 6.072 9.817 7.57 8.794 10.27c-.198.523-.188 1.474.68 1.47l.005-.005c-.022-.003-.01-.002-.034 0 .44-.217 1.005-.091 1.26.283.256.372.108.85-.333 1.068z"/><path d="M7.214 8.734c.663 0 1.201-.556 1.201-1.242 0-.686-.538-1.242-1.201-1.242s-1.201.556-1.201 1.242c0 .686.538 1.242 1.201 1.242z"/><path fill-rule="evenodd" clip-rule="evenodd" d="M10.652 7.39s-.205.794.964 1.367c1.168.573 1.901.738 1.901.738l-1.363 1.832s-.761-.024-2.2-.534c-1.437-.511-1.492-.653-1.492-.653l2.19-2.75z"/><path fill-rule="evenodd" clip-rule="evenodd" d="M11.04 14.957l-.21-.512s.452-.376.507-.879c.056-.502-.247-.95.316-1.854.563-.905 1.266-1.843 2.476-2.617-.426.502-.537.594-1.047 1.205-.511.612-1.716 2.087-1.457 2.936.26.848-.297 1.44-.584 1.722z"/><path fill-rule="evenodd" clip-rule="evenodd" d="M12.258 14.45l-.255-.315s.332-.511.337-1.017c.004-.505-.423-.891.22-1.835.645-.945.758-1.065 1.601-1.86-.337.569-.594.976-.807 1.328-.213.352-.93 1.375-.68 1.998.252.623-.158 1.4-.416 1.703v-.001z"/><path d="M20.17 19.146c-.692 2.346-4.697 4.27-8.383 4.27-3.577 0-6.438-.849-8.579-2.543C1.068 19.179 0 16.915 0 14.091c0-3.733 1.702-7.016 5.1-9.844C8.503 1.414 12.448 0 16.93 0c3.077 0 5.662.827 7.743 2.475 2.086 1.649 2.683 2.868 2.683 5.305 0 2.076-.866 2.72-2.065 3.69-1.529 1.239-1.336.488-1.057.186 1.066-1.155 1.77-1.567 1.94-3.035.237-2.038-.883-3.76-2.644-5.142-1.762-1.382-3.945-2.075-6.547-2.075-3.994 0-7.429 1.225-10.317 3.682-2.883 2.456-4.325 5.376-4.325 8.764 0 2.457.873 4.449 2.618 5.964 1.75 1.52 4.026 2.277 6.828 2.277 2.818 0 5.61-.982 8.383-2.947v.002z"/></symbol><symbol viewBox="0 0 25 24" id="icon--close" xmlns="http://www.w3.org/2000/svg"><path d="M3.121 3L22 21.879m-19 0L21.879 3"/></symbol><symbol viewBox="0 0 44 40" id="icon--fb" xmlns="http://www.w3.org/2000/svg"><path fill-rule="evenodd" clip-rule="evenodd" d="M22.298.305c11.836 0 21.433 8.758 21.433 19.558s-9.597 19.559-21.433 19.559C10.463 39.422.865 30.664.865 19.863.865 9.063 10.463.305 22.298.305z"/><path d="M28.86 15.387h3.373v-4.84h-5.06s-3.188-.085-5.212 2.35c0 0-1.38 1.203-1.41 4.672v3.638h-4.998v5.148h4.998v13.32h5.795v-13.32h4.967l.705-5.148h-5.672v-3.638c0-.42.215-2.21 2.545-2.154l-.03-.028z"/><defs><radialGradient id="dpaint0_radial" cx="0" cy="0" r="1" gradientUnits="userSpaceOnUse" gradientTransform="matrix(21.433 0 0 19.5586 22.298 48.028)"><stop stop-color="#3B5998"/><stop offset=".11" stop-color="#FFD879"/><stop offset=".31" stop-color="#3B5998"/><stop offset="1" stop-color="#5E82CD"/></radialGradient></defs></symbol><symbol viewBox="0 0 298 15" id="icon--footer_subtitle" xmlns="http://www.w3.org/2000/svg"><path d="M9.927 7.512l-2.76.447c-.092-.503-.307-.867-.644-1.147-.337-.252-.767-.392-1.288-.392-.705 0-1.257.224-1.686.672-.43.448-.614 1.175-.614 2.21 0 1.148.215 1.96.644 2.435.43.476.982.727 1.687.727.521 0 .981-.14 1.318-.42.338-.28.583-.755.736-1.426l2.76.42c-.276 1.146-.828 2.042-1.656 2.63-.828.587-1.901.895-3.28.895-1.565 0-2.791-.448-3.711-1.343-.92-.896-1.38-2.127-1.38-3.722 0-1.595.46-2.854 1.38-3.75.92-.894 2.177-1.342 3.772-1.342 1.287 0 2.33.252 3.096.755.767.504 1.319 1.287 1.656 2.323l-.03.028zM20.536.936V5.89c.92-.98 1.993-1.483 3.28-1.483a4.38 4.38 0 011.748.336c.522.223.92.503 1.196.839.276.336.46.728.552 1.12.092.419.153 1.063.153 1.93v5.68h-2.82v-5.12c0-1.008-.062-1.651-.154-1.931a1.25 1.25 0 00-.582-.644c-.276-.168-.614-.252-1.043-.252-.46 0-.89.112-1.257.308-.368.196-.644.504-.828.924-.184.42-.245 1.035-.245 1.846v4.869h-2.821V.908h2.82v.028zM35.99 3.315V.936h2.82v2.379h-2.82zm0 11.024v-9.71h2.82v9.71h-2.82zm11.314 0V.936h2.82v7.107l3.282-3.413h3.465l-3.619 3.553 3.895 6.156H54.11l-2.698-4.393-1.288 1.26v3.105h-2.821v.028zm19.317-6.715l-2.545-.42c.276-.951.798-1.651 1.472-2.099.705-.447 1.748-.671 3.128-.671 1.257 0 2.177.14 2.79.392.613.28 1.043.615 1.288 1.035.245.42.368 1.175.368 2.294l-.03 2.994c0 .84.03 1.483.122 1.875.092.392.245.84.49 1.287h-2.79l-.276-.755c-.03-.14-.092-.252-.092-.308-.49.42-.981.755-1.533.98a4.605 4.605 0 01-1.748.335c-1.104 0-1.962-.28-2.575-.812-.614-.531-.951-1.23-.951-2.042 0-.56.153-1.035.43-1.455a2.65 2.65 0 011.195-.98c.521-.223 1.257-.42 2.239-.587 1.318-.224 2.238-.448 2.729-.616V7.82c0-.503-.123-.867-.4-1.063-.275-.224-.766-.308-1.502-.308-.49 0-.889.084-1.165.28-.276.168-.521.504-.674.952l.03-.056zm3.772 2.07c-.368.112-.92.252-1.717.392-.767.14-1.288.308-1.533.448-.368.252-.552.531-.552.895s.153.672.429.923c.306.252.675.392 1.134.392.522 0 .982-.14 1.442-.448a1.67 1.67 0 00.674-.839c.062-.224.123-.644.123-1.26v-.503zm20.912 4.645h-2.821V9.386c0-1.035-.062-1.734-.184-2.042a1.562 1.562 0 00-.583-.728 1.877 1.877 0 00-.981-.252c-.49 0-.92.112-1.319.364-.398.252-.674.56-.797.98-.153.391-.215 1.147-.215 2.238v4.393h-2.82v-9.71h2.606v1.428c.92-1.092 2.116-1.623 3.526-1.623a4.89 4.89 0 011.717.308c.521.195.92.475 1.165.783.276.308.46.672.552 1.091.092.392.154.98.154 1.735v6.016-.028zm17.814-6.827l-2.759.447c-.092-.503-.307-.867-.644-1.147-.337-.252-.767-.392-1.288-.392-.705 0-1.257.224-1.686.672-.43.448-.614 1.175-.614 2.21 0 1.148.215 1.96.644 2.435.43.476.981.727 1.687.727.521 0 .981-.14 1.318-.42.337-.28.583-.755.705-1.426l2.76.42c-.276 1.146-.828 2.042-1.656 2.63-.828.587-1.901.895-3.281.895-1.563 0-2.79-.448-3.71-1.343-.92-.896-1.38-2.127-1.38-3.722 0-1.595.46-2.854 1.38-3.75.92-.894 2.177-1.342 3.772-1.342 1.288 0 2.33.252 3.097.755.766.504 1.318 1.287 1.655 2.323v.028zm10.61-6.576V5.89c.919-.98 1.993-1.483 3.28-1.483a4.65 4.65 0 011.779.336c.521.223.92.503 1.196.839.276.336.46.728.552 1.12.092.419.153 1.063.153 1.93v5.68h-2.821v-5.12c0-1.008-.061-1.651-.153-1.931a1.251 1.251 0 00-.583-.644c-.276-.168-.613-.252-1.042-.252-.46 0-.89.112-1.258.308s-.643.504-.827.924c-.184.42-.246 1.035-.246 1.846v4.869h-2.821V.908h2.821l-.03.028zm15.453 2.379V.936h2.821v2.379h-2.821zm0 11.024v-9.71h2.821v9.71h-2.821zm16.252-9.71v2.043h-1.932v3.946c0 .811.03 1.259.061 1.399a.56.56 0 00.245.335c.123.084.276.14.46.14.276 0 .644-.084 1.135-.252l.245 1.987a6.025 6.025 0 01-2.208.392c-.49 0-.95-.084-1.379-.224-.399-.168-.706-.364-.89-.616-.184-.251-.306-.587-.398-1.007-.061-.308-.092-.895-.092-1.819V6.7h-1.288V4.658h1.288V2.727l2.821-1.511v3.442h1.932V4.63zm9.781 2.995l-2.545-.42c.276-.951.797-1.651 1.472-2.099.705-.447 1.747-.671 3.127-.671 1.257 0 2.177.14 2.79.392.614.28 1.043.615 1.288 1.035.246.42.368 1.175.368 2.294l-.03 2.994c0 .84.03 1.483.122 1.875.092.392.246.84.491 1.287h-2.79l-.276-.755c-.031-.14-.092-.252-.092-.308-.491.42-.982.755-1.534.98a4.599 4.599 0 01-1.747.335c-1.104 0-1.963-.28-2.576-.812-.644-.531-.95-1.23-.95-2.042 0-.56.153-1.035.429-1.455.276-.42.674-.756 1.196-.98.521-.223 1.257-.42 2.238-.587 1.318-.224 2.238-.448 2.729-.616V7.82c0-.503-.123-.867-.399-1.063-.276-.224-.766-.308-1.502-.308-.491 0-.889.084-1.165.28-.276.168-.522.504-.675.952l.031-.056zm3.771 2.07c-.368.112-.92.252-1.717.392-.766.14-1.288.308-1.533.448-.368.252-.552.531-.552.895s.153.672.429.923a1.72 1.72 0 001.135.392c.521 0 .981-.14 1.441-.448a1.67 1.67 0 00.675-.839c.061-.224.122-.644.122-1.26v-.503zm17.386 1.567l2.821.42c-.368.951-.92 1.65-1.717 2.154-.767.476-1.748.728-2.913.728-1.84 0-3.22-.56-4.109-1.651-.705-.895-1.042-2.015-1.042-3.358 0-1.623.459-2.882 1.379-3.777.92-.923 2.085-1.371 3.496-1.371 1.564 0 2.821.475 3.741 1.427.92.951 1.349 2.406 1.318 4.393h-7.022c.031.755.246 1.343.675 1.79.429.42.981.644 1.625.644.429 0 .797-.112 1.104-.336.307-.223.521-.56.675-1.063h-.031zm.153-2.602c-.03-.756-.214-1.315-.613-1.707-.399-.392-.889-.588-1.472-.588-.613 0-1.104.196-1.502.616-.399.42-.583.98-.583 1.679h4.201-.031zm10.701 5.68V.936h2.821v7.107l3.281-3.413h3.465l-3.618 3.553 3.894 6.156h-3.036l-2.698-4.393-1.288 1.26v3.105h-2.821v.028zm19.195 0l-3.373-9.71h2.729l1.993 6.352 1.84-6.351h2.698l1.779 6.351 2.023-6.351h2.76l-3.404 9.709h-2.698l-1.84-6.24-1.809 6.24h-2.729.031zm19.041-4.98c0-.868.215-1.68.706-2.49.46-.812 1.103-1.4 1.962-1.82a6.281 6.281 0 012.821-.643c1.594 0 2.913.475 3.955 1.427 1.043.951 1.534 2.154 1.534 3.61 0 1.482-.522 2.686-1.564 3.665-1.043.98-2.331 1.455-3.925 1.455a6.413 6.413 0 01-2.79-.616c-.89-.391-1.564-.979-2.024-1.762-.46-.784-.705-1.735-.705-2.855l.03.028zm2.883.14c0 .95.245 1.706.736 2.21.49.504 1.103.783 1.839.783s1.349-.252 1.84-.783c.491-.504.736-1.26.736-2.239 0-.951-.245-1.679-.736-2.182a2.488 2.488 0 00-1.84-.784c-.736 0-1.349.252-1.839.784-.491.503-.736 1.259-.736 2.21zm25.664 4.84h-2.821V9.386c0-1.035-.061-1.734-.184-2.042a1.557 1.557 0 00-.582-.728 1.88 1.88 0 00-.982-.252c-.49 0-.919.112-1.318.364s-.675.56-.797.98c-.154.391-.215 1.147-.215 2.238v4.393h-2.821v-9.71h2.606v1.428c.92-1.092 2.116-1.623 3.527-1.623a4.89 4.89 0 011.717.308c.521.195.92.475 1.165.783.276.308.46.672.552 1.091.092.392.153.98.153 1.735v6.016-.028zm18.306 0h-2.607v-1.427c-.429.56-.95.98-1.533 1.26a4.144 4.144 0 01-1.778.419c-1.227 0-2.269-.448-3.159-1.343-.858-.896-1.318-2.155-1.318-3.778 0-1.65.429-2.91 1.288-3.75.858-.866 1.932-1.286 3.219-1.286 1.196 0 2.208.447 3.097 1.343V.937h2.821v13.402h-.03zm-7.513-5.037c0 1.036.154 1.791.46 2.267.46.671 1.073 1.007 1.901 1.007.644 0 1.196-.252 1.656-.755.46-.504.675-1.26.675-2.267 0-1.119-.215-1.93-.675-2.406-.429-.504-1.012-.728-1.686-.728-.675 0-1.227.252-1.687.728-.46.476-.674 1.203-.674 2.182l.03-.028zm15.331.056c0-.867.215-1.678.675-2.49.46-.811 1.104-1.399 1.962-1.819a6.284 6.284 0 012.821-.643c1.595 0 2.913.475 3.956 1.427 1.042.951 1.533 2.154 1.533 3.61 0 1.482-.521 2.686-1.564 3.665-1.042.98-2.33 1.455-3.925 1.455a6.413 6.413 0 01-2.79-.616c-.889-.391-1.564-.979-2.024-1.762-.46-.784-.674-1.735-.674-2.855l.03.028zm2.883.14c0 .952.245 1.707.736 2.21.49.505 1.103.784 1.839.784s1.35-.252 1.84-.783c.491-.504.736-1.26.736-2.239 0-.951-.245-1.679-.736-2.182a2.486 2.486 0 00-1.84-.784c-.736 0-1.349.252-1.839.784-.491.503-.736 1.259-.736 2.21z"/></symbol><symbol viewBox="0 0 54 48" id="icon--icon_1" xmlns="http://www.w3.org/2000/svg"><path fill-rule="evenodd" clip-rule="evenodd" d="M5.967 0h42.065C51.314 0 54 2.668 54 5.928v5.569h-4.594c-.676 0-1.23.55-1.23 1.222v22.49a1.23 1.23 0 001.23 1.222H54v5.641C54 45.332 51.314 48 48.032 48H5.967C2.685 48 0 45.332 0 42.072v-5.64h4.557c.676 0 1.23-.55 1.23-1.222V12.718a1.23 1.23 0 00-1.23-1.221H0v-5.57C0 2.668 2.685 0 5.967 0zM5.76 3.871h3.898v3.844H5.759V3.871zm9.617 0h3.897v3.844h-3.897V3.871zm9.62 0h3.898v3.844h-3.897V3.871zm9.658 0h3.897v3.844h-3.898V3.871zm9.693 0h3.897v3.844h-3.897V3.871zM5.759 40.311h3.897v3.845H5.76V40.31zm9.616 0h3.898v3.845h-3.898V40.31zm9.621 0h3.897v3.845h-3.897V40.31zm9.657 0h3.897v3.845h-3.897V40.31zm9.693 0h3.898v3.845h-3.898V40.31zm-25.091-23.65v-.032a1.183 1.183 0 011.821-.996l14.639 7.33a1.177 1.177 0 01-.003 2.16l-14.726 7.373-.02.01-.005.003a1.19 1.19 0 01-1.706-1.06V16.66zm-6.543-5.164h28.574c.676 0 1.23.55 1.23 1.222v22.49a1.23 1.23 0 01-1.23 1.222H12.712a1.23 1.23 0 01-1.23-1.221V12.718a1.23 1.23 0 011.23-1.221z"/></symbol><symbol viewBox="0 0 51 43" id="icon--icon_2" xmlns="http://www.w3.org/2000/svg"><path fill-rule="evenodd" clip-rule="evenodd" d="M3.659 0H47.34C49.353 0 51 1.654 51 3.675v27.45c0 2.02-1.646 3.674-3.659 3.674H37.92v-7.306h9.422c.716 0 1.302-.588 1.302-1.307V3.675c0-.72-.586-1.308-1.302-1.308H3.66a1.31 1.31 0 00-1.302 1.308v22.51a1.31 1.31 0 001.174 1.302v7.31A3.682 3.682 0 010 31.123V3.674C0 1.655 1.646 0 3.659 0zm11.074 11.723H34.77c1.011 0 1.839.831 1.839 1.847v27.582A1.849 1.849 0 0134.77 43H19.686a3.952 3.952 0 001.015-2.645V38.58h13.552V14.09H15.25v3.524h-2.357V13.57c0-1.016.828-1.847 1.84-1.847zm10.018 27.79c.541 0 .98.44.98.983a.981.981 0 01-.98.983.981.981 0 01-.978-.983.98.98 0 01.979-.983zM7.474 18.93h9.286a2.647 2.647 0 012.633 2.644v18.781A2.647 2.647 0 0116.759 43H7.473a2.647 2.647 0 01-2.633-2.645v-18.78a2.647 2.647 0 012.633-2.645zm0 2.367h9.286c.151 0 .276.125.276.277v16.218a.277.277 0 01-.276.277H7.473a.277.277 0 01-.276-.277V21.574c0-.152.124-.277.276-.277zm4.643 18.216c.54 0 .979.44.979.983a.981.981 0 01-.98.983.981.981 0 01-.978-.983.98.98 0 01.979-.983zM37.58 36.99h1.29c0 2.505 1.206 4.046 3.872 4.046v1.453H37.58V36.99z"/></symbol><symbol viewBox="0 0 55 54" id="icon--icon_3" xmlns="http://www.w3.org/2000/svg"><path fill-rule="evenodd" clip-rule="evenodd" d="M11.058 52.397c1.144.405 2.306 1.961 4.232 1.5 3.414-.82 2.56-5.731 2.594-9.021.058-5.751-.067-11.61-.002-17.397.022-1.918-.008-3.851-.008-5.77 0-2.162-.243-1.823 1.078-1.822l8.77-.006c1.69.009 4.043.239 5.336-.462 1.2-.651 2.005-2.391 1.035-4.06-.774-1.334-2.36-1.501-4.354-1.463-1.951.038-3.924.057-5.876.056-1.917 0-3.782-.197-5.612-.2-5.75-.008-5.926 3.945-7.193 4.376-.362-.341-.887-.887-1.177-1.365-1.015-1.667-1.931-2.815-4.523-2.947-1.579-.08-3.156.146-4.108.915-1.129.913-1.23 1.912-1.237 3.743C0 21.8-.004 25.115.01 28.44c.007 1.703-.134 3.09.826 4.159 1.194 1.328 3.174 1.03 3.499 1.407.21.471.07 12.43.079 14.104.012 2.441-.067 4.379 1.65 5.415 2.399 1.447 4.272-.847 4.995-1.128z"/><path fill-rule="evenodd" clip-rule="evenodd" d="M38.129 3.296c-.455-.831.133-1.91-.883-2.795-.704-.613-2.109-.497-3.209-.484-2.318.03-2.664.312-3.231 2.287-.32 1.11-.122 1.055-.794 1.07-2.377.056-5.036-.151-7.368.009-1.164.08-2.058.299-2.105 1.54-.048 1.255.542 1.764 1.667 1.867 1.084.099 5.824.009 7.358.02 2.415.019 21.292-.115 21.885.076.137 2.55.005 5.417.01 8.003l.002 19.933c-.041 4.141.498 3.915-1.022 3.91l-26.312-.008c-1.154-.003-2.653-.106-3.267.621-.709.84-.338 2.28.652 2.628.902.317 2.604.18 3.667.179l23.33.007c1.308-.001 2.645.023 3.948-.005 1.353-.028 2.2-.118 2.427-1.406.198-1.124.084-22.617.08-23.236-.03-3.832.068-7.963.005-11.717-.021-1.26-.309-2.132-1.456-2.36-.684-.135-6.47-.05-7.722-.063-1.153-.012-7.133.142-7.662-.076zM10.333.073C7.372.547 5.12 3.017 5.463 6.497c.269 2.712 3.204 5.34 6.416 4.837 2.9-.455 5.24-2.905 4.864-6.396-.297-2.77-3.133-5.39-6.41-4.865zm24.055 46.573c1.069.8 5.54 5.786 6.508 6.34 1.765 1.012 2.68-.08 2.157-1.015-.3-.54-5.469-5.623-6.348-6.52-.608-.619-1.516-1.84-2.655-1.615-.794.156-3.713 3.385-4.474 4.11l-3.251 3.23c-.267.251-.792.755-.772 1.302.012.313.81 2.15 2.392.575.74-.737 1.38-1.368 2.15-2.14.626-.628 3.886-4.031 4.293-4.267z"/></symbol><symbol viewBox="0 0 60 60" id="icon--icon_4" xmlns="http://www.w3.org/2000/svg"><path fill-rule="evenodd" clip-rule="evenodd" d="M37.076 45.095c1.528-.34 9.062-2.556 9.896-2.46.596.068 1.078.392 1.386.69.365.354.579.75.604 1.47-.61.118-2.216.573-2.916.76-.956.256-1.92.504-2.862.77l-4.328 1.188c-.386.108-1.022.32-1.409.375.087-1.504-.003-1.51-.37-2.793zM6.336 4.85c.13-.036.43-.274.573-.369 1.421-.944 3.108-1.669 4.777-2.13C17.043.869 23.93 1.53 28.39 4.868c.679.508.525.443 1.056.942.152.142.392.339.497.486.167-.025.805-.7 1.031-.905 2.475-2.238 6.738-3.574 10.144-3.75 2.57-.133 4.845.057 7.133.689 1.055.29 1.937.64 2.894 1.062.464.204.883.452 1.306.691l1.215.764-.002 25.68c-.402-.114-.881-.353-1.311-.505a26.324 26.324 0 00-4.257-1.132c-5.714-1.009-12.325-.474-17.568 2.14-.12.06-.508.342-.575.186-.154-.02-.985-.466-1.211-.572-4.937-2.327-11.57-2.674-16.896-1.77-1.346.23-2.956.643-4.234 1.12-.384.142-.902.389-1.28.491L6.336 4.85zm48.916 3.005c.9.201 2.076-.392 2.867.702.313.434.283.909.283 1.512l-.047 23.262c.072.338-.279.794-.433.94-.227.217-.56.41-.996.44-.874.063-1.975.006-2.874.006h-19.96c-.312 0-1.173-.08-1.362.074-.368.303-.98 1.512-2.75 1.505-1.766-.006-2.513-1.376-2.729-1.527-.164-.114-3.895-.052-4.257-.052H5.868c-.855 0-2.014.067-2.833-.008a1.579 1.579 0 01-1.431-1.44c-.067-.84-.006-1.959-.006-2.83v-20.01c0-1.1-.07-1.67.615-2.22.741-.595 1.78-.183 2.534-.354l.007 25.264 1.24-.719c6.348-3.285 17.189-3.272 23.369.334.933.544.241.523 1.887-.306 6.597-3.324 16.943-3.293 23.362.324.199.112.436.28.628.367l.005-13.784.006-11.48h.001zM4.751 4.197v2.077c-.938 0-2.108-.103-2.876.279C.833 7.07 0 8.059 0 9.349v23.886c0 1.192.82 2.242 1.61 2.663.563.3.899.413 1.744.413h22.514c.653 0 .548-.075.848.23.391.396.75.633 1.267.889 1.707.842 3.953.468 5.28-.87.329-.331.213-.25.829-.25h22.515c.88.001 1.176-.097 1.757-.398.337-.174.638-.436.872-.725.424-.525.764-1.12.764-1.952V9.349c0-1.654-1.476-3.075-3.154-3.075H55.25V4.197c0-.14-.356-.37-.506-.492-.947-.769-2.111-1.375-3.22-1.891l-1.478-.599c-.74-.251-1.615-.52-2.39-.683-2.124-.448-3.185-.53-5.46-.53-1.941 0-4.362.357-6.162.944-.287.093-.527.152-.784.255-.552.22-1.253.463-1.782.732-.136.07-.222.095-.36.16-.72.333-2.233 1.252-2.819 1.774-.103.092-.195.14-.269.25a3.918 3.918 0 01-.267-.212c-.11-.094-.17-.147-.286-.233a15.108 15.108 0 00-2.52-1.552C25.13 1.208 23.523.75 21.56.36c-3.146-.63-7.762-.435-10.827.596-1.938.651-3.12 1.137-4.858 2.29-.135.09-1.125.771-1.125.95zM3.553 43.859c.07.088.061-.007-.049.15-.18.254-.105.434-.19.54.018.108.013.095.043.188.012.038.01.036.034.085.049.105.006.024.042.074.112.07.405.526.99.312l2.835-1.233a107.187 107.187 0 013.83-1.605c3.516-1.367 5.219-1.797 8.851-.607 1.414.463 2.651.93 4.116 1.353 1.438.416 3.01.687 4.569.86.846.094 1.684.152 2.552.182.8.027 1.81-.027 2.572.13 1.548.32 2.226 1.612 2.154 2.968l-.06.295c.047.207-.055.493-.12.697l-.228.518-.014.017a.203.203 0 01-.014.016c-.16.435-.728.84-1.17 1.054-1.502.723-4.228.737-5.837.517-1.271-.175-2.477-.432-3.698-.692a56.5 56.5 0 01-1.782-.409c-.476-.117-1.396-.42-1.861-.36-.03.032-.762.323-.513 1.02.163.457.54.503 1.074.639 2.438.621 6.303 1.54 8.701 1.511 2.427-.027 5.001-.354 6.29-2.206.18-.26.912-.368 1.256-.466.883-.25 1.807-.49 2.686-.741 1.343-.385 9.486-2.658 10.81-2.795 2.374-.246 2.952 2.194 1.183 3.61-.5.4-1.619.793-2.337 1.057-.848.313-1.646.637-2.49.945-3.352 1.226-6.586 2.442-9.983 3.63-1.48.519-9.366 3.335-10.368 3.277-1.17-.067-8.915-3.003-10.161-3.447-1.907-.677-3.365-1.248-5.69-1.119-.954.053-1.959.303-2.793.582-.363.122-1.472.559-1.737.817a.724.724 0 00-.182.26c-.023.053-.031.09-.046.14-.01.034-.015.06-.027.094l-.028.062a.18.18 0 01-.017.032c.01.1.014.103.043.187.02.058.006.026.034.087.033.073.013.035.043.082.12.117.185.233.351.32a.797.797 0 00.287.085c.16.015.226-.029.318.029 2.522-1.296 4.692-1.585 7.482-.654 1.307.436 2.903 1.032 4.222 1.527 1.297.486 6.808 2.49 7.858 2.524 1.408.045 8.641-2.604 10.575-3.242l2.555-.919c.28-.102.564-.187.855-.303 1.434-.567 3.558-1.303 5.063-1.844.283-.101.57-.218.84-.318l1.685-.63c.78-.278 3.6-1.352 4.1-1.65.955-.574 1.767-1.452 2.05-2.583.348-1.393-.133-2.806-1.231-3.635-.682-.514-1.442-.618-2.3-.617-.379 0-.708.122-1.037.122 0-1.745-2.116-3.637-4.305-3.31-.646.097-5.332 1.367-6.137 1.569l-3.033.8c-.266.075-.484.137-.753.208-.344.091-.227-.002-.6-.248-1.293-.855-2.502-.822-4.014-.816l-1.82-.097c-.286-.043-.598-.04-.888-.07a28.027 28.027 0 01-1.726-.227c-2.521-.434-3.711-.853-6.041-1.669-2.02-.706-3.776-1.337-6.515-.916-1.072.164-2.13.485-3.016.816l-2.765 1.107c-1.308.55-2.76 1.127-4.029 1.72-.27.127-1.198.489-1.344.612z"/><path fill-rule="evenodd" clip-rule="evenodd" d="M30.956 30.434c-.091-.057-.158-.014-.318-.029a.802.802 0 01-.286-.085c-.166-.087-.232-.203-.352-.32.012.137.061.282.105.41.043.127.09.33.135.423.175-.04.376-.206.535-.303.073-.045.116-.06.181-.096z"/><path fill-rule="evenodd" clip-rule="evenodd" d="M30.16 30.69c.084-.106.01-.286.19-.54.11-.157.119-.063.05-.15-.117.029-.304.11-.4.161.01.128.044.19.075.284.03.092.037.19.084.246z"/></symbol><symbol viewBox="0 0 46 46" id="icon--icon_5" xmlns="http://www.w3.org/2000/svg"><path fill-rule="evenodd" clip-rule="evenodd" d="M18.688 31.814c.053.035.055.034.092.095.017.028.036.066.053.092.046.07.083.109.106.2.274.508.284.268.284.919 0 .398.01.818-.004 1.214-.05 1.389-.195 1.755-1.204 2.442a4.8 4.8 0 01-.801.41l-.867.352c-.296.115-.59.234-.887.344-1.556.575-3.543 1.396-4.824 2.481-.34.288-.934.916-1.112 1.316-.02.093-.089.188-.133.275-.079.154-.07.21-.155.277-.007.037-.35.843-.389 1.299-.055.637-.194 1.492.01 2.107.056.164.186.234.219.361h27.78c.03-.095.258-.3.3-.462.076-.298.022-1.2.009-1.533a8.507 8.507 0 00-.171-1.019c-.013-.047-.03-.06-.049-.13a3.345 3.345 0 00-.048-.163c-.059-.196-.157-.372-.231-.566-.058-.15-.184-.359-.272-.512-.08-.138-.223-.32-.325-.457a.502.502 0 01-.223-.269 19.352 19.352 0 01-.515-.494.37.37 0 01-.207-.183c-.1-.065-.203-.165-.292-.222-.107-.069-.225-.151-.335-.221-.114-.073-.578-.403-.68-.41-.085-.022-.137-.036-.182-.108-.183-.087-.364-.188-.547-.275-.188-.09-.4-.173-.58-.264-.362-.181-2.102-.868-2.405-.97-.396-.133-.816-.333-1.209-.495-.736-.302-1.553-.7-1.932-1.442-.316-.615-.254-2.398-.24-3.138.025-.09.092-.222.178-.255.02-.068.508-.856.585-.976a7.3 7.3 0 00.537-1.043l.283-.896c.024-.1.043-.277.065-.349l.094-.675c.001-.215-.02-.54.075-.734.156-.319.749-.64 1.047-1.32.098-.222.106-.416.175-.628.054-.166.088-.62.101-.678.056-.25.033-.52.031-.775-.005-.981-.672-.764-.77-.838-.087-.137-.027-1.604-.075-1.926-.026-.175-.018-.296-.026-.467-.005-.101-.03-.11-.04-.204-.008-.08 0-.168-.006-.248a14.115 14.115 0 00-.08-.402c-.044-.119-.05-.298-.096-.42-.046-.127-.062-.252-.114-.378-.14-.342-.236-.727-.475-1.03-.168-.212-.161-.27-.427-.58a9.018 9.018 0 00-.472-.516c-.073-.032-.268-.178-.297-.257-.513-.43-1.74-1.047-2.437-1.119-.27-.028-.857-.104-1.106-.104-.398 0-.797-.002-1.195-.001-.19 0-.355.04-.559.043a3.16 3.16 0 00-.479.103c-.527.155-1.282.363-1.733.677-.463.322-.94.634-1.298 1.087-.353.448-.688.991-.876 1.532-.11.317-.214.577-.279.915-.043.226-.135.844-.135 1.047-.001.375-.045.768-.049 1.152-.002.185-.001 1.024-.075 1.139-.228.075-.348-.085-.562.16-.22.252-.212.965-.18 1.271.014.127.037.178.044.332.004.08.046.191.061.297.043.306.198.84.361 1.099.191.302.428.534.676.787.4.41.27.609.308 1.149.062.883.3 1.486.66 2.268.137.302.378.61.525.91z"/><path fill-rule="evenodd" clip-rule="evenodd" d="M17.577.649c-.042.034-.002.014-.063.037L17.15.77c-.771.103-2.974.988-3.682 1.282-.275.115-1.386.678-1.64.844-.244.158-.554.29-.81.447-.309.189-1.258.797-1.5.99-.219.174-.497.352-.704.53-.227.194-.453.375-.68.574-.217.19-.435.401-.653.582-.196.163-1.066 1.028-1.255 1.234-.2.22-.393.443-.6.655l-.561.655a.507.507 0 01-.18.226c-.139.209-.309.409-.457.617a25.54 25.54 0 00-1.292 1.979c-.623 1.051-1.662 3.192-2.044 4.472-.084.283-.186.547-.257.837-.066.27-.152.575-.227.844l-.293 1.349c-.075.463-.178.968-.205 1.43-.01.172-.05.294-.052.48-.002.141.018.354-.058.47v3.434c.079.116.051.357.05.5l.182 1.409c.028.15.06.314.076.465.016.148.07.287.095.436.052.308.13.582.195.883.124.569.319 1.11.471 1.663.061.222.187.577.279.788.108.25.187.519.292.776.105.254.205.51.312.765.106.25.233.477.346.718.464.992.96 1.811 1.558 2.721.2.304.65 1.004.887 1.234.072.04.1.081.122.164.27.342.677.847 1.162.896a2.01 2.01 0 00.923-.113c.308-.119.605-.539.708-.845.228-.684-.2-1.294-.616-1.826-.132-.168-.304-.45-.44-.59-.065-.04-.055-.023-.064-.1-1.308-1.916-2.283-3.85-2.915-6.092-.329-1.165-.656-2.598-.71-3.803-.008-.185.006-.372 0-.559-.007-.179-.034-.354-.04-.533-.028-.756.005-1.967.09-2.728.02-.185.015-.341.053-.527.067-.329.074-.645.142-.977.063-.308.131-.62.2-.926a19.6 19.6 0 011.844-4.948c.488-.917 1.125-1.94 1.779-2.746.638-.787 1.374-1.71 2.142-2.367.04-.094.142-.157.22-.229.078-.07.145-.156.244-.19.082-.102.734-.671.816-.707a.192.192 0 01.165-.123c.05-.07.342-.292.434-.346.086-.05.711-.545.793-.566.036-.062.126-.113.194-.154.094-.055.119-.105.23-.12 1.804-1.154 3.976-2.093 6.08-2.566.609-.137 1.569-.346 2.198-.413 1.122-.12 2.243-.126 3.37-.11l1.221.076c.137.017.266.006.402.03.248.04.513.084.76.12 1.652.237 3.828.954 5.306 1.656.771.367 1.497.786 2.23 1.222.07.018.057 0 .097.068.063.034.21.124.257.157.053.038.206.17.246.185.112.023.221.128.318.196.093.065.215.126.27.222.063.024.253.188.317.24.056.047.113.079.166.122.051.04.091.116.166.126.092.015.194.133.273.196.093.076.158.129.245.208.114.105.433.312.468.453.01.039.073.081.113.118.08.035.156.108.184.185l.14.125c.09.043.258.21.293.305.335.328.473.513.742.803.391.424.602.731.955 1.164.023.028.216.298.216.3.075.043.245.285.264.368.954 1.318 1.89 3.111 2.41 4.651.729 2.158 1.023 3.593 1.147 5.955.202 3.838-.848 8.008-2.877 11.28a28.53 28.53 0 01-.698 1.072c-.24.352-.502.677-.74 1.03-.27.399-.558.716-.538 1.23.017.445.277.886.646 1.132.38.252 1.03.301 1.435.085.655-.351 1.938-2.374 2.325-3.005 1.675-2.728 2.829-6.006 3.209-9.189.065-.546.094-1.088.165-1.634v-2.281c-.085-.115-.037-.556-.073-.727-.03-.147-.028-.215-.032-.363l-.426-2.72c-.135-.525-.243-1.03-.406-1.546-.089-.282-.25-.928-.385-1.159-.06-.103-.158-.443-.203-.576-.2-.582-.503-1.135-.707-1.665-.123-.32-.398-.687-.525-1.014-.08-.048-.084-.102-.135-.192a11.345 11.345 0 00-.115-.197c-.07-.117-.183-.273-.212-.402-.003-.075-.582-.97-.668-1.081a.427.427 0 01-.161-.226c-.292-.5-1.107-1.477-1.502-1.96-.514-.627-1.103-1.206-1.683-1.773-1.09-1.067-2.625-2.222-3.945-2.989-.348-.202-.752-.47-1.111-.635a26.94 26.94 0 01-1.156-.572c-.184-.094-.412-.172-.608-.259a19.474 19.474 0 00-1.87-.715c-1.128-.37-3.039-.837-4.25-.953-.231-.022-.579-.038-.792-.076-.461-.082-.51.02-.785-.087h-2.652c-.097.076-.417.05-.553.051-.174.002-.32.048-.514.056l-2.043.306c-.07.021-.001.026-.116.045-.283.048-.5.134-.795.191z"/><path fill-rule="evenodd" clip-rule="evenodd" d="M13.632 9.353c-.041.079-.312.259-.398.281-.422.27-1.558 1.26-1.938 1.641-.148.15-.282.305-.427.458l-.643.715c-.073.082-.118.162-.2.252-.136.148-.25.354-.387.498-.027.095-.22.372-.3.418a10.4 10.4 0 01-.366.562c-.367.538-.725 1.29-1.021 1.858-.433.831-.763 1.932-1.01 2.836-.616 2.247-.637 4.694-.297 6.988.411 2.773 1.916 5.68 3.677 7.861.65.806 1.53 1.422 2.49.63.024-.1.13-.178.192-.26.027-.035.059-.081.085-.12.046-.066.021-.106.098-.13.262-.564.147-.949-.185-1.444-.231-.345-.587-.738-.85-1.082a11.63 11.63 0 01-1.138-1.764c-.12-.221-.24-.406-.344-.64-.671-1.52-1.122-2.883-1.282-4.534-.063-.65-.044-1.265-.046-1.914 0-.596.116-1.14.198-1.725.195-1.396.838-3.105 1.515-4.334.947-1.719 2.045-2.962 3.57-4.186a.402.402 0 01.227-.165c.184-.158.799-.553 1.054-.712.132-.082.273-.137.401-.218.429-.269 1.157-.598 1.636-.773l1.337-.453a9.144 9.144 0 011.99-.413c.094-.009.17-.034.269-.039.102-.005.191-.001.295-.014.397-.048 1.297-.038 1.76-.031.212.003.383.036.575.043.097.003.198-.003.294.001.11.004.152.034.247.05.17.029.348.025.542.06.336.062.654.144.985.223.444.106 1.375.427 1.822.592.262.097.574.246.838.358.254.108.523.325.776.414.086.025.287.115.311.202.16.037 1.4.916 1.612 1.104.15.134.33.273.476.428.12.05.176.152.278.199l.015.07c.078.012.418.417.505.481.078.024.203.146.213.233.09.131.277.329.39.456.251.286.54.68.752.997 1.252 1.864 1.85 3.428 2.235 5.65.125.723.052.785.093 1.207a8.85 8.85 0 01.001 1.707c-.015.151-.001.292-.012.44-.117 1.64-.817 3.993-1.664 5.358-.11.177-.21.367-.318.548-.108.183-.238.35-.353.53-.359.564-1.307 1.622-1.474 2.02-.097.234-.161.483-.097.733.072.279.145.358.265.596.09.033.081.066.148.14.055.062.102.083.133.153.208.127.258.204.55.29.199.06.618.023.806-.047.53-.198 1.002-.816 1.361-1.267.195-.245.598-.776.744-1.027.096-.166.267-.363.348-.518.018-.08.173-.346.244-.377.053-.152.147-.282.236-.415.092-.138.62-1.238.694-1.404.717-1.595.9-2.709 1.217-4.376l.063-.646c.014-.21.049-.437.056-.637.05-1.228-.008-2.702-.21-3.898-.22-1.32-.788-3.015-1.383-4.204-.15-.3-.307-.634-.48-.92-.166-.279-.358-.587-.513-.868a.684.684 0 01-.21-.302c-.071-.028-.076-.068-.108-.14-.057-.152-.38-.511-.44-.605-.223-.35-.5-.606-.687-.859-.077-.104-.38-.396-.41-.455-.065-.03-.243-.206-.262-.273-.072-.015-.184-.136-.201-.212-.028-.011-.52-.472-.565-.522l-.3-.256c-.291-.263-.64-.517-.924-.764l-.654-.454c-.11-.021-.084-.023-.164-.082-.072-.052-.103-.029-.124-.106a.629.629 0 00-.168-.115c-.079-.04-.135-.08-.21-.121-.096-.052-.31-.201-.397-.225-.13-.035-.306-.165-.443-.229-.075-.035-.152-.07-.221-.112-.066-.04-.173-.062-.198-.134l-.091-.03-.064-.003c-.08-.07-.33-.151-.437-.215-.075-.044-.146-.058-.23-.098-.043-.02-.073-.03-.116-.048a1.918 1.918 0 01-.054-.024c-.067-.041-.021-.01-.058-.052-.288-.098-.588-.215-.878-.318-.52-.186-1.912-.586-2.441-.634-.099-.009-.18-.033-.27-.043-.108-.01-.183.009-.296-.02-.303-.077-.752-.094-1.076-.126-.383-.036-.803-.019-1.198-.042-.37-.02-1.343.039-1.774.074-.367.031-.694.09-1.06.15-.556.091-.977.214-1.498.35-.17.045-.331.072-.502.125-.157.05-.311.105-.47.15-.248.07-1.475.567-1.745.7s-.553.274-.817.416c-.533.288-1.01.629-1.521.927l-.001.001zM36.607 8.193c-.035-.142-.353-.348-.468-.453a4.506 4.506 0 00-.245-.208c-.078-.063-.18-.182-.272-.197.063.11.376.327.487.435.067.064.446.403.498.423z"/><path fill-rule="evenodd" clip-rule="evenodd" d="M30.138 8.083c-.068-.094-.818-.418-.96-.44.037.043-.009.011.058.053l.054.024c.044.017.073.028.116.048.085.04.156.053.231.098.107.063.356.144.437.214l.063.003zm.952.505c-.026-.073-.315-.21-.402-.255-.127-.066-.33-.19-.459-.22.024.073.131.094.197.135.07.042.146.076.222.112.137.064.313.193.442.228zM43.242 12.116c-.03-.126-.129-.268-.202-.391a3.094 3.094 0 01-.202-.38l-.058-.02c.03.129.142.285.212.401.039.064.078.132.115.198.052.09.056.144.135.191zM12.813 34.35c.132-.048.36-.366.375-.51-.078.025-.052.065-.098.131a3.812 3.812 0 01-.086.12c-.061.082-.168.16-.191.26zM34.972 6.848c-.054-.097-.177-.157-.27-.223-.096-.067-.204-.173-.317-.196.045.079.197.16.275.22.056.044.094.06.145.098.07.052.08.077.167.1zM9.122 8.44c.096-.034.413-.32.464-.42-.1.035-.165.121-.243.19-.08.072-.18.136-.22.23zM9.236 42.231c.085-.068.076-.123.155-.277.044-.087.112-.182.133-.275-.101.058-.274.423-.288.552zM9.339 13.615c.08-.045.273-.323.3-.417-.065.015-.052.029-.093.092-.027.041-.05.058-.076.092a.84.84 0 00-.131.233zm2.455-7.336c.092-.023.141-.072.226-.123.047-.029.053-.041.097-.066.08-.045.063-.011.102-.086-.112.015-.137.065-.23.12-.07.041-.159.093-.195.155zm25.198 25.545c.087-.04.215-.279.243-.377-.07.031-.226.297-.243.377zM13.234 9.634c.086-.023.357-.203.398-.281-.088.026-.343.196-.398.28zM39.515 11.56c-.019-.083-.19-.325-.264-.367.021.085.182.335.264.367zM18.939 32.2c-.023-.09-.06-.129-.106-.2-.017-.025-.037-.063-.053-.09-.037-.062-.039-.06-.093-.096.014.07.066.14.107.203.06.09.055.122.145.183zM37.338 8.925c-.035-.095-.203-.262-.292-.304.013.081.212.267.292.304zm-4.156 25.468c-.03-.07-.078-.09-.133-.152-.066-.075-.059-.108-.148-.14.05.123.152.255.281.292zM17.15.77l.363-.085c.061-.023.021-.003.063-.037-.101-.005-.377.039-.427.122zM32.365 13.144l-.015-.07c-.101-.046-.157-.15-.278-.2.056.116.207.209.293.27zM27.313 17.326a.647.647 0 00-.297-.256c.03.078.223.225.297.256zM35.06 11.718c-.042-.126-.145-.155-.205-.266l-.057-.007c.02.067.197.243.262.273zM36.07 41.156a.542.542 0 00-.224-.269c.03.098.134.23.223.269zM36.916 14.079c-.004-.07-.15-.28-.211-.303a.688.688 0 00.21.303zM29.985 11.343c-.025-.087-.226-.176-.312-.201.028.069.238.168.312.201zm2.169-2.106c-.047-.075.01-.015-.063-.062-.02-.013-.038-.02-.063-.04-.07-.054-.068-.064-.162-.086.022.077.052.054.124.107.08.058.054.06.164.081zM33.084 13.858c-.01-.087-.136-.21-.213-.232a.608.608 0 00.212.232zM26.723 32.665c.08-.041.145-.163.178-.255-.086.033-.154.165-.178.255zM34.798 11.445c-.016-.08-.12-.175-.2-.212.016.076.128.197.2.212zM35.33 40.394c-.012-.076-.133-.153-.206-.184a.37.37 0 00.207.184zM4.884 8.79a.51.51 0 00.18-.226c-.081.033-.159.146-.18.226zM14.627 12.219a.392.392 0 00.225-.166.403.403 0 00-.226.165zm27.485-1.975a.37.37 0 00-.16-.226.427.427 0 00.16.226zm-5.208-1.749a.353.353 0 00-.183-.185c.03.08.101.153.184.185zM4.864 37.223c-.023-.082-.05-.123-.122-.164.02.087.042.128.122.164zM10.402 7.313c.081-.023.115-.052.164-.123a.192.192 0 00-.164.123zM33.817 39.357l-.026-.055-.156-.052c.045.072.098.086.182.107zm2.888-25.58c-.008-.08-.038-.117-.107-.14.031.072.036.113.107.14zM6.602 34.745c-.007-.082.004-.064-.064-.1.008.077-.001.06.064.1zm27.28-28.657c-.04-.068-.027-.05-.097-.068.027.074.023.056.097.068z"/></symbol><symbol viewBox="0 0 72 58" id="icon--icon_6" xmlns="http://www.w3.org/2000/svg"><path fill-rule="evenodd" clip-rule="evenodd" d="M12.054 47.445c-.1-.063-.174-.016-.35-.031a.88.88 0 01-.313-.094c-.183-.095-.255-.223-.386-.352.013.15.067.31.114.45s.099.364.148.466c.193-.045.413-.227.588-.333.08-.05.128-.068.199-.106zm-4.948-13.25c.093-.117.01-.315.209-.595.121-.171.13-.068.054-.164a2.47 2.47 0 00-.438.177c.012.14.048.208.082.312.033.1.041.208.093.27zM20.03 45.348l8.569-8.713.315-.056a15.11 15.11 0 01-.984-5.357c0-8.52 7.183-15.663 16.85-17.576-1.464-2.72-3.762-4.956-6.37-6.602-4.02-2.536-8.815-3.741-13.543-3.741-4.729 0-9.524 1.205-13.543 3.741-3.32 2.096-6.139 5.149-7.375 8.936a13.21 13.21 0 00-.655 4.105c0 7.685 6.466 13.265 13.286 15.49l2.39.784-.37 8.282c-.035.485-.012.937.342 1.145.236.138.588.063 1.087-.438zm25.843 3.643v.001l8.577 8.723s1.093.535 2.115.14c1.023-.397 1-1.771 1-1.771l-.377-7.776C65.81 45.854 72 39.132 72 31.222c0-9.985-9.865-18.08-22.035-18.08-.583 0-1.16.018-1.732.055C44.752 5.497 35.604 0 24.866 0 11.132 0 0 8.992 0 20.085c0 8.434 6.438 15.654 15.562 18.63l-.3 6.695c-.085 1.905.947 3.096 2.245 3.599 1.298.503 3.341.212 4.87-1.343l7.83-7.962.262-.049c3.083 4.789 8.71 8.304 15.404 9.336zm-33.11-36.112h21.07a1.43 1.43 0 011.423 1.427 1.43 1.43 0 01-1.424 1.427h-21.07a1.43 1.43 0 01-1.423-1.427c0-.785.64-1.427 1.424-1.427zm0 6.524h10.924a1.43 1.43 0 011.424 1.427 1.43 1.43 0 01-1.424 1.427H12.763a1.43 1.43 0 01-1.424-1.427c0-.785.64-1.427 1.424-1.427zm29.485 8.324a2.584 2.584 0 012.58 2.587 2.584 2.584 0 01-2.58 2.587 2.584 2.584 0 01-2.58-2.587 2.584 2.584 0 012.58-2.587zm6.973 0a2.584 2.584 0 012.58 2.587 2.583 2.583 0 01-2.58 2.587 2.584 2.584 0 01-2.58-2.587 2.584 2.584 0 012.58-2.587zm6.88 0a2.584 2.584 0 012.58 2.587 2.584 2.584 0 01-2.58 2.587 2.584 2.584 0 01-2.58-2.587 2.584 2.584 0 012.58-2.587z"/></symbol><symbol viewBox="0 0 63 58" id="icon--icon_7" xmlns="http://www.w3.org/2000/svg"><path fill-rule="evenodd" clip-rule="evenodd" d="M40.008 53.214c-.036-.188-.519-1.47-.62-1.77-.168-.499-.33-1.22-.803-1.57-.658-.487-1.218-.22-1.928-.101l-2 .39 2.77-4.74a.222.222 0 01.018-.023c.908.708 1.372 1.14 2.444 1.667 1.807.89 2.815.956 3.08 1.079l-2.962 5.068zM60.174 3.37l.082.266c0 .084-.005.18-.005.267V40.68h-.003c0 .016.002.032.003.045v.153a.23.23 0 01-.077.071c-.052.03-.002-.03-.047.069-.048.108-.049.173-.174.285-.329.294-1.111.18-1.674.18h-2.513c.927-2.293 1.156-4.252.712-6.642-.158-.854-.528-1.592-.52-2.115.053-3.449.002-6.94.002-10.395v-7.768c0-1.361.276-2.68-.697-3.235-.745-.425-1.603.155-2.832-1.133-.228-.239-.37-.504-.499-.803-.196-.459-.152-.64-.193-1.105-.054-.624-.654-1.396-1.347-1.263-.523-.146-3.878-.076-4.678-.076H14.862c-1.296 0-3.31-.356-3.534 1.204-.112.777-.03 1.105-.526 1.804-1.105 1.556-2.389.852-3.218 1.514-.627.501-.488 1.13-.492 1.837-.04 5.41-.001 10.955-.001 16.372 0 .664-.063 1.692.01 2.313.07.61.602 1.089 1.21 1.168.782.103 1.128.04 1.82.53.5.353.848.814 1.02 1.395.355.442-.204 1.525.926 2.096.44.222.905.15 1.393.15h20.26c-.109.275.172 1.87.254 2.224.136.583.377 1.377.634 1.927H4.346c-.639 0-1.226.155-1.47-.571V3.407c.204-.67.603-.571 1.2-.57 18.496.031 37.021-.001 55.518-.001a.707.707 0 01.491.355c.068.142.021.14.089.178zm2.784 37.656h.003v-.19l-.003-37.58c.092-.236.004-.245 0-.47C62.012-.35 59.611.019 57.196.019H5.467c-1.274 0-2.631-.17-3.765.52-.826.502-1.71 1.651-1.61 2.64-.145.231-.077 1.938-.077 2.323v35.562c.166.721.163 1.038.61 1.684.32.46.76.852 1.252 1.128.607.34 1.243.423 1.928.424H34.81c-.203.2-.816 1.317-1.004 1.64-.318.546-.647 1.097-.956 1.647a118.042 118.042 0 01-1.929 3.278c-.389.641-.738 1.152-.352 1.914.366.722 1.092.81 1.822.675s1.47-.28 2.196-.425c.356-.072 2.006-.356 2.195-.429.175.68 1.1 3.108 1.406 4.022.258.77.474 1.22 1.361 1.365.328.054.78-.089 1.032-.313.487-.432 2.13-3.488 2.588-4.229l2.003-3.434c.188.125 1.785 2.976 2.056 3.42.686 1.116 1.344 2.297 2.005 3.432.136.233.347.629.555.786.262.197.681.387 1.012.344.893-.116 1.142-.55 1.403-1.324.122-.359 1.366-3.823 1.397-4.07.611.164 1.366.266 2 .391.68.134 1.366.253 2.043.388.77.153 1.24.31 1.896-.222.507-.41.572-1.227.245-1.773-.878-1.47-1.758-3.041-2.65-4.51-.282-.464-.6-1.124-.905-1.545l-.596-1.02c.905-.008 1.795-.008 2.684-.008.878 0 1.644.069 2.424-.24.885-.349 1.687-1.068 2.017-1.935.102-.268.31-.82.198-1.1zm-37.541-27.11c-1.262.256-1.535 1.81-.48 2.529.492.336 1.327.25 1.91.25h8.66c.605 0 1.553.057 2.115-.05 1.198-.227 1.565-1.814.51-2.533-.516-.35-1.317-.234-1.928-.234h-8.66c-.55 0-1.646-.06-2.127.038zm17.05 23.264c-.09-.492.246-1.486.724-1.952.494-.48 1.1-.862 1.826-.867 1.616-.01 2.71.945 2.896 2.52.07.587-.246 1.485-.72 1.946-.498.486-1.098.85-1.825.868-.72.017-1.485-.18-2.003-.697-.592-.591-.752-1.013-.899-1.818zm2.165-5.597c-1.632.213-2.548.696-3.663 1.876-.445.47-.8 1.13-1.027 1.73-.293.774-.362 1.553-.293 2.367.25 2.957 3.113 5.308 6.12 4.931 1.699-.212 2.555-.79 3.647-1.89.428-.432.813-1.166 1.026-1.73.293-.774.362-1.553.293-2.367-.25-2.957-3.096-5.308-6.104-4.916zm11.096 18.543c-.235 0-1.665-.294-1.994-.359-.828-.163-1.942-.444-2.409.782l-.84 2.409c-.02.06-.01.048-.039.114l-.053.1-1.934-3.274c-.169-.31-.983-1.548-1.005-1.79.738-.001 2.382-.716 3.067-1.053.583-.287 2.079-1.233 2.462-1.726.05.306 2.678 4.524 2.745 4.797zM16.37 20.808c-1.223.235-1.507 1.897-.372 2.575.568.34 3.382.205 4.2.205h24.28c.603 0 1.625.06 2.18-.06 1.231-.267 1.519-1.89.416-2.574-.45-.278-1.466-.184-2.017-.184H18.573c-.584 0-1.68-.063-2.204.038zm20.336 14.316c.122-.097.1-.177.15-.347l.369-1.045a8.643 8.643 0 012.43-3.241c.686-.572 1.538-1.054 2.381-1.387.466-.184.97-.33 1.465-.424.356-.068.92-.145 1.286-.142.208.002.316-.035.502-.038.294.084 1.232-.043 2.808.51 6.125 2.145 7.875 10.158 2.65 14.535-4.35 3.644-11.026 2.02-13.333-2.797-1.433-2.993-.641-4.941-.707-5.623zm15.967-6.7c-1.821-1.356-3.25-2.168-5.588-2.57-2.595-.445-5.231.072-7.527 1.304-1.139.61-.34.466-2.62.466H18.535c-.58 0-1.474-.052-2.018.03-1.182.182-1.67 1.561-.798 2.4.527.507.979.382 1.656.387.682.005 1.366 0 2.049 0h16.392c-.032.115-.822 1.245-1.077 1.871-.2.49-.73 1.726-.74 2.203H13.972c-.444-1.85-2.144-3.518-4.02-3.96V13.764c1.756-.41 3.324-1.875 3.91-3.612l.15-.386h35.065c.002.293.396 1.127.558 1.393.469.77.755 1.054 1.423 1.606.185.153.393.283.598.402.444.26.953.483 1.442.597v15.04l-.425-.381z"/></symbol><symbol viewBox="0 0 54 62" id="icon--icon_bonus_1" xmlns="http://www.w3.org/2000/svg"><g clip-path="url(#mclip0)"><path fill-rule="evenodd" clip-rule="evenodd" d="M23.516 16.64c-.736-2.524-2.138-6.571-3.99-8.4a3.22 3.22 0 00-2.411-.914 3.03 3.03 0 00-2.042.898c-.062.064-.12.132-.177.2-.607.758-.856 1.532-.847 2.244.01.807.35 1.562.874 2.136 1.35 1.477 5.86 3.01 8.592 3.836h.001zm1.807-2.837c1.191-3.772 3.212-8.991 5.899-11.648A7.476 7.476 0 0136.835.008c1.798.086 3.555.813 4.862 2.163a7.2 7.2 0 01.436.495c1.328 1.657 1.873 3.418 1.852 5.083-.025 1.922-.806 3.689-2.01 5.007-2.086 2.284-7.918 4.456-12.006 5.765H54v6.599h-4.683v-2.052H4.685v2.052H0v-6.6h20.87c-2.888-.978-6.456-2.42-7.848-3.945a5.881 5.881 0 01-1.553-3.876c-.017-1.288.402-2.647 1.424-3.922a5.44 5.44 0 01.34-.385 5.59 5.59 0 013.763-1.677H17a5.784 5.784 0 014.341 1.661c1.728 1.71 3.08 4.821 3.983 7.427h-.001zm7.712-9.785c-2.846 2.813-4.923 9.257-5.862 12.638 3.634-1.067 10.818-3.394 12.898-5.67.798-.874 1.315-2.029 1.331-3.268.014-1.09-.361-2.265-1.275-3.404a4.42 4.42 0 00-.274-.311c-.836-.864-1.967-1.33-3.13-1.385a4.916 4.916 0 00-3.688 1.4zM54 47.303V62H0V47.303h4.683v10.15h44.634v-10.15H54z"/><path d="M.386 27.135h7.805c1.565 0 2.759.404 3.58 1.213.821.809 1.232 1.935 1.232 3.38 0 .825-.223 1.582-.668 2.27a3.802 3.802 0 01-1.842 1.497v.051c1.06.293 1.892.843 2.498 1.651.606.81.91 1.798.91 2.967 0 1.566-.487 2.795-1.462 3.69-.974.894-2.244 1.342-3.81 1.342H.387V27.135zm4.512 7.122h1.877c.64 0 1.14-.138 1.5-.414.357-.275.545-.705.56-1.29 0-.584-.184-1.031-.548-1.341-.369-.31-.871-.465-1.512-.465H4.898v3.51zm0 7.327H6.97c.875 0 1.497-.168 1.865-.503.368-.335.553-.804.553-1.406 0-.568-.18-1.011-.542-1.329-.36-.318-.985-.477-1.876-.477H4.898v3.715zm9.486 3.612l5.732-18.06h5.48l5.732 18.06H26.49l-.825-3.122h-5.617l-.825 3.122h-4.84zm8.472-13.752L21.1 38.101h3.515l-1.758-6.657zm9.761 13.752v-18.06h4.513v13.726h3.868V27.134h4.512V40.86h3.868V27.136h4.512v18.061H32.617zm-21.249 9.29V49.36h-1.01l.488-.835h1.433v5.96h-.91zm5.418 0v-5.96h2.957v.85h-2.047v1.55h.573c.343 0 .632.042.868.124.236.082.44.2.615.353.168.16.303.352.404.58.101.226.152.47.152.732a1.96 1.96 0 01-.198.83 1.537 1.537 0 01-.534.617 1.66 1.66 0 01-.544.247c-.2.051-.448.077-.745.077h-1.5zm.91-2.708v1.856h.54c.392 0 .684-.08.875-.238.191-.16.287-.383.287-.673 0-.29-.099-.518-.295-.685-.197-.168-.48-.254-.851-.26h-.556zm6.487-3.372c.877 0 1.607.298 2.191.894.584.596.876 1.333.876 2.213-.006.88-.3 1.616-.88 2.206-.582.59-1.31.885-2.187.885-.881 0-1.613-.295-2.194-.885-.582-.59-.872-1.325-.872-2.206 0-.88.29-1.616.872-2.21.581-.593 1.313-.892 2.194-.898zm0 5.347c.619 0 1.127-.208 1.526-.626.398-.417.598-.955.598-1.613 0-.659-.2-1.199-.598-1.622-.4-.423-.907-.634-1.526-.634-.623 0-1.133.211-1.529.634-.396.423-.594.963-.594 1.622 0 .658.198 1.196.594 1.613.396.418.906.626 1.53.626zm5.056-5.228v2.333h2.51v-2.333h.91v5.96h-.91V51.71h-2.51v2.776h-.91v-5.96h.91zm4.145 0h1.098l1.528 3.058 1.368-3.058h.943l-2.664 5.96h-.944l.794-1.778-2.123-4.182zm10.052.323v1.073a2.443 2.443 0 00-.737-.493 2.16 2.16 0 00-.856-.17c-.635 0-1.146.213-1.533.642-.388.429-.582.972-.582 1.63 0 .642.197 1.173.59 1.593.393.42.902.63 1.525.63a2.1 2.1 0 00.826-.17c.27-.114.526-.287.767-.52v1.09a2.723 2.723 0 01-.796.35 3.373 3.373 0 01-.822.102c-.427 0-.814-.071-1.163-.213a2.82 2.82 0 01-.927-.613 3.007 3.007 0 01-.703-.984 2.98 2.98 0 01-.24-1.264c0-.471.082-.906.244-1.303.163-.397.396-.74.7-1.03a2.77 2.77 0 01.91-.588c.342-.136.75-.204 1.221-.204.315 0 .6.036.855.107.256.07.496.183.72.336z"/></g><defs><clipPath id="mclip0"><path d="M0 0h54v62H0z"/></clipPath></defs></symbol><symbol viewBox="0 0 55 62" id="icon--icon_bonus_2" xmlns="http://www.w3.org/2000/svg"><g clip-path="url(#nclip0)"><path fill-rule="evenodd" clip-rule="evenodd" d="M23.951 16.64c-.75-2.524-2.177-6.571-4.063-8.4a3.32 3.32 0 00-2.456-.914c-.774.035-1.527.338-2.08.898a3.057 3.057 0 00-.18.2c-.618.758-.872 1.532-.863 2.244.01.807.357 1.562.89 2.136 1.375 1.477 5.969 3.01 8.752 3.836zm1.84-2.837c1.214-3.772 3.273-8.991 6.009-11.648A7.708 7.708 0 0137.517.008c1.832.086 3.62.813 4.952 2.163.154.156.302.321.444.495 1.353 1.657 1.908 3.418 1.886 5.083-.025 1.922-.82 3.689-2.047 5.007-2.125 2.284-8.064 4.456-12.228 5.765H55v6.599h-4.77v-2.052H4.771v2.052H.002v-6.6h21.255c-2.942-.978-6.576-2.42-7.994-3.945-.948-1.019-1.562-2.386-1.582-3.876-.017-1.288.41-2.647 1.451-3.922.11-.135.226-.263.345-.385 1.033-1.047 2.418-1.611 3.834-1.677h.005a5.963 5.963 0 014.421 1.661c1.76 1.71 3.138 4.821 4.057 7.427h-.002zm7.855-9.785c-2.898 2.813-5.014 9.257-5.97 12.638 3.702-1.067 11.018-3.394 13.137-5.67.813-.874 1.34-2.029 1.356-3.268.014-1.09-.368-2.265-1.299-3.404a4.413 4.413 0 00-.279-.311c-.852-.864-2.004-1.33-3.188-1.385a5.068 5.068 0 00-3.412 1.095 4.827 4.827 0 00-.345.304zm21.355 43.285V62H0V47.303h4.77v10.15h45.46v-10.15H55z"/><path d="M.394 27.135h7.949c1.594 0 2.81.404 3.646 1.213.836.809 1.255 1.935 1.255 3.38a4.04 4.04 0 01-.68 2.27 3.859 3.859 0 01-1.876 1.497v.051c1.079.293 1.927.843 2.544 1.651.617.81.927 1.798.927 2.967 0 1.566-.497 2.795-1.49 3.69-.992.894-2.285 1.342-3.88 1.342H.394V27.135zm4.595 7.122H6.9c.653 0 1.161-.138 1.528-.414.364-.275.555-.705.57-1.29 0-.584-.187-1.031-.558-1.341-.375-.31-.887-.465-1.54-.465H4.99v3.51zm0 7.327H7.1c.892 0 1.525-.168 1.9-.503.375-.335.563-.804.563-1.406 0-.568-.184-1.011-.552-1.329-.367-.318-1.004-.477-1.91-.477H4.99v3.715zm9.661 3.612l5.84-18.06h5.58l5.839 18.06H26.98l-.84-3.122h-5.72l-.84 3.122h-4.93zm8.63-13.752l-1.79 6.657h3.58l-1.79-6.657zm9.942 13.752v-18.06h4.595v13.726h3.94V27.134h4.596V40.86h3.94V27.136h4.595v18.061H33.222zm-19.549 8.471v.818H9.639l2.094-2.503c.194-.233.343-.416.446-.55.103-.132.195-.259.274-.378.103-.153.176-.296.22-.43.042-.133.067-.27.073-.413a.998.998 0 00-.266-.694c-.178-.195-.418-.293-.721-.293-.286 0-.53.1-.734.298-.203.199-.31.462-.322.791h-.892c.012-.25.06-.485.146-.706a1.98 1.98 0 01.36-.596c.172-.2.375-.35.61-.451a2.05 2.05 0 01.823-.154c.595 0 1.061.176 1.399.528.337.352.506.78.506 1.286-.006.204-.04.404-.103.6a2.812 2.812 0 01-.326.652 7.218 7.218 0 01-.262.353c-.1.127-.299.367-.596.72l-.961 1.123h2.265zm3.424.819v-5.96h3.012v.85h-2.085v1.55h.583c.35 0 .644.042.884.124.24.082.449.2.626.353a1.777 1.777 0 01.567 1.312 1.93 1.93 0 01-.201.83c-.129.258-.31.464-.545.617-.166.114-.35.196-.554.247a3.163 3.163 0 01-.76.077h-1.527zm.927-2.708v1.856h.549c.4 0 .697-.08.892-.238.195-.16.291-.383.291-.673 0-.29-.1-.518-.3-.685-.2-.168-.489-.254-.866-.26h-.567zm6.607-3.372c.893 0 1.637.298 2.232.894.595.596.892 1.333.892 2.213-.006.88-.305 1.616-.897 2.206-.592.59-1.334.885-2.227.885-.898 0-1.643-.295-2.235-.885-.592-.59-.888-1.325-.888-2.206 0-.88.296-1.616.888-2.21.592-.593 1.337-.892 2.235-.898zm0 5.347c.63 0 1.147-.208 1.554-.626.406-.417.609-.955.609-1.613 0-.659-.203-1.199-.61-1.622-.406-.423-.923-.634-1.553-.634-.634 0-1.154.211-1.557.634-.404.423-.605.963-.605 1.622 0 .658.201 1.196.605 1.613.403.418.922.626 1.557.626zm5.149-5.228v2.333h2.558v-2.333h.927v5.96h-.927V51.71H29.78v2.776h-.927v-5.96h.927zm4.222 0h1.119l1.556 3.058 1.393-3.058h.961l-2.714 5.96h-.962l.81-1.778-2.163-4.182zm10.238.323v1.073a2.49 2.49 0 00-.75-.493 2.234 2.234 0 00-.872-.17c-.646 0-1.167.213-1.562.642-.395.429-.592.972-.592 1.63 0 .642.2 1.173.601 1.593.4.42.918.63 1.553.63.286 0 .567-.056.841-.17.275-.114.535-.287.781-.52v1.09a2.78 2.78 0 01-.81.35 3.495 3.495 0 01-.837.102c-.435 0-.83-.071-1.185-.213a2.876 2.876 0 01-.944-.613 3.008 3.008 0 01-.716-.984 2.934 2.934 0 01-.245-1.264c0-.471.083-.906.25-1.303a2.957 2.957 0 011.638-1.618c.35-.136.764-.204 1.244-.204.32 0 .611.036.871.107.26.07.505.183.734.336z"/></g><defs><clipPath id="nclip0"><path d="M0 0h55v62H0z"/></clipPath></defs></symbol><symbol viewBox="0 0 55 62" id="icon--icon_bonus_3" xmlns="http://www.w3.org/2000/svg"><g clip-path="url(#oclip0)"><path fill-rule="evenodd" clip-rule="evenodd" d="M23.951 16.64c-.75-2.524-2.178-6.57-4.063-8.4a3.324 3.324 0 00-2.456-.915c-.775.035-1.527.338-2.08.899a2.882 2.882 0 00-.18.2c-.619.757-.872 1.531-.863 2.244.01.807.357 1.562.89 2.135 1.375 1.477 5.969 3.01 8.752 3.836v.002zm1.84-2.837c1.214-3.77 3.273-8.991 6.008-11.647a7.53 7.53 0 01.53-.469A7.71 7.71 0 0137.517.01c1.833.085 3.621.813 4.952 2.163.154.156.302.32.445.495 1.353 1.657 1.908 3.418 1.886 5.083-.025 1.922-.82 3.689-2.048 5.007-2.124 2.284-8.064 4.455-12.228 5.764h24.478v6.6h-4.77V23.07H4.77v2.051H0v-6.599h21.253c-2.94-.979-6.575-2.421-7.993-3.945-.947-1.02-1.562-2.386-1.581-3.876-.017-1.288.41-2.647 1.45-3.922a5.32 5.32 0 01.346-.385c1.032-1.047 2.417-1.612 3.834-1.678h.005a5.957 5.957 0 014.421 1.662c1.76 1.71 3.137 4.821 4.056 7.426h-.001zm7.854-9.785c-2.898 2.814-5.014 9.258-5.97 12.639 3.701-1.066 11.018-3.394 13.137-5.67.813-.874 1.34-2.029 1.356-3.268.014-1.089-.368-2.265-1.298-3.404a4.205 4.205 0 00-.28-.31c-.85-.864-2.004-1.33-3.188-1.386a5.067 5.067 0 00-3.412 1.095 4.997 4.997 0 00-.345.304zM55 47.304v14.697H0V47.304h4.77v10.15h45.46v-10.15H55z"/><path d="M.394 27.136h7.949c1.594 0 2.81.404 3.646 1.212.836.808 1.254 1.936 1.254 3.38a4.04 4.04 0 01-.68 2.27 3.86 3.86 0 01-1.876 1.497v.051c1.08.293 1.928.844 2.545 1.652.617.808.926 1.797.926 2.966 0 1.566-.497 2.796-1.49 3.69-.992.895-2.286 1.342-3.88 1.342H.394V27.135zm4.596 7.12H6.9c.653 0 1.16-.137 1.528-.412.364-.276.555-.705.57-1.29 0-.585-.187-1.032-.558-1.341-.375-.31-.887-.465-1.54-.465H4.99v3.509zm0 7.328H7.1c.89 0 1.524-.168 1.9-.503.375-.336.562-.804.562-1.406 0-.568-.183-1.01-.55-1.329-.368-.318-1.005-.477-1.912-.477H4.99v3.716-.001zm9.66 3.612l5.839-18.06h5.58l5.84 18.06h-4.93l-.84-3.122h-5.72l-.841 3.122H14.65zm8.63-13.752l-1.79 6.657h3.579l-1.79-6.657zm9.941 13.752v-18.06h4.597v13.726h3.939V27.135h4.596v13.727h3.94V27.135h4.595v18.061H33.222zm-22.389 4.836H9.94c.011-.175.042-.343.09-.501.05-.16.12-.304.21-.435a1.48 1.48 0 01.614-.506c.255-.117.543-.178.863-.184.543 0 .976.155 1.3.464.323.31.484.711.484 1.205-.005.26-.061.5-.167.72-.106.218-.27.4-.494.548.235.125.42.302.554.533.134.23.204.507.21.83 0 .545-.168.998-.502 1.357-.335.361-.82.541-1.454.541-.447 0-.817-.095-1.112-.284a1.576 1.576 0 01-.63-.78 2.03 2.03 0 01-.146-.664h.892a.984.984 0 00.305.656c.18.17.416.255.708.255.303 0 .55-.097.742-.294.192-.195.287-.46.287-.796a.944.944 0 00-.275-.694c-.183-.184-.435-.276-.755-.276h-.18v-.783h.18c.31.005.544-.06.704-.196.16-.137.24-.34.24-.613 0-.278-.082-.5-.245-.665-.163-.164-.382-.246-.656-.246a.886.886 0 00-.618.217.808.808 0 00-.258.591h.001zm6.265 4.454v-5.96h3.012v.851h-2.085v1.55h.584c.348 0 .643.041.883.123.24.082.45.2.627.354a1.785 1.785 0 01.566 1.312 1.923 1.923 0 01-.201.83c-.13.258-.31.463-.546.617-.166.113-.35.196-.553.247a3.19 3.19 0 01-.76.076h-1.527zm.927-2.708v1.856h.549c.4 0 .698-.08.892-.238.195-.16.292-.384.292-.673 0-.29-.1-.518-.3-.686-.2-.168-.49-.254-.867-.26h-.566zm6.607-3.372c.893 0 1.636.299 2.231.894.595.596.893 1.335.893 2.214-.006.88-.305 1.615-.897 2.206-.593.59-1.335.885-2.227.885-.898 0-1.643-.295-2.236-.885-.592-.59-.888-1.326-.888-2.206 0-.88.296-1.616.888-2.21.592-.593 1.337-.892 2.236-.898zm0 5.348c.63 0 1.148-.209 1.554-.627.406-.416.609-.955.609-1.613 0-.659-.203-1.2-.61-1.623-.405-.423-.923-.634-1.553-.634-.634 0-1.154.212-1.557.634-.403.423-.605.964-.605 1.623 0 .658.202 1.196.605 1.613.404.417.922.627 1.557.627zm5.149-5.229v2.333h2.558v-2.333h.927v5.96h-.927V51.71H29.78v2.777h-.927v-5.96h.927zm4.223 0h1.118l1.556 3.059 1.393-3.059h.961l-2.715 5.96h-.96l.81-1.778-2.163-4.182zm10.237.323v1.073a2.509 2.509 0 00-.75-.494 2.241 2.241 0 00-.872-.17c-.647 0-1.167.214-1.562.642-.395.429-.592.972-.592 1.63 0 .642.2 1.172.6 1.592.4.42.918.63 1.553.63.287 0 .567-.057.842-.17.274-.113.535-.286.78-.519v1.09a2.759 2.759 0 01-.811.349 3.51 3.51 0 01-.837.102 3.14 3.14 0 01-1.184-.213 2.885 2.885 0 01-.944-.613 3.021 3.021 0 01-.717-.984 2.934 2.934 0 01-.245-1.264c0-.47.083-.905.249-1.303a2.965 2.965 0 011.639-1.618c.35-.137.764-.205 1.244-.205.32 0 .61.035.871.107.26.07.505.183.733.336l.003.002z"/></g><defs><clipPath id="oclip0"><path d="M0 0h55v62H0z"/></clipPath></defs></symbol><symbol viewBox="0 0 55 62" id="icon--icon_bonus_4" xmlns="http://www.w3.org/2000/svg"><g clip-path="url(#pclip0)"><path fill-rule="evenodd" clip-rule="evenodd" d="M23.951 16.64c-.75-2.524-2.178-6.57-4.063-8.4a3.324 3.324 0 00-2.456-.915c-.775.035-1.527.338-2.08.899a2.882 2.882 0 00-.18.2c-.619.757-.872 1.531-.863 2.244.01.807.357 1.562.89 2.135 1.375 1.477 5.969 3.01 8.752 3.836v.002zm1.84-2.837c1.214-3.77 3.273-8.991 6.008-11.647a7.53 7.53 0 01.53-.469A7.71 7.71 0 0137.517.01c1.833.085 3.621.813 4.952 2.163.154.156.302.32.445.495 1.353 1.657 1.908 3.418 1.886 5.083-.025 1.922-.82 3.689-2.048 5.007-2.124 2.284-8.064 4.455-12.228 5.764h24.478v6.6h-4.77V23.07H4.77v2.051H0v-6.599h21.253c-2.94-.979-6.575-2.421-7.993-3.945-.947-1.02-1.562-2.386-1.581-3.876-.017-1.288.41-2.647 1.45-3.922a5.32 5.32 0 01.346-.385c1.032-1.047 2.417-1.612 3.834-1.678h.005a5.957 5.957 0 014.421 1.662c1.76 1.71 3.137 4.821 4.056 7.426h-.001zm7.854-9.785c-2.898 2.814-5.014 9.258-5.97 12.639 3.701-1.066 11.018-3.394 13.137-5.67.813-.874 1.34-2.029 1.356-3.268.014-1.089-.368-2.265-1.298-3.404a4.205 4.205 0 00-.28-.31c-.85-.864-2.004-1.33-3.188-1.386a5.067 5.067 0 00-3.412 1.095 4.997 4.997 0 00-.345.304zM55 47.304v14.697H0V47.304h4.77v10.15h45.46v-10.15H55z"/><path d="M.394 27.136h7.949c1.594 0 2.81.404 3.646 1.212.836.808 1.254 1.936 1.254 3.38a4.04 4.04 0 01-.68 2.27 3.86 3.86 0 01-1.876 1.497v.051c1.08.293 1.928.844 2.545 1.652.617.808.926 1.797.926 2.966 0 1.566-.497 2.796-1.49 3.69-.992.895-2.286 1.342-3.88 1.342H.394V27.135zm4.596 7.12H6.9c.653 0 1.16-.137 1.528-.412.364-.276.555-.705.57-1.29 0-.585-.187-1.032-.558-1.341-.375-.31-.887-.465-1.54-.465H4.99v3.509zm0 7.328H7.1c.89 0 1.524-.168 1.9-.503.375-.336.562-.804.562-1.406 0-.568-.183-1.01-.55-1.329-.368-.318-1.005-.477-1.912-.477H4.99v3.716-.001zm9.66 3.612l5.839-18.06h5.58l5.84 18.06h-4.93l-.84-3.122h-5.72l-.841 3.122H14.65zm8.63-13.752l-1.79 6.657h3.579l-1.79-6.657zm9.941 13.752v-18.06h4.597v13.726h3.939V27.135h4.596v13.727h3.94V27.135h4.595v18.061H33.222zm-19.857 2.903v4.717h.635v.817h-.635v.852h-.875v-.852H9.52l3.845-5.534h-.001zm-2.255 4.717h1.38v-2.017l-1.38 2.017zm5.988 1.67v-5.96h3.012v.851h-2.085v1.55h.584c.348 0 .643.041.883.123.24.082.45.2.627.354a1.785 1.785 0 01.566 1.312 1.923 1.923 0 01-.201.83c-.13.258-.31.463-.546.617-.166.113-.35.196-.553.247a3.19 3.19 0 01-.76.076h-1.527zm.927-2.708v1.856h.549c.4 0 .698-.08.892-.238.195-.16.292-.384.292-.673 0-.29-.1-.518-.3-.686-.2-.168-.49-.254-.867-.26h-.566zm6.607-3.372c.893 0 1.636.299 2.231.894.595.596.893 1.335.893 2.214-.006.88-.305 1.615-.897 2.206-.593.59-1.335.885-2.227.885-.898 0-1.643-.295-2.236-.885-.592-.59-.888-1.326-.888-2.206 0-.88.296-1.616.888-2.21.592-.593 1.337-.892 2.236-.898zm0 5.348c.63 0 1.148-.209 1.554-.627.406-.416.609-.955.609-1.613 0-.659-.203-1.2-.61-1.623-.405-.423-.923-.634-1.553-.634-.634 0-1.154.212-1.557.634-.403.423-.605.964-.605 1.623 0 .658.202 1.196.605 1.613.404.417.922.627 1.557.627zm5.149-5.229v2.333h2.558v-2.333h.927v5.96h-.927V51.71H29.78v2.777h-.927v-5.96h.927zm4.223 0h1.118l1.556 3.059 1.393-3.059h.961l-2.715 5.96h-.96l.81-1.778-2.163-4.182zm10.237.323v1.073a2.509 2.509 0 00-.75-.494 2.241 2.241 0 00-.872-.17c-.647 0-1.167.214-1.562.642-.395.429-.592.972-.592 1.63 0 .642.2 1.172.6 1.592.4.42.918.63 1.553.63.287 0 .567-.057.842-.17.274-.113.535-.286.78-.519v1.09a2.759 2.759 0 01-.811.349 3.51 3.51 0 01-.837.102 3.14 3.14 0 01-1.184-.213 2.885 2.885 0 01-.944-.613 3.021 3.021 0 01-.717-.984 2.934 2.934 0 01-.245-1.264c0-.47.083-.905.249-1.303a2.965 2.965 0 011.639-1.618c.35-.137.764-.205 1.244-.205.32 0 .61.035.871.107.26.07.505.183.733.336l.003.002z"/></g><defs><clipPath id="pclip0"><path d="M0 0h55v62H0z"/></clipPath></defs></symbol><symbol viewBox="0 0 28 26" id="icon--icon_star" xmlns="http://www.w3.org/2000/svg"><path d="M14 0l3.143 9.674h10.172l-8.23 5.979 3.144 9.673L14 19.347l-8.229 5.98 3.143-9.675L.685 9.675h10.172L14 0z"/></symbol><symbol viewBox="0 0 44 40" id="icon--inst" xmlns="http://www.w3.org/2000/svg"><path fill-rule="evenodd" clip-rule="evenodd" d="M22 .305c11.836 0 21.433 8.758 21.433 19.558S33.836 39.422 22 39.422C10.165 39.422.567 30.664.567 19.863.567 9.063 10.165.305 22 .305z"/><path d="M31.782 23.221c0 2.91-2.576 5.26-5.765 5.26h-7.205c-3.189 0-5.765-2.35-5.765-5.26v-6.575c0-2.91 2.576-5.26 5.765-5.26h7.205c3.19 0 5.765 2.35 5.765 5.26v6.575zM26.845 9.343h-8.922c-3.956 0-7.145 2.91-7.145 6.52v8.142c0 3.61 3.19 6.52 7.145 6.52h8.922c3.956 0 7.145-2.91 7.145-6.52v-8.143c0-3.61-3.19-6.52-7.145-6.52zm-4.14 13.99c-2.023 0-3.678-1.51-3.678-3.357 0-1.847 1.655-3.358 3.679-3.358s3.68 1.51 3.68 3.358c0 1.846-1.656 3.357-3.68 3.357zm0-8.926c-3.372 0-6.1 2.49-6.1 5.569 0 3.077 2.728 5.568 6.1 5.568 3.374 0 6.103-2.49 6.103-5.569 0-3.077-2.73-5.568-6.102-5.568zm7.237-.084c0 .784-.705 1.427-1.564 1.427-.858 0-1.563-.643-1.563-1.427 0-.783.705-1.427 1.563-1.427.859 0 1.564.644 1.564 1.427z"/><defs><radialGradient id="rpaint0_radial" cx="0" cy="0" r="1" gradientUnits="userSpaceOnUse" gradientTransform="matrix(23.08152 -26.11278 26.47287 23.39981 11.038 34.954)"><stop stop-color="#FFD879"/><stop offset=".11" stop-color="#FFD879"/><stop offset=".322" stop-color="#F29C69"/><stop offset=".471" stop-color="#E45F58"/><stop offset=".764" stop-color="#D22A9C"/><stop offset="1" stop-color="#7561D8"/></radialGradient></defs></symbol><symbol viewBox="0 0 44 40" id="icon--ok" xmlns="http://www.w3.org/2000/svg"><path fill-rule="evenodd" clip-rule="evenodd" d="M21.7.305c11.836 0 21.434 8.758 21.434 19.558S33.536 39.422 21.7 39.422C9.865 39.422.268 30.664.268 19.863.268 9.063 9.865.305 21.7.305z"/><path fill-rule="evenodd" clip-rule="evenodd" d="M21.486 12.869c1.165 0 2.116.867 2.116 1.93 0 1.064-.95 1.931-2.116 1.931-1.165 0-2.116-.867-2.116-1.93 0-1.064.951-1.931 2.116-1.931zm-2.974 16.928c-.767.7-1.993.672-2.76-.028-.766-.7-.736-1.819.031-2.518l3.097-2.77c-1.656-.392-2.637-1.064-3.25-1.455a.65.65 0 00-.184-.112c-.89-.56-1.135-1.651-.521-2.463.613-.81 1.809-1.035 2.698-.475.092.056.184.112.306.196.552.363 1.626 1.091 3.772 1.119 2.208.028 3.618-.867 4.047-1.147l.184-.112c.89-.532 2.116-.308 2.699.531.582.812.337 1.931-.583 2.463-.061.028-.061.028-.061.056-.46.308-1.625 1.035-3.434 1.455l3.158 2.742c.766.671.797 1.79.061 2.518-.736.7-1.962.728-2.76.056l-3.28-2.882-3.159 2.826h-.061zm2.974-20.426c3.281 0 5.949 2.434 5.949 5.428 0 2.994-2.668 5.429-5.949 5.429-3.28 0-5.948-2.435-5.948-5.429s2.667-5.428 5.948-5.428z"/></symbol><symbol viewBox="0 0 43 40" id="icon--vk" xmlns="http://www.w3.org/2000/svg"><path fill-rule="evenodd" clip-rule="evenodd" d="M21.433.305c11.836 0 21.433 8.758 21.433 19.558s-9.597 19.559-21.433 19.559S0 30.664 0 19.863C0 9.063 9.597.305 21.433.305z"/><path fill-rule="evenodd" clip-rule="evenodd" d="M8.34 14.267h3.801s.49 0 .767.336c.306.364 1.165 2.574 2.238 3.89 1.043 1.314 1.441 1.65 1.686 1.762.246.084.43.056.675-.476.245-.531.245-2.546.245-2.546l-.092-1.399s-.092-.615-.552-.867c-.49-.224-.643-.28-.92-.28-.275 0-.03-.42.338-.588.368-.196 1.073-.364 1.594-.392.522-.027 2.76-.027 3.067 0 .306.056 1.073.14 1.318.56.245.42.153.924.184 1.427.03.504-.061 3.274-.03 3.582.03.308.06.643.429.811.368.168.766-.168.766-.168s1.84-2.266 2.422-3.302c.583-1.035.798-1.678.951-1.93.153-.252.276-.448.797-.476.521-.028 4.354.028 4.63.028.276 0 .552.252.583.476.03.224-.062.531-.276 1.035-.245.504-2.422 3.302-2.944 3.917a6.668 6.668 0 00-.797 1.092s-.306.28-.061.755c.245.476.889.951 1.288 1.315.398.364 2.269 2.07 2.575 2.686.307.616.307.812.03 1.092-.244.28-1.686.364-1.686.364l-3.158-.056s-.766.056-1.44-.504c-.675-.588-2.638-2.379-2.638-2.379s-.306-.223-.705-.14c-.399.085-.552.532-.675 1.092-.122.56-.092 1.259-.092 1.259s-.092.28-.337.448c-.245.14-.95.224-.95.224s-2.637.083-4.017-.448c-1.38-.504-3.097-1.651-4.232-2.882-1.165-1.231-2.545-3.358-3.28-4.701-.767-1.343-1.84-3.274-1.963-3.582-.153-.28-.214-.503-.061-.755s.552-.308.552-.308l-.03.028z"/><defs><radialGradient id="tpaint0_radial" cx="0" cy="0" r="1" gradientUnits="userSpaceOnUse" gradientTransform="matrix(21.433 0 0 19.5586 21.433 48.028)"><stop stop-color="#3B5998"/><stop offset=".169" stop-color="#3B5998"/><stop offset="1" stop-color="#4D76A5"/></radialGradient></defs></symbol><symbol viewBox="0 0 43 40" id="icon--ytb" xmlns="http://www.w3.org/2000/svg"><path fill-rule="evenodd" clip-rule="evenodd" d="M21.567.305C33.403.305 43 9.063 43 19.863s-9.597 19.559-21.433 19.559C9.732 39.422.134 30.664.134 19.863.134 9.063 9.732.305 21.567.305z"/><path d="M16.355 12.142l15.484 7.387-15.484 7.387V12.142z"/><path d="M16.355 12.254l13.49 8.226 1.994-.951-14.289-6.8-1.195-.475z"/><defs><radialGradient id="upaint0_radial" cx="0" cy="0" r="1" gradientUnits="userSpaceOnUse" gradientTransform="matrix(21.433 0 0 19.5586 21.139 46.463)"><stop stop-color="#C2181E"/><stop offset=".11" stop-color="#FFD879"/><stop offset=".169" stop-color="#C2181E"/><stop offset=".769" stop-color="#DE2925"/><stop offset="1" stop-color="#DE2925"/></radialGradient></defs></symbol><symbol viewBox="0 0 103 21" id="logotype" xmlns="http://www.w3.org/2000/svg"><path d="M70.003 9.559c-.703.485-1.323 1.099-1.992 1.455-.268-.414-.754-.656-1.323-.656-.954 0-1.322.713-.97 1.498.183.1.468.157.77.171.05.2.083.4.083.585 0 1.284-1.071 2.34-1.925 2.34-.586 0-1.088-.485-1.088-1.74 0-1.399.987-3.31 2.51-3.31.403 0 .754.056 1.072.156.251.086.536-.071.57-.4-.503-.641-1.172-.841-2.01-.841-2.527 0-4.285 2.697-4.285 4.85 0 1.342.737 2.526 2.46 2.526 2.01 0 4.37-2.154 4.37-4.337 0-.043 0-.1-.017-.157.687-.37 1.34-1.041 1.775-1.355.234-.172.318-.557 0-.785z"/><path d="M70.002 10.344c.151-.114.251-.172.335-.172.15 0 .234.129.167.357l-1.372 5.479c.2.114.485.185.787.185.602 0 1.238-.242 1.406-.899l1.02-4.066c.37-.385 1.039-.742 1.49-.742.37 0 .603.243.453.842l-.703 2.84c-.419 1.669.468 2.025 1.305 2.025 1.122 0 2.244-.656 3.03-1.412.1-.1.151-.214.151-.314 0-.143-.1-.271-.284-.343-.419.357-1.139.714-1.758.714-.335 0-.553-.171-.452-.585l.82-3.282c.385-1.498-.251-2.097-1.138-2.097-.971 0-2.043.57-2.746 1.427l.168-.642c.15-.542-.201-.785-.804-.785-.703 0-1.305.3-1.875.685-.334.228-.217.67 0 .785z"/><path d="M83.645 13.867c.117-.271-.084-.585-.402-.542-.318.784-1.657 1.484-2.578 1.484-.586 0-1.021-.286-.904-1.028.017-.171.05-.356.084-.528 2.16-2.81 3.248-5.093 3.248-6.206 0-.742-.553-1.156-1.34-1.156-2.193 0-3.314 3.025-4.084 8.189-.218 1.498.67 2.112 1.841 2.112 1.54 0 3.549-1.028 4.135-2.326zM81.87 6.834c.184 0 .284.071.284.314 0 .485-.62 2.51-2.093 4.836.57-3.01 1.256-5.15 1.809-5.15z"/><path d="M84.482 7.034c-.1.556.385.998 1.038.998.652 0 1.205-.442 1.305-.998.067-.557-.418-1-1.071-1s-1.205.443-1.272 1zm-1.524 7.46c-.318 1.299.653 1.698 1.49 1.698 1.122 0 2.243-.656 3.03-1.412.1-.1.15-.214.15-.314 0-.143-.1-.271-.284-.342-.418.356-1.138.713-1.757.713-.436 0-.704-.257-.503-1.056l1.022-4.123c.133-.542-.201-.785-.804-.785-.703 0-1.306.3-1.875.685-.335.228-.218.67 0 .785.15-.114.251-.171.335-.171.15 0 .218.128.167.356l-.97 3.967z"/><path d="M87.579 10.344c.15-.114.251-.172.335-.172.15 0 .234.129.167.357l-1.373 5.479c.201.114.486.185.787.185.603 0 1.24-.242 1.406-.899l1.022-4.066c.368-.385 1.037-.742 1.49-.742.368 0 .602.243.452.842l-.704 2.84c-.418 1.669.47 2.025 1.306 2.025 1.122 0 2.243-.656 3.03-1.412.1-.1.15-.214.15-.314 0-.143-.1-.271-.284-.343-.418.357-1.138.714-1.758.714-.334 0-.552-.171-.452-.585l.82-3.282c.386-1.498-.25-2.097-1.138-2.097-.97 0-2.042.57-2.745 1.427l.167-.642c.151-.542-.2-.785-.803-.785-.703 0-1.306.3-1.875.685-.335.228-.218.67 0 .785z"/><path d="M101.288 10.187c0-.642-.385-1.37-1.909-1.37-2.762 0-4.201 2.968-4.201 4.822 0 1.755 1.272 2.554 2.846 2.554 1.623 0 3.565-.856 4.72-2.297.184-.257.017-.556-.418-.485-.72.813-2.26 1.541-3.465 1.541-.77 0-1.39-.285-1.557-1.056 3.231-1.526 3.984-2.497 3.984-3.71zm-1.791-.257c.284 0 .485.228.485.556 0 .928-1.105 1.926-2.728 2.797.05-.999.585-3.353 2.243-3.353z"/><path fill-rule="evenodd" clip-rule="evenodd" d="M66.017 4.256c-3.65 2.94-5.465 5.2-6.193 9.576-.275 1.651-.198 3.328-.51 4.972-.435-1.633-.499-3.38-.37-5.049.355-4.628 2.288-7.274 5.957-10.489a.907.907 0 011.14.018c.308.273.299.707-.022.97l-.002.002zm-9.148 7.464c-2.814 1.032-5.416-3.326 1.677-6.466 1.374-.608 1.88-.755 3.362-1.052-2.169 1.357-5.525 2.673-6.418 5.046-.173.459-.164 1.295.594 1.29l.004-.004c-.019-.002-.009-.002-.03 0 .384-.19.878-.08 1.101.248.224.328.094.748-.291.939z"/><path d="M54.11 7.897c.58 0 1.049-.488 1.049-1.09 0-.603-.47-1.092-1.049-1.092s-1.048.489-1.048 1.091c0 .603.47 1.091 1.048 1.091z"/><path fill-rule="evenodd" clip-rule="evenodd" d="M57.111 6.716s-.179.698.843 1.201c1.02.504 1.66.65 1.66.65l-1.19 1.608s-.666-.021-1.921-.47c-1.255-.448-1.304-.572-1.304-.572l1.913-2.417z"/><path fill-rule="evenodd" clip-rule="evenodd" d="M57.451 13.364l-.184-.45s.395-.33.443-.772c.048-.441-.215-.835.276-1.629.491-.795 1.106-1.619 2.162-2.299-.372.442-.47.522-.914 1.06-.447.537-1.5 1.833-1.273 2.578.227.745-.259 1.264-.51 1.513z"/><path fill-rule="evenodd" clip-rule="evenodd" d="M58.514 12.92l-.223-.278s.291-.45.295-.893c.004-.444-.37-.784.193-1.613.562-.83.66-.935 1.397-1.634-.294.5-.519.858-.705 1.168-.186.309-.812 1.207-.593 1.755.22.547-.138 1.23-.364 1.495z"/><path d="M65.424 17.043c-.605 2.06-4.102 3.751-7.32 3.751-3.124 0-5.623-.746-7.492-2.234-1.868-1.488-2.801-3.476-2.801-5.957 0-3.28 1.486-6.163 4.453-8.647 2.972-2.488 6.416-3.73 10.33-3.73 2.687 0 4.944.726 6.762 2.173 1.82 1.449 2.342 2.52 2.342 4.66 0 1.823-.756 2.39-1.803 3.242-1.335 1.088-1.167.428-.923.163.931-1.015 1.546-1.377 1.694-2.666.207-1.79-.77-3.303-2.309-4.517-1.538-1.213-3.445-1.823-5.716-1.823-3.488 0-6.487 1.077-9.01 3.235-2.516 2.158-3.776 4.722-3.776 7.698 0 2.158.763 3.908 2.286 5.24 1.528 1.334 3.515 1.999 5.962 1.999 2.461 0 4.898-.863 7.32-2.59v.003zM68.063 19.43h-.503a.274.274 0 01-.199-.091.195.195 0 01-.048-.09l-.032-.132h-.79l-.098.132a.456.456 0 01-.151.127.39.39 0 01-.184.053h-.503l1.437-1.886h.572l.499 1.887zm-.875-.687l-.072-.292a.348.348 0 01-.007-.086 1.265 1.265 0 01.025-.228h-.006a.812.812 0 01-.059.168.783.783 0 01-.082.146l-.216.292h.417zm3.606-1.201l-.468 1.887h-.643l.173-.693h-.733l-.174.694h-.642l.47-1.888h.642l-.173.692h.734l.172-.692h.642zm2.283 1.888h-.503a.275.275 0 01-.199-.091.194.194 0 01-.047-.09l-.033-.132h-.79l-.098.132a.454.454 0 01-.15.127.39.39 0 01-.185.053h-.503l1.438-1.886h.572l.498 1.887zm-.874-.687l-.072-.292a.347.347 0 01-.008-.086 1.3 1.3 0 01.025-.228h-.006a.8.8 0 01-.059.168.777.777 0 01-.081.146l-.217.292h.418zm1.108-1.201h1.757l-.124.502h-.557l-.345 1.386H73.4l.345-1.386h-.558l.124-.502zm1.674.945c.046-.185.137-.352.273-.5.136-.147.301-.263.497-.346a1.58 1.58 0 01.623-.125c.19 0 .355.031.497.094a.76.76 0 01.328.263.675.675 0 01.115.389.89.89 0 01-.03.226c-.046.184-.136.35-.271.498a1.41 1.41 0 01-.499.345 1.591 1.591 0 01-.625.125c-.188 0-.353-.03-.495-.094a.747.747 0 01-.327-.262.671.671 0 01-.114-.389c0-.072.01-.146.03-.223l-.002-.001zm.642 0a.512.512 0 00-.014.11.32.32 0 00.193.3.516.516 0 00.217.043.665.665 0 00.5-.22.544.544 0 00.138-.346.332.332 0 00-.05-.18.327.327 0 00-.142-.12.517.517 0 00-.217-.044.668.668 0 00-.5.222.556.556 0 00-.124.234v.001zm3.864.943h-.642l.344-1.385h-.4l-.224.697a1.13 1.13 0 01-.2.374.956.956 0 01-.308.249.809.809 0 01-.368.088c-.088 0-.173-.008-.259-.022a1.268 1.268 0 01-.224-.059l.137-.283a.247.247 0 01.083-.105.232.232 0 01.125-.03.904.904 0 01.143.013c.047 0 .093-.024.137-.073a.505.505 0 00.103-.185l.376-1.164h1.647l-.47 1.887v-.002zm2.951-1.888l-.47 1.887h-.636l.373-1.245a.651.651 0 01-.101.18l-.982.985a.315.315 0 01-.08.064.229.229 0 01-.093.016h-.52l.47-1.887h.634l-.312 1.011a.561.561 0 01.053-.08.754.754 0 01.07-.084l.778-.759a.324.324 0 01.097-.071.303.303 0 01.113-.018h.606zm2.167 0l-.47 1.887h-.642l.14-.569h-.146l-.42.471a.317.317 0 01-.095.078.263.263 0 01-.113.02h-.665l.598-.62a.355.355 0 01.111-.085.358.358 0 01.137-.021h.016a.466.466 0 01-.24-.148.366.366 0 01-.089-.244.47.47 0 01.014-.11.752.752 0 01.188-.336 1.067 1.067 0 01.764-.323h.913-.001zm-.771.514H83.6a.251.251 0 00-.14.04.176.176 0 00-.081.14c0 .033.013.06.04.08.026.02.06.03.104.03h.24l.073-.29zm3.571 1.374h-.642l.145-.587a4.403 4.403 0 01-.24.03c-.082.007-.154.01-.22.01a.98.98 0 01-.373-.063.496.496 0 01-.233-.182.505.505 0 01-.08-.287c0-.066.009-.135.028-.211l.151-.599h.644l-.16.599a.27.27 0 00-.009.065c0 .054.02.096.06.125.038.03.094.045.164.045.109 0 .239-.01.391-.028l.2-.806h.642l-.47 1.887.002.001zm2.95-1.888l-.47 1.887h-.636l.373-1.245a.651.651 0 01-.101.18l-.982.985a.315.315 0 01-.08.064.23.23 0 01-.092.016h-.52l.47-1.887h.633l-.312 1.011a.561.561 0 01.053-.08.754.754 0 01.07-.084l.778-.759a.324.324 0 01.097-.071.303.303 0 01.113-.018h.606zm-.026 1.888l.47-1.887h.642l-.47 1.887h-.642zm1.636-.972a.275.275 0 01.117.052.221.221 0 01.074.077l.395.843h-.563a.258.258 0 01-.132-.032.177.177 0 01-.078-.09l-.281-.707a.198.198 0 00-.108-.115 1.983 1.983 0 00-.083-.03.595.595 0 00.102-.036.23.23 0 00.068-.054l.627-.724a.288.288 0 01.097-.07c.04-.02.078-.03.111-.03h.636l-.724.783a.463.463 0 01-.115.08.414.414 0 01-.141.05v.003h-.002zm3.108.972h-.503a.275.275 0 01-.199-.091.195.195 0 01-.047-.09l-.032-.132h-.791l-.098.132a.454.454 0 01-.15.127.39.39 0 01-.184.053h-.504l1.438-1.886h.572l.498 1.887zm-.874-.687l-.072-.292a.347.347 0 01-.008-.086 1.3 1.3 0 01.026-.228h-.006a.8.8 0 01-.06.168.777.777 0 01-.08.146l-.218.292h.418zm3.606-1.201l-.469 1.887h-.643l.173-.693h-.733l-.174.694h-.642l.47-1.888h.642l-.173.692h.734l.173-.692h.642zm1.856 1.888h-.642l.146-.587a4.419 4.419 0 01-.24.03c-.082.007-.155.01-.221.01a.98.98 0 01-.372-.063.497.497 0 01-.234-.182.505.505 0 01-.08-.287c0-.066.01-.135.028-.211l.152-.599h.644l-.16.599a.27.27 0 00-.01.065c0 .054.02.096.06.125.039.03.094.045.165.045.108 0 .238-.01.39-.028l.2-.806h.643l-.47 1.887.001.001zm2.951-1.888l-.47 1.887h-.636l.373-1.245a.569.569 0 01-.101.18l-.982.985a.302.302 0 01-.081.064.225.225 0 01-.091.016h-.52l.47-1.887h.634l-.312 1.011a.529.529 0 01.053-.08.674.674 0 01.07-.084l.778-.759a.323.323 0 01.096-.071.304.304 0 01.113-.018h.606z"/><path d="M12.007 8.873l-1.805 7.257H.077l1.806-7.257h2.469L3.029 14.2h1.358l1.324-5.327h2.468L6.857 14.2h1.358l1.323-5.327h2.469zm.293 7.257l1.804-7.257h2.47l-1.805 7.257h-2.47zm6.29-3.739c.153.027.305.094.452.201.146.107.24.206.284.295l1.518 3.242H18.68a.986.986 0 01-.507-.123.687.687 0 01-.298-.347l-1.082-2.716a.736.736 0 00-.19-.289.845.845 0 00-.228-.152 4.203 4.203 0 00-.317-.115c.16-.043.292-.09.392-.14a.83.83 0 00.26-.206l2.411-2.786c.091-.103.214-.194.37-.268a.998.998 0 01.43-.112h2.446l-2.787 3.007c-.094.1-.241.204-.44.31-.2.107-.383.17-.547.191v.01l-.002-.002zm3.909.115a4.338 4.338 0 011.05-1.919 5.472 5.472 0 011.914-1.333 6.04 6.04 0 012.393-.48c.728 0 1.366.12 1.911.36.545.241.966.577 1.262 1.01.297.432.444.931.444 1.495 0 .284-.038.574-.112.867a4.33 4.33 0 01-1.046 1.916 5.425 5.425 0 01-1.918 1.328 6.126 6.126 0 01-2.404.48c-.725 0-1.36-.12-1.906-.362-.544-.24-.964-.578-1.258-1.01a2.593 2.593 0 01-.441-1.495c0-.277.037-.563.111-.857zm2.47 0a1.86 1.86 0 00-.053.427c0 .26.064.489.192.688.127.199.309.354.548.464.24.11.517.165.835.165a2.587 2.587 0 001.923-.846 2.08 2.08 0 00.477-.898c.035-.15.053-.293.053-.43 0-.26-.063-.491-.19-.692a1.25 1.25 0 00-.55-.466 1.98 1.98 0 00-.836-.165 2.59 2.59 0 00-1.064.226c-.337.15-.623.36-.859.626a2.118 2.118 0 00-.476.902zM40.22 16.13h-2.47l1.322-5.327h-1.534l-.865 2.68a4.342 4.342 0 01-.772 1.435 3.614 3.614 0 01-1.182.957c-.449.226-.92.34-1.415.34-.336 0-.668-.03-.995-.086a4.73 4.73 0 01-.863-.226l.53-1.093c.09-.19.195-.325.316-.404.121-.08.283-.117.483-.117.094 0 .227.012.4.035a.98.98 0 00.146.015c.18 0 .357-.093.527-.28.17-.187.302-.425.396-.712l1.446-4.475h6.333l-1.805 7.257h.001zm10.975 0H49.26a1.04 1.04 0 01-.764-.35.772.772 0 01-.183-.342l-.123-.506h-3.04l-.376.506c-.137.187-.329.35-.578.486a1.48 1.48 0 01-.709.206h-1.934l5.527-7.257h2.2l1.916 7.257h-.002zm-3.363-2.642l-.277-1.122a1.306 1.306 0 01-.03-.33 4.132 4.132 0 01.1-.877h-.023c-.043.193-.117.41-.225.646a3.103 3.103 0 01-.315.561l-.835 1.122h1.605z"/><path d="M12.007 8.873l-1.805 7.257H.077l1.806-7.257h2.469L3.029 14.2h1.358l1.324-5.327h2.468L6.857 14.2h1.358l1.323-5.327h2.469zm.293 7.257l1.804-7.257h2.47l-1.805 7.257h-2.47zm6.29-3.739c.153.027.305.094.452.201.146.107.24.206.284.295l1.518 3.242H18.68a.986.986 0 01-.507-.123.686.686 0 01-.298-.347l-1.082-2.716a.736.736 0 00-.19-.289.845.845 0 00-.228-.152 4.203 4.203 0 00-.317-.115c.16-.043.292-.09.392-.14a.83.83 0 00.26-.206l2.411-2.786c.091-.103.214-.194.37-.268a.998.998 0 01.43-.112h2.446l-2.787 3.007c-.094.1-.241.204-.44.31-.2.107-.383.17-.547.191v.01l-.002-.002zm3.909.115a4.338 4.338 0 011.05-1.919 5.472 5.472 0 011.914-1.333 6.04 6.04 0 012.393-.48c.728 0 1.366.12 1.911.36.545.241.966.577 1.262 1.01.297.432.444.931.444 1.495 0 .284-.038.574-.112.867a4.33 4.33 0 01-1.046 1.916 5.425 5.425 0 01-1.918 1.328 6.126 6.126 0 01-2.404.48c-.725 0-1.36-.12-1.906-.362-.544-.24-.964-.578-1.258-1.01a2.593 2.593 0 01-.441-1.495c0-.277.037-.563.111-.857zm2.47 0a1.86 1.86 0 00-.053.427c0 .26.064.489.192.688.127.199.309.354.548.464.24.11.517.165.835.165a2.587 2.587 0 001.923-.846 2.08 2.08 0 00.477-.898c.035-.15.053-.293.053-.43 0-.26-.063-.491-.19-.692a1.25 1.25 0 00-.55-.466 1.98 1.98 0 00-.836-.165 2.59 2.59 0 00-1.064.226c-.337.15-.623.36-.859.626a2.118 2.118 0 00-.476.902zM40.22 16.13h-2.47l1.322-5.327h-1.534l-.865 2.68a4.342 4.342 0 01-.772 1.435 3.614 3.614 0 01-1.182.957c-.449.226-.92.34-1.415.34-.336 0-.668-.03-.995-.086a4.73 4.73 0 01-.863-.226l.53-1.093c.09-.19.195-.325.316-.404.121-.08.283-.117.483-.117.094 0 .227.012.4.035a.98.98 0 00.146.015c.18 0 .357-.093.527-.28.17-.187.302-.425.396-.712l1.446-4.475h6.333l-1.805 7.257h.001zm10.975 0H49.26a1.04 1.04 0 01-.764-.35.772.772 0 01-.183-.342l-.123-.506h-3.04l-.376.506c-.137.187-.329.35-.578.486a1.48 1.48 0 01-.709.206h-1.934l5.527-7.257h2.2l1.916 7.257h-.002zm-3.363-2.642l-.277-1.122a1.306 1.306 0 01-.03-.33 4.132 4.132 0 01.1-.877h-.023c-.043.193-.117.41-.225.646a3.103 3.103 0 01-.315.561l-.835 1.122h1.605z"/><path fill-rule="evenodd" clip-rule="evenodd" d="M101.494 3.67c.314 0 .568.217.568.484s-.254.483-.568.483c-.313 0-.567-.216-.567-.483s.254-.483.567-.483zm-2.618 1.302c.044-.028.526-.354.784-.532.155-.106.23-.126.412-.102.281.037.625.112.762.16.104.037.563.296.628.36.051.049.185.395.264.563.048.104.088.119.228.114.178-.007.401-.02.477-.015.126.007.257.085.262.234.004.148-.163.232-.277.234l-.76.016c-.188.003-.306-.041-.387-.181-.084-.146-.089-.158-.149-.274l-.338.42c-.027.032-.037.075-.002.12.034.044.542.332.634.395.091.063.186.23.081.395-.082.13-.438.646-.652.946-.121.169-.234.373-.512.244-.212-.097-.116-.34-.061-.445.05-.095.212-.387.334-.626.059-.113.085-.164-.012-.218-.145-.08-.246-.145-.424-.248-.091.104-.21.251-.353.41-.188.212-.272.224-.566.22-.39-.008-.99-.034-1.093-.057-.15-.034-.306-.156-.271-.324.034-.167.218-.253.418-.257.201-.003.834.008.882.004.048-.004.38-.462.396-.499.018-.037-.088-.155.114-.376.202-.22.556-.621.556-.621.067-.095-.151-.17-.246-.153-.063.011-.696.369-.773.402-.077.034-.255.063-.356-.045-.1-.108-.055-.217-.003-.264h.003z"/><path fill-rule="evenodd" clip-rule="evenodd" d="M101.324 4.955a3.895 3.895 0 00-.559-.317 4.203 4.203 0 00-.721-.15c-.136-.018-.164-.004-.272.07-.255.175-.512.352-.77.523-.012.019.002.045.016.06.027.028.1.019.134.004.118-.053.253-.135.368-.197.09-.048.356-.201.45-.218a.512.512 0 01.234.022c.173.054.313.2.202.358l-.005.007-.006.006c-.184.21-.37.418-.558.624-.174.189-.025.202-.09.34-.035.077-.143.21-.198.282-.044.059-.09.117-.139.173-.052.061-.112.13-.209.137-.055.005-.124.002-.18.001l-.307-.002c-.135-.001-.272-.004-.407-.001-.101.002-.227.034-.247.132-.016.074.064.133.14.15.063.013.17.017.235.02a28.881 28.881 0 00.817.031c.24.004.271.007.42-.159.121-.135.234-.274.353-.41l.102-.116.141.082c.141.082.278.168.42.247.2.11.16.25.079.406-.107.211-.225.418-.336.627-.025.05-.099.211-.016.25.021.01.067.029.093.019.059-.022.148-.161.181-.209.088-.123.175-.247.261-.371.13-.186.266-.378.387-.568.04-.062.031-.16-.036-.206-.092-.064-.206-.125-.304-.184-.083-.05-.315-.178-.367-.245a.223.223 0 01.003-.29l.521-.644.128.25c.047.092.094.178.146.268.051.088.111.1.223.097.254-.005.508-.012.762-.016.043-.001.103-.037.102-.08-.002-.05-.036-.082-.096-.086-.096-.006-.226.005-.324.01l-.133.005c-.209.007-.321-.04-.401-.21-.038-.08-.072-.162-.108-.244-.029-.07-.084-.214-.129-.277v-.001zm.171-1.135c.216 0 .391.15.391.334 0 .184-.175.333-.391.333-.217 0-.391-.15-.391-.333 0-.185.175-.333.391-.333zm-4.962 3.42c.223 0 .404.154.404.345 0 .19-.18.345-.404.345-.224 0-.405-.154-.405-.345 0-.19.181-.345.405-.345z"/><path fill-rule="evenodd" clip-rule="evenodd" d="M96.533 7.099c.315 0 .57.217.57.486s-.255.486-.57.486c-.316 0-.57-.217-.57-.486s.254-.486.57-.486zm-.163-3.355c.223 0 .404.154.404.345 0 .19-.181.345-.405.345-.224 0-.405-.155-.405-.345 0-.19.181-.345.405-.345z"/><path fill-rule="evenodd" clip-rule="evenodd" d="M96.369 3.603c.315 0 .57.217.57.486 0 .268-.255.486-.57.486-.315 0-.57-.218-.57-.486 0-.269.255-.486.57-.486zm-1.121 1.588c-.146.256-.29.514-.433.77-.13.235-.273.48-.387.72-.06.123.119.198.2.123a7.38 7.38 0 00.403-.444c.2-.235.348-.455.436-.412.095.047-.021.271-.155.56l-.297.629c-.074.155-.152.313-.218.47-.111.264.157.34.283.179.025-.036.05-.089.07-.126a57.081 57.081 0 00.518-1.047c.132-.274.263-.549.393-.823.063-.132.123-.267.19-.398a.232.232 0 01.277-.122l.015.005.014.007c.106.054.43.217.546.243a.213.213 0 00.061-.013l.407-.291c.13-.093.27-.19.394-.288.024-.02.026-.076.007-.097-.027-.025-.088-.014-.116.005-.08.056-.156.115-.233.172-.086.064-.198.156-.292.208-.115.062-.288.07-.39 0-.065-.039-.14-.076-.208-.112l-.41-.216c-.202-.105-.412-.223-.62-.321a.631.631 0 00-.26-.033c-.279.025-.56.057-.839.087-.18.019-.358.037-.538.058-.091.01-.196.018-.285.034-.047.008-.09.024-.086.07.005.063.036.091.11.088.395-.017.794-.032 1.189-.042.256-.007.362.182.254.357z"/><path fill-rule="evenodd" clip-rule="evenodd" d="M93.744 4.57a87.248 87.248 0 011.68-.18.825.825 0 01.365.05 77.77 77.77 0 011.255.657.205.205 0 00.189-.004c.077-.042.389-.285.51-.368.12-.084.282-.063.36.009a.21.21 0 01-.016.31c-.106.084-.82.592-.82.592s-.07.042-.174.042c-.103 0-.627-.265-.627-.265s-.028-.01-.052.04c-.025.048-1.07 2.267-1.186 2.416-.233.302-.787.133-.6-.312.091-.216.474-1.003.474-1.003s-.132.154-.344.353c-.211.199-.63-.001-.496-.283.134-.281.826-1.5.826-1.5s.09-.142-.09-.137c-.18.005-.942.032-1.185.042-.243.01-.291-.158-.297-.23-.006-.072.03-.193.227-.227l.001-.002zm-3.198-.392s.213.048.42.267c.209.218.257.265.413.342.155.076.588.065.75-.196.16-.26.11-.534-.2-.679-.307-.144-.726-.075-.941-.021-.216.054-.608.214-.442.286z"/><path fill-rule="evenodd" clip-rule="evenodd" d="M90.81 4.116c.116.066.222.152.298.232.117.124.199.225.361.305a.525.525 0 00.246.011c.103-.018.201-.062.253-.144.11-.18.097-.367-.127-.47-.227-.107-.566-.069-.803-.01a2.076 2.076 0 00-.228.078v-.002zm-1.652.998s1.102-.702 1.205-.753c.104-.052.306-.052.453.125.148.178.704.73.775.768.071.036.45.093.688.144.239.051.258.237.229.335-.03.097-.154.192-.35.158a55.208 55.208 0 01-.802-.157c-.182-.037-.234-.063-.36-.188-.132-.13-.29-.297-.332-.306-.06-.014-.5.289-.508.34-.005.037.2.159.365.258.162.099.198.154.18.336-.036.34-.146.838-.18.975-.04.166-.17.29-.41.245a.305.305 0 01-.264-.357c.022-.123.067-.425.1-.61.022-.127-.013-.15-.157-.242-.199-.127-.512-.319-.682-.44-.222-.158-.18-.468.049-.63h.001z"/><path fill-rule="evenodd" clip-rule="evenodd" d="M89.27 5.235c-.126.092-.188.29-.046.391.213.153.45.292.674.435.18.114.264.187.228.39-.037.203-.064.406-.1.61-.013.08.023.165.124.183.122.023.17-.028.194-.126a7.64 7.64 0 00.174-.956c.013-.12.01-.128-.104-.197-.03-.017-.058-.035-.087-.053-.122-.074-.376-.204-.353-.353.017-.107.205-.228.299-.293.104-.07.295-.208.436-.175.124.028.334.267.421.354.099.097.118.108.265.138.264.052.532.11.798.156.048.008.122.004.137-.047.021-.07-.015-.127-.099-.145a8.714 8.714 0 00-.243-.047c-.121-.022-.396-.063-.495-.116-.061-.031-.146-.116-.195-.162a12.268 12.268 0 01-.271-.264c-.122-.122-.253-.253-.362-.383-.04-.05-.14-.119-.214-.082-.066.034-.141.084-.205.124a134.04 134.04 0 00-.979.617l.003.001zm-.616.835c.576 0 1.043.397 1.043.888s-.467.889-1.043.889c-.576 0-1.043-.398-1.043-.889 0-.49.467-.889 1.043-.889z"/><path fill-rule="evenodd" clip-rule="evenodd" d="M88.654 6.243c.464 0 .839.32.839.715 0 .395-.376.715-.84.715-.463 0-.838-.32-.838-.715 0-.395.376-.715.839-.715zm3.139-.173c.576 0 1.043.397 1.043.888s-.467.889-1.043.889c-.576 0-1.043-.398-1.043-.889 0-.49.467-.889 1.043-.889z"/><path fill-rule="evenodd" clip-rule="evenodd" d="M91.793 6.243c.464 0 .839.32.839.715 0 .395-.376.715-.839.715-.464 0-.839-.32-.839-.715 0-.395.376-.715.84-.715z"/></symbol><symbol viewBox="0 0 34 33" id="ok" xmlns="http://www.w3.org/2000/svg"><path d="M33.14.018L34 1.262c-3.493 2.69-7.38 6.842-11.68 12.42-4.281 5.598-7.56 10.83-9.798 15.678l-1.81 1.262C9.208 31.682 8.187 32.469 7.65 33c-.215-.787-.68-2.067-1.397-3.86l-.68-1.628c-.986-2.341-1.9-4.06-2.742-5.177C1.988 21.22 1.04 20.47 0 20.104 1.773 18.2 3.386 17.25 4.855 17.25c1.254 0 2.65 1.738 4.191 5.232l.753 1.756c2.758-4.756 6.305-9.384 10.64-13.884C24.774 5.872 29.02 2.414 33.16 0l-.019.018z"/></symbol><symbol viewBox="0 0 11 10" id="phone" xmlns="http://www.w3.org/2000/svg"><g clip-path="url(#xclip0)" fill-rule="evenodd" clip-rule="evenodd"><path d="M6.531 8.44c-.001-.203.168-.37.333-.37.087 0 .118-.005.202.038.04.02.064.044.093.072.217.223.07.637-.258.638a.373.373 0 01-.37-.378zM2.695 2.556c0-.1.015-.133.14-.184l2.574-1.07c.099-.047.344-.157.432-.157.073 0 .114.053.136.106l1.057 2.683c.085.217 1.123 2.829 1.123 2.862 0 .176-.097.17-.269.246l-2.262.94-.066.03-.349.144c-.183.076-.271.124-.355-.09l-.665-1.69c-.02-.049-.04-.092-.057-.144l-.112-.282c-.019-.048-.038-.095-.054-.14l-.834-2.117-.026-.07-.112-.282c-.01-.032-.016-.04-.027-.069L2.8 2.844c-.02-.05-.104-.243-.104-.29l-.002.002zm-.979-.403c0 .184.058.277.127.454l.156.396c.105.27.207.524.312.791l2.02 5.126c.046.115.249.668.328.776a.577.577 0 00.554.238c.08-.01.142-.04.21-.067l1.157-.481c.513-.213 1.019-.426 1.535-.638.096-.04.906-.372.957-.402a.606.606 0 00.308-.547c0-.153-.11-.383-.165-.526-.032-.081-.063-.168-.1-.251l-.296-.755a29.785 29.785 0 01-.099-.25l-1.68-4.26c-.133-.338-.263-.665-.395-1.003C6.539.482 6.483.24 6.24.109c-.228-.124-.427-.064-.647.038l-.14.059c-.961.392-1.926.802-2.886 1.2l-.348.145c-.03.012-.047.018-.073.03-.048.022-.093.037-.136.062a.606.606 0 00-.291.513l-.004-.003zm8.81 4.953c0 .055.027.153.04.226.08.489-.031.964-.266 1.37-.238.41-.652.73-1.099.864-.064.019-.121.03-.167.068-.138.115-.056.367.11.367.144 0 .293-.06.426-.12.353-.154.544-.314.803-.577.027-.028.035-.045.059-.071.067-.075.103-.13.157-.21.175-.26.264-.484.35-.794.035-.13.056-.288.062-.453L11 7.534a2.365 2.365 0 00-.049-.398.388.388 0 00-.057-.153c-.12-.148-.367-.053-.367.122v.001zM0 2.29v.01l.001.254a.394.394 0 00.043.186c.1.14.282.122.354-.018.07-.133-.096-.564.21-1.192A2.03 2.03 0 01.8 1.208c.108-.148.138-.164.242-.273.233-.244.69-.466 1.022-.503.081-.009.145-.014.198-.053C2.408.27 2.364 0 2.133 0H2.13c-.26.002-.63.138-.846.249a2.122 2.122 0 00-.448.306C.764.618.69.682.628.758c-.135.169-.197.224-.32.445l-.133.278c-.094.247-.175.529-.174.807L0 2.29z"/><path d="M.816 2.429c0 .149.018.352.215.352.11 0 .198-.083.206-.185.01-.16-.017-.184.016-.388.044-.283.23-.576.453-.742.187-.14.34-.19.572-.225a.22.22 0 00.133-.066c.14-.157-.004-.356-.114-.355-.228.001-.466.08-.632.172a1.618 1.618 0 00-.326.24c-.04.04-.045.033-.087.085-.134.168-.21.242-.303.473-.076.187-.09.259-.119.459a1.72 1.72 0 00-.013.18H.816zm8.913 4.847c0 .123.035.153.036.415 0 .225-.103.487-.223.65-.064.088-.065.083-.138.158-.094.098-.21.18-.344.238-.17.075-.33.051-.33.287 0 .105.104.193.207.193.11 0 .382-.132.481-.193.077-.048.13-.09.196-.144l.247-.266c.025-.035.046-.07.07-.105.023-.036.04-.07.063-.11.026-.045.034-.075.056-.12.134-.282.157-.664.096-.975-.017-.087-.036-.142-.098-.181a.202.202 0 00-.32.153z"/></g><defs><clipPath id="xclip0"><path d="M0 0h11v10H0z"/></clipPath></defs></symbol><symbol viewBox="0 0 7 7" id="star" xmlns="http://www.w3.org/2000/svg"><path d="M3.5 0l.786 2.418h2.543L4.77 3.913l.786 2.419L3.5 4.837 1.443 6.332l.786-2.419L.17 2.418h2.543L3.5 0z"/></symbol></svg>