<svg width="28" height="24" viewBox="0 0 28 24" fill="none" xmlns="http://www.w3.org/2000/svg">
<path d="M25.4147 10.6254C24.6095 11.1776 23.9002 11.8761 23.1333 12.2822C22.8266 11.8111 22.2706 11.535 21.6188 11.535C20.526 11.535 20.1043 12.3471 20.5069 13.2405C20.7177 13.3542 21.0436 13.4191 21.3887 13.4354C21.4462 13.6628 21.4846 13.8902 21.4846 14.1013C21.4846 15.5632 20.2576 16.7652 19.2799 16.7652C18.6089 16.7652 18.0338 16.2129 18.0338 14.7835C18.0338 13.1917 19.1649 11.0152 20.9094 11.0152C21.3696 11.0152 21.7722 11.0802 22.1364 11.1939C22.424 11.2913 22.7499 11.1127 22.7882 10.7391C22.2131 10.0082 21.4462 9.78076 20.4877 9.78076C17.5928 9.78076 15.5798 12.8507 15.5798 15.3033C15.5798 16.8301 16.4234 18.1783 18.398 18.1783C20.6986 18.1783 23.4017 15.7256 23.4017 13.2405C23.4017 13.1917 23.4017 13.1268 23.3825 13.0618C24.1686 12.6395 24.9162 11.8761 25.4147 11.5187C25.6831 11.3238 25.779 10.8853 25.4147 10.6254Z" fill="#E31E24"/>
<path fill-rule="evenodd" clip-rule="evenodd" d="M20.8507 4.58773C16.6692 7.93565 14.5919 10.5077 13.7574 15.4895C13.4427 17.3699 13.5307 19.2789 13.1743 21.1506C12.6759 19.2913 12.6026 17.302 12.7492 15.4026C13.1563 10.1332 15.37 7.1216 19.5719 3.46124C19.9384 3.16123 20.5226 3.17078 20.8767 3.48131C21.2308 3.79183 21.2195 4.28676 20.853 4.58677L20.8507 4.58773Z" fill="#0059A5"/>
<path fill-rule="evenodd" clip-rule="evenodd" d="M10.3728 13.0868C7.15091 14.2611 4.17034 9.29937 12.2933 5.725C13.8676 5.03229 14.4461 4.86509 16.1445 4.52686C13.6601 6.07183 9.81684 7.56999 8.794 10.2711C8.59552 10.7937 8.60567 11.7453 9.47401 11.7406L9.47852 11.7358C9.4571 11.7329 9.46837 11.7339 9.44469 11.7358C9.8845 11.5189 10.4495 11.645 10.7055 12.0186C10.9615 12.3912 10.8126 12.8699 10.3717 13.0868H10.3728Z" fill="#0059A5"/>
<path d="M7.21397 8.7337C7.87728 8.7337 8.41499 8.1776 8.41499 7.49161C8.41499 6.80562 7.87728 6.24951 7.21397 6.24951C6.55066 6.24951 6.01294 6.80562 6.01294 7.49161C6.01294 8.1776 6.55066 8.7337 7.21397 8.7337Z" fill="#0059A5"/>
<path fill-rule="evenodd" clip-rule="evenodd" d="M10.6517 7.38965C10.6517 7.38965 10.4465 8.18363 11.6159 8.75691C12.7842 9.33018 13.5172 9.49548 13.5172 9.49548L12.1538 11.3271C12.1538 11.3271 11.3926 11.3032 9.95477 10.793C8.51693 10.2818 8.46167 10.1404 8.46167 10.1404L10.6517 7.38965Z" fill="#0059A5"/>
<path fill-rule="evenodd" clip-rule="evenodd" d="M11.0407 14.9574L10.8298 14.4453C10.8298 14.4453 11.2821 14.0688 11.3373 13.5663C11.3926 13.0637 11.0903 12.6156 11.6531 11.7117C12.2158 10.8069 12.9195 9.86865 14.1295 9.09473C13.7033 9.5973 13.5916 9.68902 13.0819 10.3005C12.571 10.912 11.3655 12.3872 11.6249 13.2357C11.8843 14.0841 11.3283 14.6756 11.0407 14.9584V14.9574Z" fill="#0059A5"/>
<path fill-rule="evenodd" clip-rule="evenodd" d="M12.2576 14.4509L12.0027 14.1347C12.0027 14.1347 12.3354 13.6235 12.3399 13.1181C12.3444 12.6126 11.917 12.2266 12.5609 11.2826C13.2048 10.3377 13.3176 10.2183 14.1611 9.42236C13.824 9.99182 13.5668 10.3988 13.3537 10.7514C13.1406 11.103 12.4233 12.1263 12.6748 12.7493C12.9263 13.3722 12.5158 14.149 12.2576 14.4519V14.4509Z" fill="#0059A5"/>
<path d="M20.1704 19.1464C19.478 21.4921 15.4735 23.4164 11.7869 23.4164C8.20981 23.4164 5.34878 22.567 3.20837 20.873C1.06795 19.1789 0 16.9154 0 14.0911C0 10.3581 1.70173 7.07517 5.09955 4.24701C8.50302 1.41408 12.4478 0 16.9293 0C20.0069 0 22.5916 0.827427 24.6734 2.47464C26.7586 4.12376 27.3563 5.34293 27.3563 7.7803C27.3563 9.85556 26.4902 10.5005 25.2914 11.4703C23.7622 12.7086 23.9551 11.9576 24.2336 11.6556C25.3004 10.5005 26.0041 10.0887 26.1744 8.62111C26.4112 6.58311 25.2914 4.86042 23.5299 3.47883C21.7684 2.09723 19.5851 1.40357 16.9835 1.40357C12.9891 1.40357 9.55405 2.62942 6.66596 5.08591C3.7835 7.54239 2.34115 10.4623 2.34115 13.8503C2.34115 16.3068 3.214 18.2989 4.95859 19.8143C6.70881 21.3344 8.98455 22.0912 11.7869 22.0912C14.6051 22.0912 17.3962 21.109 20.1704 19.1436V19.1464Z" fill="#E31E24"/>
</svg>
