<svg width="103" height="21" viewBox="0 0 103 21" fill="none" xmlns="http://www.w3.org/2000/svg">
<path d="M70.0027 9.55892C69.2996 10.044 68.6803 10.6575 68.0107 11.0142C67.7428 10.6004 67.2574 10.3579 66.6882 10.3579C65.734 10.3579 65.3657 11.0713 65.7173 11.856C65.9014 11.9559 66.186 12.0129 66.4873 12.0272C66.5375 12.2269 66.571 12.4267 66.571 12.6122C66.571 13.8962 65.4996 14.952 64.6459 14.952C64.06 14.952 63.5578 14.4669 63.5578 13.2114C63.5578 11.8132 64.5454 9.90134 66.0688 9.90134C66.4706 9.90134 66.8221 9.95841 67.1402 10.0583C67.3913 10.1439 67.6759 9.98695 67.7093 9.6588C67.2071 9.01676 66.5375 8.81702 65.7005 8.81702C63.1728 8.81702 61.415 11.5136 61.415 13.6679C61.415 15.0091 62.1516 16.1933 63.8758 16.1933C65.8847 16.1933 68.245 14.0389 68.245 11.856C68.245 11.8132 68.245 11.7561 68.2283 11.699C68.9146 11.3281 69.5675 10.6575 70.0027 10.3436C70.2371 10.1724 70.3208 9.7872 70.0027 9.55892Z" fill="#E31E24"/>
<path d="M70.0023 10.3436C70.153 10.2295 70.2534 10.1724 70.3371 10.1724C70.4878 10.1724 70.5715 10.3008 70.5045 10.5291L69.1318 16.0078C69.3327 16.1219 69.6173 16.1933 69.9186 16.1933C70.5213 16.1933 71.1574 15.9507 71.3248 15.2944L72.3459 11.2282C72.7142 10.843 73.3838 10.4863 73.8358 10.4863C74.2041 10.4863 74.4384 10.7289 74.2878 11.3281L73.5847 14.1673C73.1662 15.8366 74.0534 16.1933 74.8904 16.1933C76.012 16.1933 77.1336 15.537 77.9204 14.7808C78.0208 14.6809 78.0711 14.5668 78.0711 14.4669C78.0711 14.3242 77.9706 14.1958 77.7865 14.1245C77.368 14.4812 76.6481 14.8379 76.0288 14.8379C75.694 14.8379 75.4763 14.6667 75.5768 14.2529L76.397 10.9714C76.7821 9.47332 76.1459 8.87408 75.2587 8.87408C74.2878 8.87408 73.2164 9.44478 72.5133 10.3008L72.6807 9.65879C72.8314 9.11663 72.4799 8.87408 71.8772 8.87408C71.1741 8.87408 70.5715 9.1737 70.0023 9.55892C69.6675 9.7872 69.7847 10.2295 70.0023 10.3436Z" fill="#E31E24"/>
<path d="M83.6449 13.8669C83.7621 13.5958 83.5612 13.2819 83.2432 13.3247C82.9251 14.1094 81.5859 14.8085 80.6652 14.8085C80.0793 14.8085 79.644 14.5232 79.7612 13.7812C79.778 13.61 79.8114 13.4246 79.8449 13.2534C82.0044 10.4427 83.0925 8.15988 83.0925 7.04702C83.0925 6.30511 82.5401 5.89136 81.7533 5.89136C79.5603 5.89136 78.4388 8.91605 77.6687 14.08C77.4511 15.5781 78.3383 16.1916 79.5101 16.1916C81.0502 16.1916 83.059 15.1643 83.6449 13.866V13.8669ZM81.8705 6.83385C82.0546 6.83385 82.1551 6.90518 82.1551 7.14773C82.1551 7.63282 81.5357 9.6588 80.0625 11.9844C80.6317 8.97396 81.318 6.83385 81.8705 6.83385Z" fill="#E31E24"/>
<path d="M84.4817 7.03357C84.3812 7.59 84.8667 8.03229 85.5196 8.03229C86.1724 8.03229 86.7249 7.59 86.8253 7.03357C86.8923 6.47714 86.4068 6.03485 85.7539 6.03485C85.1011 6.03485 84.5487 6.47714 84.4817 7.03357ZM82.9583 14.4946C82.6403 15.7929 83.6112 16.1924 84.4482 16.1924C85.5698 16.1924 86.6914 15.5361 87.4782 14.7799C87.5786 14.6801 87.6288 14.5659 87.6288 14.4661C87.6288 14.3234 87.5284 14.195 87.3443 14.1236C86.9258 14.4803 86.2059 14.837 85.5865 14.837C85.1513 14.837 84.8835 14.5802 85.0843 13.7812L86.1055 9.65794C86.2394 9.11578 85.9046 8.87323 85.302 8.87323C84.5989 8.87323 83.9962 9.17285 83.4271 9.55807C83.0923 9.78635 83.2094 10.2286 83.4271 10.3428C83.5777 10.2286 83.6782 10.1716 83.7619 10.1716C83.9125 10.1716 83.9795 10.3 83.9293 10.5283L82.9583 14.4946Z" fill="#E31E24"/>
<path d="M87.579 10.3436C87.7296 10.2295 87.8301 10.1724 87.9138 10.1724C88.0644 10.1724 88.1481 10.3008 88.0812 10.5291L86.7085 16.0078C86.9094 16.1219 87.194 16.1933 87.4953 16.1933C88.0979 16.1933 88.7341 15.9507 88.9015 15.2944L89.9226 11.2282C90.2909 10.843 90.9605 10.4863 91.4125 10.4863C91.7808 10.4863 92.0151 10.7289 91.8645 11.3281L91.1614 14.1673C90.7429 15.8366 91.6301 16.1933 92.4671 16.1933C93.5887 16.1933 94.7103 15.537 95.4971 14.7808C95.5975 14.6809 95.6477 14.5668 95.6477 14.4669C95.6477 14.3242 95.5473 14.1958 95.3631 14.1245C94.9446 14.4812 94.2248 14.8379 93.6054 14.8379C93.2706 14.8379 93.053 14.6667 93.1534 14.2529L93.9737 10.9714C94.3587 9.47332 93.7226 8.87408 92.8354 8.87408C91.8645 8.87408 90.7931 9.44478 90.09 10.3008L90.2574 9.65879C90.4081 9.11663 90.0565 8.87408 89.4539 8.87408C88.7508 8.87408 88.1481 9.1737 87.579 9.55892C87.2442 9.7872 87.3614 10.2295 87.579 10.3436Z" fill="#E31E24"/>
<path d="M101.288 10.1867C101.288 9.54466 100.903 8.81702 99.3795 8.81702C96.6174 8.81702 95.1777 11.7846 95.1777 13.6394C95.1777 15.3943 96.45 16.1933 98.0235 16.1933C99.6473 16.1933 101.589 15.3372 102.744 13.8962C102.928 13.6394 102.761 13.3398 102.326 13.4111C101.606 14.2244 100.066 14.952 98.8606 14.952C98.0905 14.952 97.4711 14.6667 97.3037 13.8962C100.535 12.3696 101.288 11.3994 101.288 10.1867ZM99.4967 9.92988C99.7813 9.92988 99.9821 10.1582 99.9821 10.4863C99.9821 11.4137 98.8773 12.4124 97.2535 13.2827C97.3037 12.284 97.8394 9.92988 99.4967 9.92988Z" fill="#E31E24"/>
<path fill-rule="evenodd" clip-rule="evenodd" d="M66.0175 4.25563C62.3662 7.1964 60.5523 9.45569 59.8237 13.8316C59.5489 15.4833 59.6257 17.1601 59.3146 18.8042C58.8793 17.171 58.8153 15.4237 58.9433 13.7552C59.2988 9.1267 61.2318 6.48135 64.9008 3.26614C65.2209 3.00262 65.7309 3.01101 66.0401 3.28377C66.3493 3.55653 66.3395 3.99127 66.0195 4.25479L66.0175 4.25563Z" fill="#0059A5"/>
<path fill-rule="evenodd" clip-rule="evenodd" d="M56.8687 11.7208C54.0554 12.7523 51.4528 8.39401 58.5457 5.25434C59.9203 4.64587 60.4255 4.499 61.9085 4.2019C59.7391 5.55899 56.3832 6.87495 55.4901 9.24754C55.3168 9.70662 55.3257 10.5425 56.0839 10.5383L56.0878 10.5341C56.0691 10.5316 56.079 10.5324 56.0583 10.5341C56.4423 10.3436 56.9357 10.4544 57.1592 10.7825C57.3827 11.1099 57.2527 11.5303 56.8677 11.7208H56.8687Z" fill="#0059A5"/>
<path d="M54.1103 7.89719C54.6894 7.89719 55.159 7.40872 55.159 6.80616C55.159 6.20359 54.6894 5.71512 54.1103 5.71512C53.5311 5.71512 53.0615 6.20359 53.0615 6.80616C53.0615 7.40872 53.5311 7.89719 54.1103 7.89719Z" fill="#0059A5"/>
<path fill-rule="evenodd" clip-rule="evenodd" d="M57.1115 6.71634C57.1115 6.71634 56.9323 7.41376 57.9535 7.91732C58.9736 8.42088 59.6137 8.56607 59.6137 8.56607L58.4232 10.1749C58.4232 10.1749 57.7585 10.154 56.503 9.70579C55.2475 9.25678 55.1992 9.13257 55.1992 9.13257L57.1115 6.71634Z" fill="#0059A5"/>
<path fill-rule="evenodd" clip-rule="evenodd" d="M57.4512 13.3641L57.2671 12.9143C57.2671 12.9143 57.662 12.5836 57.7102 12.1422C57.7585 11.7007 57.4946 11.3071 57.9859 10.5132C58.4773 9.71837 59.0918 8.89422 60.1483 8.21442C59.7761 8.65587 59.6786 8.73644 59.2336 9.27356C58.7875 9.81069 57.7348 11.1065 57.9613 11.8518C58.1878 12.597 57.7023 13.1165 57.4512 13.365V13.3641Z" fill="#0059A5"/>
<path fill-rule="evenodd" clip-rule="evenodd" d="M58.5141 12.9193L58.2915 12.6415C58.2915 12.6415 58.582 12.1925 58.5859 11.7485C58.5899 11.3046 58.2167 10.9655 58.7789 10.1363C59.3412 9.3063 59.4397 9.20139 60.1763 8.50229C59.8818 9.00249 59.6573 9.36001 59.4712 9.6697C59.2851 9.97855 58.6588 10.8774 58.8784 11.4246C59.098 11.9718 58.7396 12.6541 58.5141 12.9202V12.9193Z" fill="#0059A5"/>
<path d="M65.4236 17.0434C64.819 19.1038 61.3223 20.7941 58.1032 20.7941C54.9797 20.7941 52.4815 20.048 50.6125 18.56C48.7436 17.072 47.811 15.0838 47.811 12.6029C47.811 9.32392 49.297 6.44022 52.2639 3.95601C55.2358 1.4676 58.6803 0.225494 62.5935 0.225494C65.2808 0.225494 67.5378 0.952294 69.3555 2.39918C71.1763 3.84774 71.6982 4.91864 71.6982 7.05959C71.6982 8.88247 70.9419 9.44897 69.8952 10.3008C68.5599 11.3885 68.7283 10.7288 68.9715 10.4636C69.903 9.44897 70.5175 9.08725 70.6662 7.79814C70.873 6.008 69.8952 4.49481 68.357 3.28124C66.8189 2.06767 64.9125 1.45837 62.6408 1.45837C59.1529 1.45837 56.1535 2.53514 53.6317 4.69288C51.1147 6.85062 49.8553 9.4154 49.8553 12.3914C49.8553 14.5492 50.6175 16.299 52.1408 17.6301C53.6691 18.9653 55.6562 19.63 58.1032 19.63C60.564 19.63 63.0012 18.7673 65.4236 17.0409V17.0434Z" fill="#E31E24"/>
<path d="M68.0628 19.4295H67.5596C67.5222 19.4295 67.4857 19.4211 67.4503 19.4043C67.4148 19.3875 67.3853 19.3657 67.3607 19.338C67.336 19.3103 67.3203 19.2809 67.3134 19.249L67.2809 19.1173H66.4902L66.3927 19.249C66.3572 19.2977 66.307 19.3397 66.242 19.3758C66.177 19.411 66.116 19.4295 66.0579 19.4295H65.5547L66.9924 17.5428H67.5645L68.0628 19.4295ZM67.1883 18.743L67.1164 18.4509C67.1115 18.4333 67.1086 18.4047 67.1086 18.3653C67.1086 18.3292 67.1115 18.2898 67.1155 18.2478C67.1204 18.2058 67.1263 18.1689 67.1342 18.137H67.1283C67.1174 18.1874 67.0977 18.2436 67.0692 18.3049C67.0416 18.367 67.014 18.4148 66.9874 18.4509L66.7708 18.743H67.1883Z" fill="#0059A5"/>
<path d="M70.7945 17.542L70.3258 19.4295H69.6828L69.8561 18.7362H69.1225L68.9492 19.4295H68.3071L68.7768 17.542H69.4189L69.2456 18.2344H69.9802L70.1525 17.542H70.7945Z" fill="#0059A5"/>
<path d="M73.0769 19.4295H72.5737C72.5363 19.4295 72.4999 19.4211 72.4644 19.4043C72.429 19.3875 72.3994 19.3657 72.3748 19.338C72.3502 19.3103 72.3344 19.2809 72.3276 19.249L72.2951 19.1173H71.5043L71.4068 19.249C71.3714 19.2977 71.3212 19.3397 71.2562 19.3758C71.1912 19.411 71.1301 19.4295 71.072 19.4295H70.5688L72.0065 17.5428H72.5787L73.0769 19.4295ZM72.2025 18.743L72.1306 18.4509C72.1257 18.4333 72.1227 18.4047 72.1227 18.3653C72.1227 18.3292 72.1257 18.2898 72.1296 18.2478C72.1346 18.2058 72.1405 18.1689 72.1483 18.137H72.1424C72.1316 18.1874 72.1119 18.2436 72.0833 18.3049C72.0558 18.367 72.0282 18.4148 72.0016 18.4509L71.785 18.743H72.2025Z" fill="#0059A5"/>
<path d="M73.3111 17.542H75.0678L74.9437 18.0438H74.3874L74.0417 19.4295H73.3997L73.7453 18.0438H73.187L73.3111 17.542Z" fill="#0059A5"/>
<path d="M74.9851 18.487C75.0314 18.3023 75.122 18.1353 75.2579 17.9876C75.3938 17.8399 75.5592 17.7241 75.7551 17.641C75.9511 17.5579 76.1579 17.5159 76.3775 17.5159C76.5675 17.5159 76.733 17.547 76.8748 17.6099C77.0166 17.6729 77.1259 17.7602 77.2027 17.8726C77.2795 17.9851 77.3179 18.1152 77.3179 18.262C77.3179 18.3359 77.308 18.4114 77.2884 18.4878C77.2421 18.6724 77.1515 18.8386 77.0166 18.9863C76.8807 19.1332 76.7152 19.249 76.5183 19.3313C76.3214 19.4143 76.1136 19.4563 75.893 19.4563C75.7049 19.4563 75.5395 19.4252 75.3977 19.3623C75.2559 19.2994 75.1466 19.2121 75.0708 19.0996C74.994 18.9872 74.9565 18.8579 74.9565 18.711C74.9565 18.6389 74.9664 18.565 74.9861 18.4878L74.9851 18.487ZM75.6271 18.487C75.6183 18.5264 75.6133 18.5633 75.6133 18.5977C75.6133 18.6657 75.6301 18.7253 75.6636 18.7765C75.6971 18.8285 75.7443 18.8688 75.8064 18.8974C75.8684 18.9259 75.9413 18.9402 76.023 18.9402C76.1205 18.9402 76.214 18.9209 76.3007 18.8814C76.3883 18.842 76.4622 18.7883 76.5232 18.7194C76.5843 18.6506 76.6256 18.5734 76.6473 18.4861C76.6562 18.4467 76.6611 18.4097 76.6611 18.3737C76.6611 18.3057 76.6443 18.2461 76.6119 18.1941C76.5784 18.142 76.5311 18.1017 76.4691 18.0732C76.407 18.0447 76.3342 18.0304 76.2524 18.0304C76.1559 18.0304 76.0634 18.0497 75.9757 18.0891C75.8881 18.1286 75.8132 18.1823 75.7522 18.252C75.6911 18.3216 75.6498 18.3997 75.6281 18.4861L75.6271 18.487Z" fill="#0059A5"/>
<path d="M79.4911 19.4295H78.849L79.1927 18.0447H78.7939L78.5694 18.7421C78.5231 18.8839 78.4571 19.0082 78.3685 19.1156C78.2799 19.223 78.1774 19.3061 78.0613 19.3648C77.9441 19.4236 77.822 19.453 77.693 19.453C77.6053 19.453 77.5197 19.4454 77.434 19.4311C77.3493 19.416 77.2735 19.3967 77.2095 19.3724L77.3473 19.0887C77.371 19.0392 77.3985 19.004 77.43 18.9838C77.4616 18.9637 77.5039 18.9536 77.5551 18.9536C77.5797 18.9536 77.6142 18.957 77.6595 18.9628C77.6762 18.9653 77.689 18.967 77.6979 18.967C77.7452 18.967 77.7905 18.9427 77.8348 18.894C77.8791 18.8453 77.9135 18.7841 77.9382 18.7094L78.3143 17.5453H79.9608L79.4911 19.432V19.4295Z" fill="#0059A5"/>
<path d="M82.4417 17.5419L81.9719 19.4286H81.3358L81.709 18.184C81.6962 18.2201 81.6795 18.2553 81.6598 18.2897C81.6401 18.3233 81.6234 18.3485 81.6076 18.3636L80.6258 19.3489C80.5943 19.3808 80.5668 19.4026 80.5451 19.4127C80.5225 19.4227 80.4919 19.4286 80.4535 19.4286H79.9336L80.4033 17.5419H81.0375L80.7253 18.5533C80.7322 18.5381 80.7499 18.5113 80.7785 18.4727C80.807 18.4341 80.8307 18.4064 80.8484 18.3888L81.6263 17.6301C81.6618 17.5948 81.6943 17.5705 81.7228 17.5587C81.7514 17.547 81.7888 17.5411 81.8361 17.5411H82.4397L82.4417 17.5419Z" fill="#0059A5"/>
<path d="M84.6088 17.542L84.1391 19.4286H83.4971L83.6379 18.8604H83.4912L83.0707 19.3313C83.0353 19.3707 83.0037 19.3967 82.9762 19.4093C82.9486 19.4227 82.9112 19.4286 82.8629 19.4286H82.1982L82.796 18.8092C82.8363 18.7664 82.8738 18.7379 82.9072 18.7236C82.9407 18.7094 82.986 18.7027 83.0441 18.7027H83.0599C82.9575 18.6741 82.8777 18.6246 82.8196 18.5549C82.7605 18.4853 82.731 18.4039 82.731 18.3107C82.731 18.2755 82.7359 18.2385 82.7448 18.2016C82.7753 18.0782 82.8383 17.9658 82.9328 17.8651C83.0274 17.7644 83.1426 17.6855 83.2765 17.6276C83.4114 17.5705 83.5512 17.542 83.697 17.542H84.6098H84.6088ZM83.8378 18.0564H83.6005C83.5483 18.0564 83.502 18.0699 83.4616 18.0959C83.4213 18.1227 83.3957 18.158 83.3848 18.2008C83.3819 18.2117 83.3799 18.2234 83.3799 18.236C83.3799 18.2688 83.3927 18.2956 83.4193 18.3158C83.4459 18.3359 83.4803 18.346 83.5237 18.346H83.7649L83.8368 18.0564H83.8378Z" fill="#0059A5"/>
<path d="M87.4086 19.4294H86.7666L86.9123 18.8428C86.8336 18.8545 86.7538 18.8646 86.6721 18.8722C86.5903 18.8797 86.5175 18.8831 86.4515 18.8831C86.3057 18.8831 86.1817 18.8621 86.0793 18.8201C85.9768 18.7782 85.8991 18.7177 85.8459 18.638C85.7927 18.5583 85.7661 18.4626 85.7661 18.351C85.7661 18.2855 85.775 18.2159 85.7937 18.1395L85.9453 17.5411H86.5893L86.4288 18.1395C86.4229 18.163 86.42 18.1848 86.42 18.205C86.42 18.2587 86.4397 18.3006 86.4791 18.33C86.5184 18.3594 86.5736 18.3745 86.6445 18.3745C86.7528 18.3745 86.8828 18.3653 87.0354 18.3468L87.2353 17.5411H87.8774L87.4077 19.4278L87.4086 19.4294Z" fill="#0059A5"/>
<path d="M90.3587 17.5419L89.8889 19.4286H89.2528L89.626 18.184C89.6132 18.2201 89.5965 18.2553 89.5768 18.2897C89.5571 18.3233 89.5404 18.3485 89.5246 18.3636L88.5428 19.3489C88.5113 19.3808 88.4838 19.4026 88.4621 19.4127C88.4394 19.4227 88.4089 19.4286 88.3705 19.4286H87.8506L88.3203 17.5419H88.9545L88.6423 18.5533C88.6492 18.5381 88.6669 18.5113 88.6955 18.4727C88.724 18.4341 88.7477 18.4064 88.7654 18.3888L89.5433 17.6301C89.5788 17.5948 89.6113 17.5705 89.6398 17.5587C89.6684 17.547 89.7058 17.5411 89.7531 17.5411H90.3567L90.3587 17.5419Z" fill="#0059A5"/>
<path d="M90.333 19.4295L90.8027 17.5428H91.4447L90.975 19.4295H90.333ZM91.9686 18.4576C92.008 18.4643 92.0474 18.4819 92.0858 18.5096C92.1242 18.5373 92.1488 18.5634 92.1596 18.5869L92.5545 19.4303H91.9922C91.9401 19.4303 91.8967 19.4194 91.8603 19.3984C91.8239 19.3774 91.7983 19.3472 91.7825 19.3078L91.5009 18.6011C91.4891 18.5701 91.4723 18.5449 91.4516 18.5256C91.431 18.5071 91.4113 18.4937 91.3926 18.4861C91.3738 18.4786 91.3463 18.4685 91.3098 18.4559C91.3512 18.445 91.3857 18.4324 91.4122 18.4198C91.4379 18.4064 91.4605 18.3888 91.4802 18.3661L92.1075 17.6418C92.1311 17.615 92.1626 17.5915 92.204 17.5722C92.2443 17.5529 92.2817 17.5428 92.3152 17.5428H92.9513L92.2266 18.325C92.202 18.351 92.1636 18.3779 92.1124 18.4056C92.0602 18.4333 92.0129 18.4501 91.9706 18.4551V18.4576H91.9686Z" fill="#0059A5"/>
<path d="M95.0774 19.4295H94.5742C94.5368 19.4295 94.5004 19.4211 94.4649 19.4043C94.4295 19.3875 94.3999 19.3657 94.3753 19.338C94.3507 19.3103 94.3349 19.2809 94.328 19.249L94.2955 19.1173H93.5048L93.4073 19.249C93.3719 19.2977 93.3217 19.3397 93.2567 19.3758C93.1917 19.411 93.1306 19.4295 93.0725 19.4295H92.5693L94.007 17.5428H94.5791L95.0774 19.4295ZM94.203 18.743L94.1311 18.4509C94.1262 18.4333 94.1232 18.4047 94.1232 18.3653C94.1232 18.3292 94.1262 18.2898 94.1301 18.2478C94.135 18.2058 94.1409 18.1689 94.1488 18.137H94.1429C94.1321 18.1874 94.1124 18.2436 94.0838 18.3049C94.0563 18.367 94.0287 18.4148 94.0021 18.4509L93.7855 18.743H94.203Z" fill="#0059A5"/>
<path d="M97.8087 17.542L97.34 19.4295H96.6969L96.8702 18.7362H96.1366L95.9633 19.4295H95.3213L95.791 17.542H96.433L96.2597 18.2344H96.9943L97.1666 17.542H97.8087Z" fill="#0059A5"/>
<path d="M99.665 19.4294H99.0229L99.1687 18.8428C99.0899 18.8545 99.0101 18.8646 98.9284 18.8722C98.8467 18.8797 98.7738 18.8831 98.7078 18.8831C98.5621 18.8831 98.438 18.8621 98.3356 18.8201C98.2332 18.7782 98.1554 18.7177 98.1022 18.638C98.049 18.5583 98.0225 18.4626 98.0225 18.351C98.0225 18.2855 98.0313 18.2159 98.05 18.1395L98.2017 17.5411H98.8457L98.6852 18.1395C98.6793 18.163 98.6763 18.1848 98.6763 18.205C98.6763 18.2587 98.696 18.3006 98.7354 18.33C98.7748 18.3594 98.8299 18.3745 98.9008 18.3745C99.0091 18.3745 99.1391 18.3653 99.2918 18.3468L99.4917 17.5411H100.134L99.664 19.4278L99.665 19.4294Z" fill="#0059A5"/>
<path d="M102.616 17.5419L102.146 19.4286H101.51L101.883 18.184C101.871 18.2201 101.854 18.2553 101.834 18.2897C101.814 18.3233 101.798 18.3485 101.782 18.3636L100.8 19.3489C100.769 19.3808 100.741 19.4026 100.719 19.4127C100.697 19.4227 100.666 19.4286 100.628 19.4286H100.108L100.578 17.5419H101.212L100.9 18.5533C100.907 18.5381 100.924 18.5113 100.953 18.4727C100.981 18.4341 101.005 18.4064 101.023 18.3888L101.801 17.6301C101.836 17.5948 101.869 17.5705 101.897 17.5587C101.926 17.547 101.963 17.5411 102.01 17.5411H102.614L102.616 17.5419Z" fill="#0059A5"/>
<path d="M12.0069 8.87323L10.202 16.1295H0.0771484L1.88311 8.87323H4.35179L3.02932 14.2H4.38724L5.71069 8.87323H8.17937L6.8569 14.2H8.21482L9.53827 8.87323H12.0069Z" stroke="#FEFEFE" stroke-width="3.99994" stroke-linecap="round" stroke-linejoin="round"/>
<path d="M12.2993 16.1295L14.1043 8.87323H16.574L14.769 16.1295H12.2993ZM18.5907 12.3914C18.7433 12.4183 18.8949 12.4846 19.0417 12.592C19.1884 12.6986 19.2829 12.7976 19.3262 12.8874L20.8437 16.1295H18.6803C18.4804 16.1295 18.312 16.0875 18.1731 16.0061C18.0343 15.9239 17.9339 15.8089 17.8748 15.6587L16.7926 12.9428C16.7453 12.8228 16.6833 12.7254 16.6025 12.6541C16.5218 12.5819 16.4459 12.5324 16.375 12.5022C16.3041 12.472 16.1988 12.4334 16.058 12.3872C16.2185 12.3436 16.3504 12.2974 16.4499 12.2471C16.5503 12.1967 16.636 12.1287 16.7108 12.0414L19.1214 9.25509C19.212 9.15186 19.3351 9.06122 19.4917 8.98653C19.6482 8.911 19.792 8.87491 19.921 8.87491H22.367L19.5803 11.882C19.4858 11.9819 19.339 12.0859 19.1391 12.1925C18.9392 12.2991 18.7571 12.3629 18.5926 12.383V12.3931L18.5907 12.3914Z" stroke="#FEFEFE" stroke-width="3.99994" stroke-linecap="round" stroke-linejoin="round"/>
<path d="M22.499 12.5064C22.6752 11.7947 23.0258 11.1552 23.5497 10.587C24.0725 10.0188 24.7096 9.57487 25.463 9.25427C26.2153 8.93368 27.0129 8.77338 27.8558 8.77338C28.5845 8.77338 29.2216 8.89339 29.7671 9.13426C30.3117 9.37513 30.7331 9.71083 31.0295 10.1431C31.3259 10.5761 31.4727 11.0755 31.4727 11.6395C31.4727 11.9231 31.4352 12.2127 31.3614 12.5064C31.1851 13.2181 30.8365 13.8559 30.3146 14.4224C29.7937 14.9889 29.1546 15.4312 28.3974 15.7502C27.6411 16.0691 26.8396 16.2294 25.9927 16.2294C25.268 16.2294 24.6328 16.1094 24.0873 15.8685C23.5428 15.6276 23.1233 15.2902 22.8288 14.858C22.5344 14.425 22.3877 13.9273 22.3877 13.3633C22.3877 13.0863 22.4251 12.8001 22.499 12.5064ZM24.9686 12.5064C24.9332 12.6566 24.9155 12.7985 24.9155 12.9328C24.9155 13.1929 24.9804 13.422 25.1075 13.6209C25.2345 13.8199 25.4167 13.9751 25.656 14.0851C25.8952 14.195 26.1729 14.2504 26.491 14.2504C26.8672 14.2504 27.2236 14.1749 27.5594 14.0246C27.8942 13.8744 28.1788 13.6671 28.4141 13.4036C28.6495 13.1401 28.808 12.8404 28.8907 12.5064C28.9262 12.3562 28.9439 12.2127 28.9439 12.0759C28.9439 11.8157 28.8809 11.5849 28.7539 11.3843C28.6268 11.1837 28.4427 11.0285 28.2034 10.9185C27.9641 10.8086 27.6864 10.7532 27.3684 10.7532C26.9962 10.7532 26.6417 10.8287 26.3039 10.979C25.9671 11.1292 25.6806 11.3382 25.4452 11.605C25.2099 11.8719 25.0513 12.1732 24.9686 12.5072V12.5064Z" stroke="#FEFEFE" stroke-width="3.99994" stroke-linecap="round" stroke-linejoin="round"/>
<path d="M40.2191 16.1295H37.7494L39.0719 10.8027H37.5377L36.6731 13.4833C36.4969 14.028 36.2399 14.5055 35.9011 14.9184C35.5624 15.3314 35.1685 15.6503 34.7195 15.8752C34.2704 16.101 33.7988 16.2143 33.3044 16.2143C32.9677 16.2143 32.6358 16.1857 32.3089 16.1286C31.982 16.0716 31.6935 15.9969 31.4463 15.9029L31.9751 14.8102C32.0657 14.6197 32.171 14.4845 32.2922 14.4056C32.4133 14.3268 32.5748 14.289 32.7747 14.289C32.8692 14.289 33.0021 14.3007 33.1745 14.3242C33.2375 14.3343 33.2857 14.3393 33.3212 14.3393C33.5014 14.3393 33.6776 14.2462 33.848 14.059C34.0184 13.8719 34.1503 13.6344 34.2439 13.3473L35.6904 8.87241H42.0231L40.2181 16.1286L40.2191 16.1295Z" stroke="#FEFEFE" stroke-width="3.99994" stroke-linecap="round" stroke-linejoin="round"/>
<path d="M51.1946 16.1295H49.2606C49.1158 16.1295 48.976 16.0976 48.8411 16.0346C48.7062 15.9709 48.59 15.8861 48.4964 15.7787C48.4019 15.6721 48.3418 15.5579 48.3143 15.4379L48.1912 14.9319H45.1514L44.7752 15.4379C44.6383 15.6251 44.4463 15.7871 44.1972 15.9239C43.948 16.0607 43.7107 16.1295 43.4882 16.1295H41.5542L47.0814 8.87323H49.2803L51.1975 16.1295H51.1946ZM47.8318 13.4883L47.555 12.3662C47.5354 12.2991 47.5255 12.1891 47.5255 12.0356C47.5255 11.8954 47.5354 11.7452 47.5531 11.5849C47.5708 11.4246 47.5944 11.2827 47.6259 11.1585H47.6023C47.559 11.3524 47.4851 11.5681 47.3768 11.8048C47.2695 12.0423 47.1631 12.2294 47.0617 12.3662L46.2267 13.4883H47.8318Z" stroke="#FEFEFE" stroke-width="3.99994" stroke-linecap="round" stroke-linejoin="round"/>
<path d="M12.0069 8.87323L10.202 16.1295H0.0771484L1.88311 8.87323H4.35179L3.02932 14.2H4.38724L5.71069 8.87323H8.17937L6.8569 14.2H8.21482L9.53827 8.87323H12.0069Z" fill="#0059A5"/>
<path d="M12.2993 16.1295L14.1043 8.87323H16.574L14.769 16.1295H12.2993ZM18.5907 12.3914C18.7433 12.4183 18.8949 12.4846 19.0417 12.592C19.1884 12.6986 19.2829 12.7976 19.3262 12.8874L20.8437 16.1295H18.6803C18.4804 16.1295 18.312 16.0875 18.1731 16.0061C18.0343 15.9239 17.9338 15.8089 17.8748 15.6587L16.7926 12.9428C16.7453 12.8228 16.6833 12.7254 16.6025 12.6541C16.5218 12.5819 16.4459 12.5324 16.375 12.5022C16.3041 12.472 16.1988 12.4334 16.058 12.3872C16.2185 12.3436 16.3504 12.2974 16.4499 12.2471C16.5503 12.1967 16.636 12.1287 16.7108 12.0414L19.1214 9.25509C19.212 9.15186 19.3351 9.06122 19.4917 8.98653C19.6482 8.911 19.792 8.87491 19.921 8.87491H22.367L19.5803 11.882C19.4858 11.9819 19.339 12.0859 19.1391 12.1925C18.9392 12.2991 18.7571 12.3629 18.5926 12.383V12.3931L18.5907 12.3914Z" fill="#0059A5"/>
<path d="M22.499 12.5064C22.6752 11.7947 23.0258 11.1552 23.5497 10.587C24.0725 10.0188 24.7096 9.57487 25.463 9.25427C26.2153 8.93368 27.0129 8.77338 27.8558 8.77338C28.5845 8.77338 29.2216 8.89339 29.7671 9.13426C30.3117 9.37513 30.7331 9.71083 31.0295 10.1431C31.3259 10.5761 31.4727 11.0755 31.4727 11.6395C31.4727 11.9231 31.4352 12.2127 31.3614 12.5064C31.1851 13.2181 30.8365 13.8559 30.3146 14.4224C29.7937 14.9889 29.1546 15.4312 28.3974 15.7502C27.6411 16.0691 26.8396 16.2294 25.9927 16.2294C25.268 16.2294 24.6328 16.1094 24.0873 15.8685C23.5428 15.6276 23.1233 15.2902 22.8288 14.858C22.5344 14.425 22.3877 13.9273 22.3877 13.3633C22.3877 13.0863 22.4251 12.8001 22.499 12.5064ZM24.9686 12.5064C24.9332 12.6566 24.9155 12.7985 24.9155 12.9328C24.9155 13.1929 24.9804 13.422 25.1075 13.6209C25.2345 13.8199 25.4167 13.9751 25.656 14.0851C25.8952 14.195 26.1729 14.2504 26.491 14.2504C26.8672 14.2504 27.2236 14.1749 27.5594 14.0246C27.8942 13.8744 28.1788 13.6671 28.4141 13.4036C28.6495 13.1401 28.808 12.8404 28.8907 12.5064C28.9262 12.3562 28.9439 12.2127 28.9439 12.0759C28.9439 11.8157 28.8809 11.5849 28.7539 11.3843C28.6268 11.1837 28.4427 11.0285 28.2034 10.9185C27.9641 10.8086 27.6864 10.7532 27.3684 10.7532C26.9962 10.7532 26.6417 10.8287 26.3039 10.979C25.9671 11.1292 25.6806 11.3382 25.4452 11.605C25.2099 11.8719 25.0513 12.1732 24.9686 12.5072V12.5064Z" fill="#0059A5"/>
<path d="M40.2191 16.1295H37.7494L39.0719 10.8027H37.5377L36.6731 13.4833C36.4969 14.028 36.2399 14.5055 35.9011 14.9184C35.5624 15.3314 35.1685 15.6503 34.7195 15.8752C34.2704 16.101 33.7988 16.2143 33.3044 16.2143C32.9677 16.2143 32.6358 16.1857 32.3089 16.1286C31.982 16.0716 31.6935 15.9969 31.4463 15.9029L31.9751 14.8102C32.0657 14.6197 32.171 14.4845 32.2922 14.4056C32.4133 14.3268 32.5748 14.289 32.7747 14.289C32.8692 14.289 33.0021 14.3007 33.1745 14.3242C33.2375 14.3343 33.2857 14.3393 33.3212 14.3393C33.5014 14.3393 33.6776 14.2462 33.848 14.059C34.0184 13.8719 34.1503 13.6344 34.2439 13.3473L35.6904 8.87241H42.0231L40.2181 16.1286L40.2191 16.1295Z" fill="#0059A5"/>
<path d="M51.1946 16.1295H49.2606C49.1158 16.1295 48.976 16.0976 48.8411 16.0346C48.7062 15.9709 48.59 15.8861 48.4964 15.7787C48.4019 15.6721 48.3418 15.5579 48.3143 15.4379L48.1912 14.9319H45.1514L44.7752 15.4379C44.6383 15.6251 44.4463 15.7871 44.1972 15.9239C43.948 16.0607 43.7107 16.1295 43.4882 16.1295H41.5542L47.0814 8.87323H49.2803L51.1975 16.1295H51.1946ZM47.8318 13.4883L47.555 12.3662C47.5354 12.2991 47.5255 12.1891 47.5255 12.0356C47.5255 11.8954 47.5354 11.7452 47.5531 11.5849C47.5708 11.4246 47.5944 11.2827 47.6259 11.1585H47.6023C47.559 11.3524 47.4851 11.5681 47.3768 11.8048C47.2695 12.0423 47.1631 12.2294 47.0617 12.3662L46.2267 13.4883H47.8318Z" fill="#0059A5"/>
<path fill-rule="evenodd" clip-rule="evenodd" d="M101.494 3.67065C101.808 3.67065 102.062 3.88718 102.062 4.15407C102.062 4.42095 101.808 4.63748 101.494 4.63748C101.181 4.63748 100.927 4.42095 100.927 4.15407C100.927 3.88718 101.181 3.67065 101.494 3.67065Z" fill="#E31E24"/>
<path fill-rule="evenodd" clip-rule="evenodd" d="M98.8763 4.97236C98.9196 4.94382 99.4021 4.61819 99.6601 4.44026C99.8147 4.33368 99.8906 4.31354 100.072 4.33788C100.353 4.3748 100.697 4.45034 100.834 4.49817C100.938 4.5351 101.397 4.79359 101.462 4.85738C101.513 4.90689 101.647 5.25267 101.726 5.42052C101.774 5.52459 101.814 5.5397 101.954 5.53466C102.132 5.52795 102.355 5.51536 102.431 5.51955C102.557 5.52711 102.688 5.60516 102.693 5.75371C102.697 5.90226 102.53 5.98618 102.416 5.98786C102.328 5.98954 101.898 5.99877 101.656 6.00381C101.468 6.00716 101.35 5.96268 101.269 5.82253C101.185 5.67734 101.18 5.66475 101.12 5.54893L100.782 5.96856C100.755 6.00129 100.745 6.04409 100.78 6.08857C100.814 6.13305 101.322 6.42092 101.414 6.48387C101.505 6.54681 101.6 6.71382 101.495 6.87916C101.413 7.0084 101.057 7.52455 100.843 7.825C100.722 7.9937 100.609 8.19764 100.331 8.06923C100.119 7.97187 100.215 7.72933 100.27 7.62442C100.32 7.52874 100.482 7.23668 100.604 6.99833C100.663 6.88503 100.689 6.83384 100.592 6.78012C100.447 6.70039 100.346 6.63493 100.168 6.5317C100.077 6.63577 99.9575 6.78348 99.8147 6.94294C99.6267 7.1536 99.543 7.16618 99.2495 7.16115C98.8596 7.15443 98.2599 7.12842 98.1555 7.10492C98.0068 7.07135 97.8502 6.94882 97.8847 6.78096C97.9192 6.61395 98.1033 6.52835 98.3032 6.52415C98.5041 6.52079 99.1373 6.5317 99.1845 6.52751C99.2328 6.52415 99.5646 6.06591 99.5814 6.02899C99.5991 5.99206 99.4927 5.87372 99.6946 5.653C99.8965 5.43227 100.251 5.03194 100.251 5.03194C100.318 4.93711 100.1 4.86241 100.005 4.8792C99.9418 4.89011 99.3086 5.24763 99.2318 5.2812C99.155 5.31477 98.9768 5.34415 98.8763 5.23588C98.7759 5.12762 98.8212 5.01935 98.8734 4.97236H98.8763Z" fill="#E31E24"/>
<path fill-rule="evenodd" clip-rule="evenodd" d="M101.324 4.95474C101.239 4.88592 100.861 4.67275 100.765 4.63834C100.57 4.56952 100.257 4.51581 100.044 4.48727C99.9084 4.46965 99.8799 4.48392 99.7716 4.55777C99.5175 4.73318 99.2605 4.91026 99.0015 5.08063C98.9897 5.09994 99.0045 5.12595 99.0182 5.14022C99.0448 5.16875 99.1187 5.15952 99.1522 5.14526C99.2703 5.09238 99.4052 5.01013 99.5205 4.94803C99.6091 4.90019 99.8759 4.74661 99.9705 4.72982C100.046 4.71639 100.132 4.72898 100.204 4.75164C100.377 4.80619 100.517 4.95223 100.406 5.11001L100.401 5.11672L100.395 5.12343C100.211 5.33241 100.025 5.54055 99.8365 5.74701C99.6632 5.93584 99.8119 5.94927 99.7479 6.08607C99.7115 6.16412 99.6042 6.29672 99.549 6.3689C99.5047 6.42765 99.4594 6.48556 99.4102 6.54179C99.358 6.60305 99.2979 6.67187 99.2014 6.67942C99.1463 6.68362 99.0773 6.6811 99.0212 6.68026C98.9188 6.67942 98.8164 6.67859 98.714 6.67775C98.5791 6.67691 98.4422 6.67439 98.3073 6.67691C98.2059 6.67859 98.0798 6.71132 98.0601 6.80867C98.0444 6.88253 98.1241 6.94211 98.2009 6.9589C98.263 6.97233 98.3703 6.97568 98.4353 6.97904C98.58 6.98827 98.7258 6.99415 98.8705 6.99918C98.9976 7.00338 99.1256 7.00758 99.2526 7.01009C99.4929 7.01429 99.5234 7.01681 99.6721 6.85147C99.7932 6.71635 99.9055 6.57703 100.025 6.44191L100.127 6.32526L100.268 6.4075C100.409 6.48891 100.546 6.57536 100.688 6.65425C100.888 6.76419 100.848 6.90351 100.767 7.06045C100.66 7.2711 100.542 7.47756 100.431 7.68738C100.406 7.73689 100.332 7.89803 100.415 7.93664C100.436 7.94671 100.482 7.96601 100.508 7.95594C100.567 7.93412 100.656 7.7948 100.689 7.74696C100.777 7.62359 100.864 7.50022 100.95 7.37601C101.08 7.1897 101.216 6.99834 101.337 6.80783C101.377 6.74573 101.368 6.64837 101.301 6.60221C101.209 6.53843 101.095 6.47716 100.997 6.41841C100.914 6.3689 100.682 6.23965 100.63 6.17335C100.559 6.08271 100.561 5.97193 100.633 5.88297L101.154 5.23925L101.282 5.48935C101.329 5.58083 101.376 5.66728 101.428 5.75708C101.479 5.8452 101.539 5.85611 101.651 5.85359C101.905 5.84856 102.159 5.84184 102.413 5.83765C102.456 5.83681 102.516 5.80072 102.515 5.75876C102.513 5.7084 102.479 5.67567 102.419 5.67231C102.323 5.66644 102.193 5.67735 102.095 5.68154C102.05 5.68322 102.006 5.68574 101.962 5.68658C101.753 5.69413 101.641 5.64713 101.561 5.4776C101.523 5.39703 101.489 5.31479 101.453 5.23254C101.424 5.16372 101.369 5.01853 101.324 4.95558V4.95474Z" fill="#E31E24"/>
<path fill-rule="evenodd" clip-rule="evenodd" d="M101.495 3.82089C101.711 3.82089 101.886 3.97028 101.886 4.15408C101.886 4.33788 101.711 4.48726 101.495 4.48726C101.278 4.48726 101.104 4.33788 101.104 4.15408C101.104 3.96944 101.279 3.82089 101.495 3.82089Z" fill="#E31E24"/>
<path fill-rule="evenodd" clip-rule="evenodd" d="M96.5326 7.24005C96.7562 7.24005 96.9374 7.39448 96.9374 7.58499C96.9374 7.7755 96.7562 7.92992 96.5326 7.92992C96.3091 7.92992 96.1279 7.7755 96.1279 7.58499C96.1279 7.39448 96.3091 7.24005 96.5326 7.24005Z" fill="#E31E24"/>
<path fill-rule="evenodd" clip-rule="evenodd" d="M96.5326 7.09903C96.8477 7.09903 97.1027 7.3164 97.1027 7.58496C97.1027 7.85353 96.8477 8.07089 96.5326 8.07089C96.2174 8.07089 95.9624 7.85353 95.9624 7.58496C95.9624 7.3164 96.2174 7.09903 96.5326 7.09903Z" fill="#E31E24"/>
<path fill-rule="evenodd" clip-rule="evenodd" d="M96.3691 3.74368C96.5926 3.74368 96.7738 3.89811 96.7738 4.08862C96.7738 4.27913 96.5926 4.43356 96.3691 4.43356C96.1455 4.43356 95.9644 4.27913 95.9644 4.08862C95.9644 3.89811 96.1455 3.74368 96.3691 3.74368Z" fill="#E31E24"/>
<path fill-rule="evenodd" clip-rule="evenodd" d="M96.369 3.60266C96.6841 3.60266 96.9391 3.82003 96.9391 4.08859C96.9391 4.35716 96.6841 4.57453 96.369 4.57453C96.0539 4.57453 95.7988 4.35716 95.7988 4.08859C95.7988 3.82003 96.0539 3.60266 96.369 3.60266Z" fill="#E31E24"/>
<path fill-rule="evenodd" clip-rule="evenodd" d="M95.248 5.19139C95.1022 5.44737 94.9575 5.70502 94.8147 5.96183C94.6847 6.19599 94.5419 6.44021 94.4277 6.68024C94.3686 6.80361 94.5468 6.87915 94.6276 6.80361C94.7034 6.73228 94.8826 6.53589 95.0313 6.35964C95.2302 6.12465 95.3789 5.90476 95.4675 5.94841C95.5621 5.99457 95.4459 6.21949 95.312 6.50735C95.1948 6.75829 95.0471 7.0705 95.0146 7.1368C94.9407 7.29206 94.8629 7.44984 94.797 7.60763C94.6857 7.87115 94.9545 7.94753 95.0796 7.78555C95.1052 7.7503 95.1308 7.69743 95.1505 7.65966C95.1987 7.56902 95.245 7.47754 95.2903 7.38606C95.4183 7.12925 95.5444 6.87075 95.6684 6.61226C95.8004 6.33866 95.9313 6.06422 96.0613 5.78979C96.1244 5.65802 96.1844 5.5229 96.2504 5.39198C96.2977 5.29882 96.4079 5.23168 96.5281 5.27028L96.5429 5.27532L96.5566 5.28203C96.663 5.33575 96.9879 5.4994 97.1032 5.52542C97.1228 5.52374 97.1465 5.51954 97.1642 5.51199C97.3001 5.41548 97.436 5.31812 97.5709 5.22077C97.7009 5.12761 97.8407 5.03193 97.9648 4.9329C97.9894 4.9136 97.9914 4.85653 97.9717 4.83639C97.9451 4.81121 97.884 4.82212 97.8555 4.84142C97.7767 4.89681 97.6999 4.95556 97.6231 5.01347C97.5374 5.07725 97.4252 5.16873 97.3306 5.22077C97.2164 5.28287 97.0431 5.29043 96.9417 5.22077C96.8757 5.18216 96.8018 5.14523 96.7329 5.10915C96.596 5.03697 96.4601 4.96563 96.3233 4.89346C96.1214 4.78771 95.9107 4.67021 95.7039 4.57202C95.6418 4.54264 95.5128 4.53257 95.4439 4.53929C95.1643 4.56446 94.8836 4.59636 94.604 4.62573C94.4247 4.64503 94.2455 4.6635 94.0663 4.68364C93.9747 4.69371 93.8704 4.7021 93.7807 4.71805C93.7345 4.72644 93.6911 4.74155 93.6951 4.78771C93.7 4.85065 93.7305 4.87919 93.8054 4.87583C94.2002 4.85905 94.599 4.84394 94.9939 4.83387C95.2499 4.82715 95.3563 5.01599 95.248 5.19055V5.19139Z" fill="#E31E24"/>
<path fill-rule="evenodd" clip-rule="evenodd" d="M93.7442 4.57035C93.8781 4.54685 95.3207 4.39831 95.4241 4.38907C95.5275 4.37984 95.6919 4.39411 95.7894 4.44027C95.8879 4.48643 97.0174 5.07895 97.0439 5.09741C97.0705 5.11587 97.1572 5.13518 97.233 5.09321C97.3098 5.05125 97.622 4.80786 97.7421 4.72478C97.8622 4.64085 98.0247 4.66183 98.1025 4.73401C98.1803 4.80619 98.1921 4.96061 98.0868 5.0437C97.9814 5.12762 97.2675 5.63621 97.2675 5.63621C97.2675 5.63621 97.1966 5.67818 97.0932 5.67818C96.9898 5.67818 96.4659 5.41297 96.4659 5.41297C96.4659 5.41297 96.4383 5.40374 96.4137 5.45242C96.3891 5.50109 95.3443 7.7201 95.2281 7.86949C94.9948 8.17078 94.4413 8.00209 94.6284 7.55728C94.719 7.34075 95.1021 6.55437 95.1021 6.55437C95.1021 6.55437 94.9701 6.70795 94.7584 6.90686C94.5467 7.10576 94.1282 6.90602 94.2621 6.62403C94.3961 6.34287 95.0883 5.12343 95.0883 5.12343C95.0883 5.12343 95.1779 4.98243 94.9987 4.98747C94.8185 4.9925 94.0563 5.01852 93.8131 5.02943C93.5699 5.0395 93.5216 4.87081 93.5157 4.79947C93.5098 4.7273 93.5462 4.60644 93.7432 4.57203L93.7442 4.57035Z" fill="#E31E24"/>
<path fill-rule="evenodd" clip-rule="evenodd" d="M90.5464 4.17757C90.5464 4.17757 90.7591 4.22624 90.9669 4.44529C91.1747 4.6635 91.2229 4.7105 91.3785 4.78687C91.5341 4.86324 91.9674 4.85233 92.1289 4.59132C92.2894 4.33115 92.2382 4.05671 91.9299 3.91236C91.6217 3.76801 91.2032 3.83683 90.9876 3.89054C90.7719 3.94509 90.38 4.10455 90.5464 4.17673V4.17757Z" fill="#E31E24"/>
<path fill-rule="evenodd" clip-rule="evenodd" d="M90.8106 4.1163C90.9258 4.18177 91.0321 4.26821 91.1079 4.34794C91.2251 4.47215 91.3068 4.57286 91.4693 4.65343C91.5254 4.68113 91.6535 4.67525 91.7145 4.66434C91.8179 4.64588 91.9164 4.60224 91.9676 4.51999C92.0789 4.33955 92.0651 4.15323 91.8415 4.04916C91.6141 3.94258 91.2753 3.98118 91.038 4.04077C90.9917 4.05252 90.8943 4.08357 90.8096 4.11798L90.8106 4.1163Z" fill="#E31E24"/>
<path fill-rule="evenodd" clip-rule="evenodd" d="M89.158 5.11419C89.158 5.11419 90.2599 4.41173 90.3633 4.36054C90.4667 4.30934 90.6686 4.30934 90.8163 4.48643C90.964 4.66351 91.5203 5.21658 91.5912 5.25351C91.6621 5.29044 92.0403 5.34667 92.2786 5.39786C92.5179 5.44906 92.5375 5.63453 92.508 5.73273C92.4785 5.83008 92.3544 5.92492 92.1584 5.89051C92.0156 5.86533 91.6109 5.78476 91.3559 5.73357C91.1737 5.69664 91.1215 5.67062 90.9955 5.54641C90.8635 5.41633 90.706 5.24931 90.6636 5.24008C90.6036 5.22581 90.1644 5.52879 90.1565 5.57914C90.1506 5.61691 90.3554 5.7386 90.5209 5.83847C90.6833 5.93667 90.7188 5.99206 90.7001 6.17418C90.6646 6.51408 90.5553 7.01176 90.5218 7.14856C90.4815 7.31473 90.3515 7.43894 90.1112 7.39446C89.8709 7.34998 89.8276 7.1494 89.8473 7.03694C89.869 6.91441 89.9143 6.61227 89.9468 6.42763C89.9694 6.30007 89.934 6.27657 89.7902 6.18509C89.5913 6.05836 89.2781 5.86617 89.1078 5.74532C88.8862 5.5867 88.9286 5.27701 89.157 5.11503L89.158 5.11419Z" fill="#E31E24"/>
<path fill-rule="evenodd" clip-rule="evenodd" d="M89.2701 5.23505C89.1441 5.32737 89.0821 5.5246 89.2239 5.62615C89.4375 5.7789 89.6748 5.91821 89.8984 6.06089C90.0776 6.17503 90.1623 6.24804 90.1258 6.45114C90.0894 6.65424 90.0618 6.85735 90.0264 7.06045C90.0126 7.14018 90.049 7.22578 90.1495 7.24425C90.2716 7.26691 90.3198 7.21571 90.3435 7.11836C90.4173 6.81203 90.4863 6.47296 90.5178 6.1616C90.5306 6.04158 90.5276 6.03403 90.4144 5.96521C90.3848 5.94759 90.3563 5.92996 90.3267 5.91234C90.2046 5.83848 89.9506 5.7084 89.9742 5.55901C89.9909 5.45242 90.179 5.33073 90.2726 5.26611C90.3769 5.19561 90.568 5.05797 90.7088 5.0907C90.8329 5.11924 91.0426 5.35843 91.1303 5.44487C91.2287 5.54222 91.2484 5.55313 91.3951 5.58251C91.659 5.63538 91.9269 5.69245 92.1928 5.73861C92.241 5.747 92.3149 5.74281 92.3296 5.69245C92.3513 5.62111 92.3149 5.56488 92.2312 5.54726C92.1504 5.52963 92.0697 5.51537 91.9879 5.50026C91.8668 5.47844 91.5921 5.43732 91.4926 5.38444C91.4316 5.35255 91.3469 5.26779 91.2977 5.22247C91.2061 5.13602 91.1155 5.04706 91.0269 4.9581C90.9048 4.83557 90.7738 4.70548 90.6645 4.57456C90.6241 4.52588 90.5256 4.45622 90.4508 4.49315C90.3848 4.52672 90.31 4.57707 90.246 4.61652C90.118 4.69541 89.9909 4.77514 89.8649 4.85487C89.665 4.98076 89.4661 5.10665 89.2672 5.23338L89.2701 5.23505Z" fill="#E31E24"/>
<path fill-rule="evenodd" clip-rule="evenodd" d="M88.6541 6.06927C89.2302 6.06927 89.697 6.46708 89.697 6.95805C89.697 7.44902 89.2302 7.84683 88.6541 7.84683C88.0781 7.84683 87.6113 7.44902 87.6113 6.95805C87.6113 6.46708 88.0781 6.06927 88.6541 6.06927Z" fill="#E31E24"/>
<path fill-rule="evenodd" clip-rule="evenodd" d="M88.6539 6.24301C89.1177 6.24301 89.4929 6.56361 89.4929 6.95806C89.4929 7.35335 89.1168 7.67311 88.6539 7.67311C88.1901 7.67311 87.8149 7.35251 87.8149 6.95806C87.8149 6.56277 88.1911 6.24301 88.6539 6.24301Z" fill="#E31E24"/>
<path fill-rule="evenodd" clip-rule="evenodd" d="M91.7933 6.06927C92.3693 6.06927 92.8361 6.46708 92.8361 6.95805C92.8361 7.44902 92.3693 7.84683 91.7933 7.84683C91.2172 7.84683 90.7505 7.44902 90.7505 6.95805C90.7505 6.46708 91.2172 6.06927 91.7933 6.06927Z" fill="#E31E24"/>
<path fill-rule="evenodd" clip-rule="evenodd" d="M91.7931 6.24301C92.2569 6.24301 92.632 6.56361 92.632 6.95806C92.632 7.35335 92.2559 7.67311 91.7931 7.67311C91.3293 7.67311 90.9541 7.35251 90.9541 6.95806C90.9541 6.56277 91.3303 6.24301 91.7931 6.24301Z" fill="#E31E24"/>
</svg>
