<svg width="34" height="33" viewBox="0 0 34 33" fill="none" xmlns="http://www.w3.org/2000/svg">
<path d="M33.1401 0.0182927L34 1.2622C30.5068 3.95122 26.6196 8.10366 22.3203 13.6829C18.039 19.2805 14.7608 24.5122 12.5216 29.3598L10.7123 30.622C9.20759 31.6829 8.18651 32.4695 7.6491 33C7.43414 32.2134 6.96839 30.9329 6.25184 29.1402L5.57113 27.5122C4.58588 25.1707 3.67229 23.4512 2.83035 22.3354C1.98841 21.2195 1.03899 20.4695 0 20.1037C1.77345 18.2012 3.38567 17.25 4.85458 17.25C6.10854 17.25 7.5058 18.9878 9.04636 22.4817L9.79874 24.2378C12.5574 19.4817 16.1043 14.8537 20.4394 10.3537C24.7745 5.87195 29.02 2.41463 33.1581 0L33.1401 0.0182927Z" fill="#E31E24"/>
</svg>
