<svg width="11" height="10" viewBox="0 0 11 10" fill="none" xmlns="http://www.w3.org/2000/svg">
<g clip-path="url(#clip0)">
<path fill-rule="evenodd" clip-rule="evenodd" d="M6.53096 8.44047C6.52988 8.23716 6.69863 8.0694 6.86413 8.0694C6.95066 8.0694 6.98203 8.06495 7.06641 8.10828C7.10535 8.12828 7.13023 8.15161 7.15943 8.1805C7.37577 8.40269 7.22866 8.81709 6.90091 8.8182C6.69647 8.81931 6.53205 8.65044 6.53096 8.44047ZM2.69525 2.55557C2.69525 2.45558 2.71039 2.42336 2.83479 2.37225L5.40924 1.30126C5.50767 1.2546 5.75322 1.14461 5.84084 1.14461C5.91439 1.14461 5.9555 1.19794 5.97713 1.25127L7.03396 3.9343C7.11941 4.15094 8.15676 6.76288 8.15676 6.79621C8.15676 6.97174 8.06049 6.96619 7.8885 7.04173L5.62558 7.98274C5.59962 7.99385 5.58123 8.00163 5.5596 8.01163L5.21129 8.15605C5.02848 8.2316 4.93978 8.28048 4.85649 8.06606L4.19124 6.37625C4.17177 6.32737 4.15122 6.28404 4.13391 6.23182L4.0225 5.94963C4.00303 5.90186 3.98356 5.8552 3.96841 5.81076L3.13442 3.69322C3.12252 3.66544 3.11928 3.65211 3.10846 3.62322L2.99596 3.34103C2.98515 3.30882 2.97974 3.30104 2.96892 3.27215L2.80126 2.84442C2.78179 2.79443 2.69741 2.60112 2.69741 2.55445L2.69525 2.55557ZM1.71631 2.15339C1.71631 2.3367 1.77364 2.43002 1.84287 2.60667C1.89587 2.74332 1.94455 2.86664 1.99863 3.00329C2.10356 3.27215 2.20632 3.52657 2.31124 3.79432L4.33186 8.92041C4.3773 9.03484 4.57957 9.58812 4.65854 9.69588C4.79051 9.87697 4.98629 9.95919 5.21345 9.93363C5.2935 9.92475 5.35515 9.89475 5.4233 9.86697L6.57964 9.38592C7.09345 9.17261 7.5986 8.96041 8.11458 8.74821C8.21085 8.70821 9.02104 8.37603 9.07188 8.34603C9.2601 8.23271 9.38017 8.05384 9.38017 7.79943C9.38017 7.64611 9.27092 7.41614 9.21467 7.27282C9.1833 7.19172 9.15193 7.10506 9.11515 7.02174L8.81876 6.26737C8.78523 6.18294 8.75386 6.10295 8.72033 6.01629L7.04045 1.75788C6.9074 1.41903 6.77651 1.0924 6.64454 0.753544C6.53854 0.482463 6.48337 0.240268 6.24107 0.109171C6.01283 -0.0152593 5.8138 0.044734 5.59421 0.146945L5.45467 0.205827C4.49304 0.598006 3.52816 1.00796 2.56761 1.40569L2.22038 1.55123C2.19009 1.56345 2.17279 1.56901 2.14683 1.58123C2.09923 1.60345 2.0538 1.61789 2.01053 1.64345C1.86342 1.73121 1.71955 1.91675 1.71955 2.15561L1.71631 2.15339Z" fill="#0059A5"/>
<path fill-rule="evenodd" clip-rule="evenodd" d="M10.5262 7.10618C10.5262 7.16061 10.5532 7.25949 10.5651 7.33171C10.6451 7.82054 10.5348 8.29604 10.3001 8.70266C10.0621 9.11262 9.64781 9.43258 9.20107 9.5659C9.13725 9.58479 9.07992 9.5959 9.03449 9.63367C8.89603 9.74921 8.97824 10.0014 9.14482 10.0014C9.28761 10.0014 9.43688 9.9403 9.56993 9.88142C9.92256 9.72699 10.114 9.56701 10.3726 9.30371C10.3996 9.27593 10.4082 9.25927 10.432 9.2326C10.4991 9.15817 10.5348 9.10373 10.5889 9.02374C10.7641 8.76377 10.8528 8.53935 10.9383 8.22938C10.974 8.0994 10.9945 7.94053 11.001 7.7761L10.9999 7.53391C10.9934 7.39059 10.9772 7.25172 10.9513 7.13617C10.9383 7.0784 10.9242 7.02063 10.8939 6.98286C10.7749 6.8351 10.5272 6.92953 10.5272 7.10506L10.5262 7.10618Z" fill="#0059A5"/>
<path fill-rule="evenodd" clip-rule="evenodd" d="M0 2.28975V2.30086L0.0010817 2.55416C0.00540851 2.63082 0.0173072 2.70081 0.0443498 2.7397C0.143866 2.87968 0.325592 2.8619 0.398066 2.72192C0.467295 2.5886 0.301795 2.15754 0.607916 1.52983C0.66741 1.40762 0.722577 1.31541 0.800459 1.20764C0.907548 1.05988 0.937836 1.04433 1.04168 0.935452C1.27533 0.691034 1.73289 0.468837 2.06389 0.432174C2.14502 0.423286 2.20884 0.417731 2.26184 0.378847C2.40787 0.271081 2.36352 0 2.13312 0H2.12879C1.8681 0.00222198 1.49924 0.137762 1.2829 0.248861C1.1055 0.341073 0.97894 0.429952 0.835074 0.555494C0.763682 0.617709 0.689044 0.682146 0.628469 0.757694C0.493256 0.926564 0.430517 0.982113 0.307203 1.2032L0.175236 1.48095C0.0811276 1.72759 0 2.00978 0.0010817 2.28752L0 2.28975Z" fill="#0059A5"/>
<path fill-rule="evenodd" clip-rule="evenodd" d="M0.815918 2.42891C0.815918 2.57778 0.834307 2.78109 1.03118 2.78109C1.14151 2.78109 1.22913 2.69776 1.2367 2.59555C1.24752 2.43668 1.22047 2.41224 1.25293 2.20782C1.29728 1.92452 1.48225 1.63233 1.70616 1.46568C1.89329 1.32569 2.04689 1.27681 2.27838 1.24126C2.33138 1.23348 2.37898 1.21126 2.41143 1.1746C2.55097 1.01795 2.4071 0.819084 2.29677 0.820195C2.06853 0.821306 1.83055 0.900186 1.66505 0.992398C1.58284 1.03795 1.51145 1.08572 1.44114 1.14127C1.4022 1.17127 1.37408 1.19571 1.33946 1.23126C1.29944 1.27126 1.29403 1.26459 1.25184 1.31681C1.11771 1.48457 1.04199 1.559 0.948967 1.79009C0.873248 1.97673 0.859186 2.04895 0.82998 2.24893C0.82349 2.29448 0.817 2.38558 0.817 2.42891H0.815918Z" fill="#0059A5"/>
<path fill-rule="evenodd" clip-rule="evenodd" d="M9.72889 7.27616C9.72889 7.39948 9.7635 7.42947 9.76458 7.69056C9.76566 7.91609 9.66182 8.17828 9.54175 8.3416C9.47793 8.42936 9.47685 8.42381 9.40437 8.49936C9.31027 8.59712 9.19344 8.67934 9.06039 8.73711C8.88948 8.81154 8.72939 8.78821 8.73047 9.02374C8.73047 9.12929 8.83432 9.21705 8.93708 9.21705C9.04741 9.21705 9.31892 9.08485 9.41844 9.02374C9.49524 8.97597 9.54716 8.93375 9.61423 8.88042L9.86085 8.61379C9.88573 8.57935 9.90737 8.54491 9.93008 8.50935C9.95388 8.47269 9.97011 8.43936 9.9939 8.39826C10.0199 8.35382 10.0285 8.32382 10.0502 8.27938C10.1843 7.99719 10.207 7.61501 10.1464 7.30393C10.1291 7.21728 10.1096 7.16173 10.048 7.12284C9.88465 7.01952 9.72889 7.1495 9.72889 7.27616Z" fill="#0059A5"/>
</g>
<defs>
<clipPath id="clip0">
<rect width="11" height="10" fill="white"/>
</clipPath>
</defs>
</svg>
